<?xml version="1.0" encoding="utf-8"?>
<!-- Generator: Adobe Illustrator 19.0.0, SVG Export Plug-In . SVG Version: 6.00 Build 0)  -->
<svg version="1.1" id="Layer_1" xmlns="http://www.w3.org/2000/svg" xmlns:xlink="http://www.w3.org/1999/xlink" x="0px" y="0px"
	 viewBox="-619 340.9 26 27.6" style="enable-background:new -619 340.9 26 27.6;" xml:space="preserve">
<style type="text/css">
	.st0{fill:#FFFFFF;}
</style>
<g id="XMLID_1_">
	<rect id="XMLID_12_" x="-610.2" y="351.2" class="st0" width="3.4" height="3.5"/>
	<rect id="XMLID_11_" x="-605.1" y="351.2" class="st0" width="3.4" height="3.5"/>
	<rect id="XMLID_10_" x="-599.9" y="351.2" class="st0" width="3.5" height="3.5"/>
	<rect id="XMLID_9_" x="-615.5" y="356.3" class="st0" width="3.4" height="3.4"/>
	<rect id="XMLID_8_" x="-610.2" y="356.3" class="st0" width="3.4" height="3.4"/>
	<rect id="XMLID_7_" x="-605.1" y="356.3" class="st0" width="3.4" height="3.4"/>
	<rect id="XMLID_6_" x="-599.9" y="356.3" class="st0" width="3.5" height="3.4"/>
	<rect id="XMLID_5_" x="-615.5" y="361.6" class="st0" width="3.4" height="3.5"/>
	<rect id="XMLID_4_" x="-610.2" y="361.6" class="st0" width="3.4" height="3.5"/>
	<rect id="XMLID_3_" x="-605.1" y="361.6" class="st0" width="3.4" height="3.5"/>
	<path id="XMLID_2_" class="st0" d="M-596.4,344.3v-3.4h-5.2v3.4h-8.6v-3.4h-5.2v3.4h-3.5v24.2h26v-24.2H-596.4z M-599.9,342.5h1.7
		v3.5h-1.7V342.5z M-613.8,342.5h1.7v3.5h-1.7V342.5z M-594.7,366.8h-22.5v-17.4h22.5V366.8z"/>
</g>
</svg>
