<?xml version="1.0" encoding="utf-8"?>
<!-- Generator: Adobe Illustrator 19.0.0, SVG Export Plug-In . SVG Version: 6.00 Build 0)  -->
<svg version="1.1" id="Layer_1" xmlns="http://www.w3.org/2000/svg" xmlns:xlink="http://www.w3.org/1999/xlink" x="0px" y="0px"
	 viewBox="0 0 277.5 81" style="enable-background:new 0 0 277.5 81;" xml:space="preserve">
<style type="text/css">
	.st0{fill:#FFFFFF;}
</style>
<g id="XMLID_157_">
	<g id="XMLID_163_">
		<path id="XMLID_179_" class="st0" d="M131.7,41.7c0-4.4,1.6-8.1,4.7-11.2c3.1-3.1,6.9-4.6,11.4-4.6c4.5,0,8.3,1.5,11.5,4.6
			c3.1,3.1,4.7,6.9,4.7,11.4c0,4.5-1.6,8.3-4.7,11.4c-3.2,3-7,4.6-11.6,4.6c-4.5,0-8.3-1.6-11.4-4.7
			C133.3,50.2,131.7,46.4,131.7,41.7z M138.9,41.9c0,3,0.8,5.4,2.4,7.2c1.7,1.8,3.8,2.7,6.6,2.7c2.7,0,4.9-0.9,6.6-2.6
			c1.6-1.8,2.5-4.1,2.5-7.1s-0.8-5.3-2.5-7.1c-1.7-1.8-3.8-2.7-6.6-2.7c-2.7,0-4.8,0.9-6.5,2.7C139.7,36.7,138.9,39,138.9,41.9z"/>
		<path id="XMLID_177_" class="st0" d="M39.9,45.5c-0.6,3-2.1,5.7-4.4,7.9c-3.1,3-7,4.6-11.6,4.6c-4.5,0-8.3-1.6-11.4-4.7
			C9.5,50.3,8,46.4,8,41.8c0-4.4,1.6-8.1,4.7-11.2c3.1-3.1,6.9-4.6,11.4-4.6c4.5,0,8.3,1.5,11.5,4.6c2.2,2.2,3.7,4.9,4.3,7.9h-7.3
			c-0.4-1.3-1.1-2.5-2-3.5c-1.7-1.8-3.8-2.7-6.6-2.7c-2.7,0-4.8,0.9-6.5,2.7c-1.7,1.8-2.5,4.1-2.5,6.9c0,3,0.8,5.4,2.4,7.2
			c1.7,1.8,3.8,2.7,6.6,2.7c2.7,0,4.9-0.9,6.6-2.6c0.9-1,1.6-2.3,2-3.6H39.9z"/>
		<path id="XMLID_174_" class="st0" d="M166.8,41.7c0-4.4,1.6-8.1,4.7-11.2c3.1-3.1,6.9-4.6,11.4-4.6c4.5,0,8.3,1.5,11.5,4.6
			c3.1,3.1,4.7,6.9,4.7,11.4c0,4.5-1.6,8.3-4.7,11.4c-3.1,3-7,4.6-11.6,4.6c-4.5,0-8.3-1.6-11.4-4.7
			C168.3,50.2,166.8,46.4,166.8,41.7z M174,41.9c0,3,0.8,5.4,2.4,7.2c1.7,1.8,3.8,2.7,6.6,2.7c2.7,0,4.9-0.9,6.6-2.6
			c1.6-1.8,2.5-4.1,2.5-7.1s-0.8-5.3-2.5-7.1c-1.7-1.8-3.8-2.7-6.6-2.7c-2.7,0-4.8,0.9-6.5,2.7C174.8,36.7,174,39,174,41.9z"/>
		<path id="XMLID_172_" class="st0" d="M208.9,10v47.1h-7V10H208.9z"/>
		<path id="XMLID_170_" class="st0" d="M84.9,57.1h-7.1V41.7c0-4.4,1.6-8.1,4.7-11.2c3.1-3.1,6.9-4.6,11.4-4.6v6.3
			c-2.7,0-4.8,0.9-6.5,2.7c-1.7,1.8-2.5,4.1-2.5,6.9V57.1z"/>
		<path id="XMLID_167_" class="st0" d="M96.7,41.7c0-4.4,1.6-8.1,4.7-11.2c3.1-3.1,6.9-4.6,11.4-4.6c4.5,0,8.3,1.5,11.5,4.6
			c3.1,3.1,4.7,6.9,4.7,11.4c0,4.5-1.6,8.3-4.7,11.4c-3.1,3-7,4.6-11.6,4.6c-3.4,0-6.4-0.9-9-2.7v18.3h-7V41.7z M103.8,41.9
			c0,3,0.8,5.4,2.4,7.2c1.7,1.8,3.8,2.7,6.6,2.7c2.7,0,4.9-0.9,6.6-2.6c1.6-1.8,2.5-4.1,2.5-7.1s-0.8-5.3-2.5-7.1
			c-1.7-1.8-3.8-2.7-6.6-2.7c-2.7,0-4.8,0.9-6.5,2.7C104.7,36.7,103.8,39,103.8,41.9z"/>
		<path id="XMLID_164_" class="st0" d="M75,57.1H68v-1.8c-2.7,1.8-5.8,2.7-9.3,2.7c-4.5,0-8.3-1.6-11.4-4.7
			c-3.1-3.1-4.6-6.9-4.6-11.6c0-4.4,1.6-8.1,4.7-11.2c3.1-3.1,6.9-4.6,11.4-4.6c4.5,0,8.3,1.5,11.5,4.6C73.4,33.7,75,37.5,75,42
			L75,57.1z M49.9,41.9c0,3,0.8,5.4,2.4,7.2c1.7,1.8,3.8,2.7,6.6,2.7c2.7,0,4.9-0.9,6.6-2.6c1.6-1.8,2.5-4.1,2.5-7.1
			S67,36.7,65.4,35c-1.7-1.8-3.8-2.7-6.6-2.7c-2.7,0-4.8,0.9-6.5,2.7C50.7,36.7,49.9,39,49.9,41.9z"/>
	</g>
	<path id="XMLID_158_" class="st0" d="M265.5,40.9L264,30.8c0-2.7-2.7-4.8-6-4.8h-23.4c-3.3,0-6,2.2-6,4.8L227,40.9
		c0,0-2.1,0-3.7,1.5c-1.5,1.5-1.5,3.4-1.5,3.7c0,0.3,0,1.6,0,1.9c0,0.3,0.1,1.7,0.7,2.6c0.6,1,1.7,2,2.8,2.2c0,0,0,1.6,0,2
		c0,0.4,0.2,1.1,0.6,1.5c0.4,0.3,0.8,0.6,1.4,0.6c0.6,0,5.4,0,5.8,0c0.5,0,1-0.2,1.5-0.6c0.5-0.5,0.6-1.1,0.6-1.5c0-0.4,0-1.9,0-1.9
		H257c0,0,0,1.5,0,2c0,0.5,0.2,1,0.5,1.2c0.3,0.3,0.8,0.8,1.6,0.8c0.8,0,5.4,0,5.8,0c0.4,0,1-0.2,1.5-0.7c0.5-0.5,0.6-1.1,0.6-1.5
		s0-1.9,0-1.9s1.1-0.3,2-1.3c1-1.1,1.5-2.5,1.5-3.7c0-1.2,0-1.2,0-2c0-0.7-0.3-2.5-1.5-3.7C267.7,41.2,266.1,40.9,265.5,40.9z
		 M252.5,35.3c0,0-1.4,0-2.2,1.2c-0.8,1.1-0.7,2.4-0.7,2.4v2.1h-6.2c0-1.7-0.4-2.5-1.4-3.5c-1-1-2.8-0.9-2.8-0.9s1.6-0.5,1.6-3.1
		c0-2.6-1.8-3.6-3-3.6c-1.3,0-3,1.1-3,3.5s1.5,3.3,1.5,3.3s-0.9-0.2-2.1,0.5c-1.5,0.8-1.9,2.1-2,2.6c-0.1,0.5-0.1,1.3-0.1,1.3h-3.3
		l1.5-10.2c0-1.9,1.9-3.4,4.2-3.4H258c2.3,0,4.2,1.5,4.2,3.4l1.5,10.2h-5c0,0,0-1.2,0-1.9c0-0.7-0.3-2.3-1.4-3.1
		c-1-0.8-1.7-0.7-1.7-0.7s2-0.9,2-3.1c0-2.2-1.9-3.7-3.6-3.7c-1.7,0-3.6,1.6-3.6,3.6C250.5,34.1,252.5,35.3,252.5,35.3z M267.1,47.2
		c0,1.6-1.3,2.9-2.9,2.9c-1.6,0-2.8-1.3-2.8-2.9c0-1.6,1.3-2.8,2.8-2.8C265.8,44.4,267.1,45.7,267.1,47.2z M231.3,47.2
		c0,1.6-1.3,2.9-2.9,2.9c-1.6,0-2.8-1.3-2.8-2.9c0-1.6,1.3-2.8,2.8-2.8C230,44.4,231.3,45.7,231.3,47.2z"/>
</g>
</svg>
