<?xml version="1.0" encoding="utf-8"?>
<!-- Generator: Adobe Illustrator 19.0.0, SVG Export Plug-In . SVG Version: 6.00 Build 0)  -->
<svg version="1.1" id="Layer_1" xmlns="http://www.w3.org/2000/svg" xmlns:xlink="http://www.w3.org/1999/xlink" x="0px" y="0px"
	 viewBox="0 0 52.5 46.7" style="enable-background:new 0 0 52.5 46.7;" xml:space="preserve">
<style type="text/css">
	.st0{fill:#FFF;}
</style>
<path id="XMLID_1_" class="st0" d="M41.9,23.6l-1.2-8.2c0-2.2-2.2-3.9-4.9-3.9h-19c-2.7,0-4.9,1.7-4.9,3.9l-1.2,8.2c0,0-1.7,0-3,1.2
	c-1.2,1.2-1.2,2.7-1.2,3c0,0.3,0,1.3,0,1.6c0,0.3,0.1,1.3,0.6,2.1c0.5,0.8,1.4,1.6,2.2,1.8c0,0,0,1.3,0,1.6c0,0.3,0.2,0.9,0.5,1.2
	c0.3,0.3,0.7,0.5,1.1,0.5c0.5,0,4.3,0,4.7,0s0.8-0.1,1.2-0.5c0.4-0.4,0.5-0.9,0.5-1.2c0-0.3,0-1.5,0-1.5H35c0,0,0,1.2,0,1.6
	c0,0.4,0.2,0.8,0.4,1c0.2,0.2,0.6,0.6,1.3,0.6c0.7,0,4.4,0,4.7,0c0.3,0,0.8-0.1,1.2-0.5c0.4-0.4,0.5-0.9,0.5-1.2c0-0.3,0-1.5,0-1.5
	s0.9-0.3,1.6-1.1c0.8-0.9,1.2-2,1.2-3c0-1,0-1,0-1.6c0-0.6-0.3-2-1.3-3C43.7,23.9,42.4,23.6,41.9,23.6z M31.4,19.1c0,0-1.1,0-1.8,1
	C29,20.9,29,22,29,22v1.7h-5.1c0-1.4-0.3-2-1.1-2.8c-0.8-0.8-2.2-0.7-2.2-0.7s1.3-0.4,1.3-2.5c0-2.1-1.4-2.9-2.4-2.9
	c-1,0-2.4,0.9-2.4,2.8c0,1.9,1.2,2.6,1.2,2.6s-0.7-0.1-1.7,0.4c-1.2,0.6-1.5,1.7-1.6,2.1c-0.1,0.4,0,1,0,1h-2.7l1.2-8.2
	c0-1.5,1.5-2.7,3.4-2.7h19c1.9,0,3.4,1.2,3.4,2.7l1.2,8.2h-4c0,0,0-1,0-1.6c0-0.6-0.3-1.8-1.1-2.5C34.5,18.9,34,19,34,19
	s1.6-0.7,1.6-2.5c0-1.8-1.5-3-2.9-3c-1.4,0-2.9,1.3-2.9,2.9C29.8,18.1,31.4,19.1,31.4,19.1z M43.2,28.7c0,1.3-1,2.3-2.3,2.3
	c-1.3,0-2.3-1-2.3-2.3c0-1.3,1-2.3,2.3-2.3C42.2,26.4,43.2,27.5,43.2,28.7z M14.2,28.7c0,1.3-1,2.3-2.3,2.3c-1.3,0-2.3-1-2.3-2.3
	c0-1.3,1-2.3,2.3-2.3C13.2,26.4,14.2,27.5,14.2,28.7z"/>
</svg>
