<?xml version="1.0" encoding="utf-8"?>
<!-- Generator: Adobe Illustrator 19.0.0, SVG Export Plug-In . SVG Version: 6.00 Build 0)  -->
<svg version="1.1" id="Layer_1" xmlns="http://www.w3.org/2000/svg" xmlns:xlink="http://www.w3.org/1999/xlink" x="0px" y="0px"
	 viewBox="-535.8 274 174 174" style="enable-background:new -535.8 274 174 174;" xml:space="preserve">
<style type="text/css">
	.st0{fill:#A6A8AC;}
</style>
<g id="XMLID_2_">
	<g id="XMLID_40_">
		<path id="XMLID_41_" class="st0" d="M-448.5,447.1c-11.6,0-22.9-2.3-33.5-6.8c-10.2-4.3-19.5-10.5-27.4-18.4s-14.1-17.1-18.4-27.4
			c-4.5-10.6-6.8-21.9-6.8-33.5s2.3-22.9,6.8-33.5c4.4-10.3,10.6-19.5,18.5-27.4c7.9-7.9,17.1-14.1,27.4-18.4
			c10.6-4.5,21.9-6.8,33.5-6.8s22.9,2.3,33.5,6.8c10.2,4.3,19.5,10.5,27.4,18.4s14.1,17.1,18.4,27.4c4.5,10.6,6.8,21.9,6.8,33.5
			s-2.3,22.9-6.8,33.5c-4.3,10.3-10.5,19.5-18.4,27.4s-17.1,14.1-27.4,18.4C-425.6,444.8-436.9,447.1-448.5,447.1z M-448.5,276.6
			c-11.4,0-22.5,2.2-32.9,6.6c-10.1,4.3-19.1,10.3-26.8,18.1c-7.7,7.7-13.8,16.8-18,26.8c-4.4,10.4-6.6,21.5-6.6,32.9
			s2.2,22.5,6.6,32.9c4.3,10.1,10.3,19.1,18.1,26.8c7.8,7.8,16.8,13.8,26.8,18.1c10.4,4.4,21.5,6.6,32.9,6.6s22.5-2.2,32.9-6.6
			c10.1-4.3,19.1-10.3,26.8-18.1c7.8-7.8,13.8-16.8,18.1-26.8c4.4-10.4,6.6-21.5,6.6-32.9s-2.2-22.5-6.6-32.9
			c-4.3-10-10.4-19.1-18.2-26.8c-7.8-7.8-16.8-13.8-26.8-18.1C-426,278.8-437.1,276.6-448.5,276.6z"/>
	</g>
	<g id="_x33_Fl1c2_1_">
		<g id="XMLID_3_">
			<g id="XMLID_14_">
				<path id="XMLID_15_" class="st0" d="M-398.4,411.1h-43.9v-45h6.9v4.7h6.9v-16.2h5.1v4.4h6.6v-4.4h5.1v4.4c0.9,0,2.4,0.1,4.1,0.1
					c0.9,0,1.7,0,2.3,0v-4.4h6.9V411.1z M-440.7,409.5h40.6v-53.3h-3.6v4.3l-0.8,0.1c-0.6,0.1-2.4,0.1-3.2,0.1c-1.1,0-4.7,0-5.2-0.1
					l-0.6-0.2v-4.2h-1.8v4.4h-10v-4.4h-1.8v16.2h-10.2v-4.7h-3.5v41.8H-440.7z M-432.6,407.7c-1.5,0-3.4,0-3.8-0.1l-0.7-0.1v-9.8
					h10.2v9.7l-0.6,0.2C-427.9,407.7-430.5,407.7-432.6,407.7z M-435.4,406.1c0.6,0,1.5,0,2.8,0c1.8,0,3.2,0,4,0v-6.6h-6.8V406.1z
					 M-415.2,407.7h-9.9v-9.9h9.9V407.7z M-423.4,406h6.6v-6.6h-6.6V406z M-403.7,407.7h-9.7v-9.9h9.7V407.7z M-411.7,406h6.3v-6.6
					h-6.3V406z M-433.1,396c-0.9,0-2.6,0-3.2-0.1h-0.6l-0.2-0.6c-0.2-0.6-0.1-8-0.1-8.6l0.1-0.7h10.1v9.6l-0.6,0.2
					C-428,396-431.5,396-433.1,396z M-435.4,394.2c0.6,0,1.4,0,2.4,0c1.9,0,3.6,0,4.5-0.1v-6.6h-6.9
					C-435.5,389.2-435.5,392.8-435.4,394.2z M-415.2,395.9h-9.9v-0.8c0-2.5,0-5.1,0-8.3V386h9.9V395.9z M-423.5,394.2h6.6v-6.6h-6.6
					C-423.5,390.1-423.5,392.2-423.5,394.2z M-403.7,395.9h-9.7V386h0.8c1.8,0,3.6,0,5.3,0c0.7,0,1.4,0,2.1,0h1.4L-403.7,395.9
					L-403.7,395.9z M-411.7,394.2h6.4v-6.6c-0.6,0-1.2,0-1.8,0c-1.5,0-3,0-4.5,0v6.6H-411.7z M-432.9,384.2c-1.1,0-3,0.1-3.5,0h-0.7
					v-10h10.2v10h-0.6C-427.9,384.4-431.1,384.2-432.9,384.2z M-435.4,382.5c0.5,0,1.4,0,2.5,0c1.8,0,3.4,0,4.3,0v-6.6h-6.8V382.5z
					 M-403.7,384.2h-9.7v-10h9.7V384.2z M-411.7,382.5h6.3v-6.6h-6.3V382.5z M-415.2,384.2h-9.9v-10h9.9V384.2z M-423.4,382.5h6.6
					v-6.6h-6.6V382.5z M-403.7,372.4h-9.7v-9.9h9.7V372.4z M-411.7,370.8h6.3v-6.6h-6.3V370.8z M-415.2,372.4h-9.9v-9.9h9.9V372.4z
					 M-423.4,370.8h6.6v-6.6h-6.6V370.8z"/>
			</g>
			<g id="XMLID_8_">
				<path id="XMLID_9_" class="st0" d="M-478.4,310.2h8.2v1.7l7.7,2.3c7.5,2.2,15.2,4.5,22.8,6.8c0.8,0.2,1.6,0.4,2.5,0.4h0.1
					c1.5,0,3.1,0,5.2,0c0.9,0,1.9,0,2.8,0s1.9,0,2.8,0h0.3c0.1,0,0.3,0,0.5,0c1.4,0.1,2.5,1.2,2.6,2.5c0,0.7,0,1.4,0,2.1
					c0,0.3,0,0.6,0,0.9v0.8h-0.8c-0.4,0-0.9,0-1.5,0l0,0c-0.3,0-0.5,0-0.8,0c-0.4,0-0.7,0-1.1,0c-0.8,0-1.5,0-2.3,0
					c-0.4,0-0.7,0-1.1,0h-39.6c-0.1,7.3-0.1,63.8,0,71.1c0.1,0,0.1,0,0.2,0c0.8-0.1,1.6,0.1,2.4,0.5c2.1,1.1,4.3,2.1,6.2,3
					c0.6,0.3,0.9,0.8,0.9,1.5c0,1.5,0,3.1,0,4.6c0,0.6,0,1.2,0,1.8c0,0.1,0,0.3,0,0.4s0,0.1,0,0.2v0.8H-488l-0.1-0.7v-0.1
					c0-0.1,0-0.2,0-0.4c0-0.8,0-1.6,0-2.5c0-1.4,0-2.7,0-4.1c0-0.6,0.3-1.1,0.8-1.4c2.3-1.1,4.7-2.3,6.8-3.3
					c0.4-0.2,0.8-0.3,1.2-0.3h0.1c0.3,0,0.5,0,0.8,0c0.1-7.3,0.1-63.6,0-70.9c-0.2,0-0.3,0-0.5,0c-0.2,0-0.3,0-0.5,0h-0.1
					c-0.4,0-0.8,0-1.2,0h-4.3v8.7h-13.5v-10.5c0-0.6,0-1.3,0-2c0-1.5,1.2-2.8,2.8-2.8c0.4,0,0.9,0,1.5,0c0.5,0,1.1,0,1.6,0l0,0l0,0
					c0.1,0,0.2,0,0.3-0.1c5.2-3.2,9.7-6.9,13.9-9.4V310.2z M-443,323h-25.7v-2.7h-3.2v-7.2l0,0V312c-0.4,0-1.1,0-2,0
					c-1.2,0-2.2,0-2.8,0c0,0.2,0,0.5,0,0.7c0,0.2,0.1,0.5,0,0.7l0,0v6.8h-3.2c0,0.6,0,1.3,0,1.9v0.8H-490h-4.2c-0.5,0-1,0-1.4,0
					c-0.6,0-1.1,0.5-1.1,1.2c0,0.6,0,1.3,0,1.9l0,0v9.1h9.7v-9h6.3c0.4,0,0.8,0,1.2,0h0.1c0.2,0,0.3,0,0.5,0c0.2,0,0.3,0,0.5,0
					c0.4,0,0.6,0,0.9,0h0.8v0.8c0.1,0.7,0,33,0,36.7c0,36-0.1,36.2-0.1,36.4l-0.2,0.6h-0.6c-0.2,0-0.3,0-0.5,0c-0.4,0-0.8,0-1.2,0
					l0,0c-0.2,0-0.3,0-0.4,0.1c-2.1,1-4.4,2.2-6.7,3.3c0,1.3,0,2.7,0,4c0,0.7,0,1.4,0,2h24.3c0-0.5,0-1,0-1.5c0-1.5,0-3,0-4.6
					c-1.9-0.9-4.1-1.9-6.2-3c-0.6-0.3-1-0.4-1.6-0.4c-0.2,0-0.5,0-0.8,0c-0.1,0-0.2,0-0.3,0h-0.7l-0.1-0.7
					c-0.1-0.7-0.1-30.6-0.1-36.6c0-36,0-36.9,0-37l0,0h41.3c0.4,0,0.8,0,1.1,0c0.7,0,1.5,0,2.2,0c0.4,0,0.7,0,1.1,0
					c0.3,0,0.5,0,0.8,0l0,0c0.2,0,0.5,0,0.7,0c0-0.1,0-0.1,0-0.2c0-0.7,0-1.4,0-2c0-0.5-0.5-0.9-1.1-1c-0.1,0-0.3,0-0.4,0h-0.3
					c-0.9,0-1.9,0-2.8,0c-0.9,0-1.9,0-2.8,0c-2.1,0-3.7,0-5.2,0h-0.1H-443z M-489.4,321.2h7.8c0-0.5,0-1,0-1.5v-1.3h3.1v-4.9
					L-489.4,321.2z M-467,321.2h23c-7-2.1-19.1-5.5-26.2-7.6v4.9h3.2V321.2z"/>
			</g>
			<g id="XMLID_4_">
				<path id="XMLID_5_" class="st0" d="M-432.1,336.9v-9.6h1.8v9.6l4.3,2.2c0.5,0.3,0.8,0.7,0.8,1.2c0,1.6,0,3.2,0,4.8v1.6
					c0,0.1,0,0.2,0,0.3c0,0,0,0,0,0.1v0.7h-11.7v-0.9c0-0.1,0-0.2,0-0.3c0-0.6,0-1.2,0-1.8c0-1.4,0-2.8,0-4.2c0-0.9,0.5-1.3,0.9-1.5
					L-432.1,336.9z M-435.2,340.5L-435.2,340.5c0,1.4,0,2.8,0,4.2c0,0.4,0,0.9,0,1.3h8.3v-1c0-1.5,0-3.1,0-4.6l-4.2-2.2
					L-435.2,340.5z"/>
			</g>
		</g>
	</g>
</g>
</svg>
