<?xml version="1.0" encoding="utf-8"?>
<!-- Generator: Adobe Illustrator 19.0.0, SVG Export Plug-In . SVG Version: 6.00 Build 0)  -->
<svg version="1.1" id="Layer_1" xmlns="http://www.w3.org/2000/svg" xmlns:xlink="http://www.w3.org/1999/xlink" x="0px" y="0px"
	 viewBox="-614 339.5 44.5 27.7" style="enable-background:new -614 339.5 44.5 27.7;" xml:space="preserve">
<style type="text/css">
	.st0{fill:#FFFFFF;}
</style>
<g id="XMLID_129_">
	<path id="XMLID_133_" class="st0" d="M-591.8,357.1l19.9-17.5c-0.1,0-0.2-0.1-0.4-0.1h-38.9c-0.1,0-0.2,0-0.2,0L-591.8,357.1z"/>
	<path id="XMLID_132_" class="st0" d="M-569.5,342.3c0-0.3-0.1-0.6-0.2-0.9l-14,12.4l13.8,12.1c0.2-0.4,0.4-0.8,0.4-1.3V342.3z"/>
	<path id="XMLID_131_" class="st0" d="M-613.8,341.2c-0.1,0.3-0.2,0.7-0.2,1.1v22.2c0,0.4,0.1,0.8,0.3,1.1l14-12L-613.8,341.2z"/>
	<path id="XMLID_130_" class="st0" d="M-585.8,355.5l-5.9,5.2l-5.9-5.3l-13.8,11.8h0.1h38.8L-585.8,355.5z"/>
</g>
</svg>
