<?xml version="1.0" encoding="utf-8"?>
<!-- Generator: Adobe Illustrator 19.0.0, SVG Export Plug-In . SVG Version: 6.00 Build 0)  -->
<svg version="1.1" id="Layer_1" xmlns="http://www.w3.org/2000/svg" xmlns:xlink="http://www.w3.org/1999/xlink" x="0px" y="0px"
	 viewBox="-528.2 274.5 174 174" style="enable-background:new -528.2 274.5 174 174;" xml:space="preserve">
<style type="text/css">
	.st0{fill:none;stroke:#B4B4B4;stroke-width:2;stroke-miterlimit:10;}
</style>
<circle id="XMLID_226_" class="st0" cx="-441.5" cy="361.5" r="84.8"/>
<g id="XMLID_201_">
	<rect id="XMLID_216_" x="-455.6" y="349.4" class="st0" width="11.7" height="11.7"/>
	<rect id="XMLID_215_" x="-438.1" y="349.4" class="st0" width="11.7" height="11.7"/>
	<rect id="XMLID_214_" x="-420.5" y="349.4" class="st0" width="11.7" height="11.7"/>
	<rect id="XMLID_213_" x="-473.3" y="367" class="st0" width="11.7" height="11.7"/>
	<rect id="XMLID_212_" x="-455.6" y="367" class="st0" width="11.7" height="11.7"/>
	<rect id="XMLID_211_" x="-438.1" y="367" class="st0" width="11.7" height="11.7"/>
	<rect id="XMLID_210_" x="-420.5" y="367" class="st0" width="11.7" height="11.7"/>
	<rect id="XMLID_209_" x="-473.3" y="384.6" class="st0" width="11.7" height="11.8"/>
	<rect id="XMLID_208_" x="-455.6" y="384.6" class="st0" width="11.7" height="11.8"/>
	<rect id="XMLID_207_" x="-438.1" y="384.6" class="st0" width="11.7" height="11.8"/>
	<path id="XMLID_202_" class="st0" d="M-408.8,325.9v-11.7h-17.6v11.7h-29.2v-11.7h-17.7v11.7H-485v82h87.9v-82H-408.8L-408.8,325.9
		z M-420.5,320.1h5.9v11.7h-5.9V320.1z M-467.4,320.1h5.9v11.7h-5.9V320.1z M-402.9,402.1h-76.1v-58.6h76.1V402.1z"/>
</g>
</svg>
