<?xml version="1.0" encoding="utf-8"?>
<!-- Generator: Adobe Illustrator 19.0.0, SVG Export Plug-In . SVG Version: 6.00 Build 0)  -->
<svg version="1.1" id="Layer_1" xmlns="http://www.w3.org/2000/svg" xmlns:xlink="http://www.w3.org/1999/xlink" x="0px" y="0px"
	 viewBox="-535.8 274.1 174 174" style="enable-background:new -535.8 274.1 174 174;" xml:space="preserve">
<style type="text/css">
	.st0{fill:#A6A8AC;}
</style>
<g id="XMLID_73_">
	<path id="XMLID_86_" class="st0" d="M-489.9,336.1l24.7,24.7l-38.6,38.6l16.1,16.1l38.6-38.6l17.3,17.3l15.8-15.8l-17.3-17.3
		l38.4-38.4l-16.1-16.1l-38.4,38.5l-24.6-24.7L-489.9,336.1z M-411,309.1l13.8,13.8l-2.3,2.3l-9.1-9.1l-1.1,1.1l9.1,9.1l-2.2,2.2
		l-5.4-5.4l-1.1,1.1l5.4,5.4l-2.2,2.2l-5.4-5.4l-1.1,1.1l5.4,5.4l-2.2,2.2l-5.4-5.4l-1.1,1.1l5.4,5.4l-2.2,2.2l-5.4-5.4l-1.1,1.1
		l5.4,5.4l-2.2,2.2l-9.1-9.1l-1.1,1.1l9.1,9.1l-2.2,2.2l-5.4-5.4l-1.1,1.1l5.4,5.4l-2.2,2.2l-5.4-5.4l-1.1,1.1l5.4,5.4l-2.2,2.2
		l-5.2-5.2l-0.9,1.2l5.1,5.1l-2.2,2.2l-5.2-5.2l-0.9,1.2l5.1,5.1l-2.2,2.2l-9.1-9.4l-1.1,1.1l9.1,9.1l-1.1,1.1l-13.7-13.8
		L-411,309.1z M-501.4,399.5L-464,362l13.8,13.8l-1.8,1.8l-5.4-5.4l-1.1,1.1l5.4,5.4l-2.2,2.2l-5.4-5.4l-1.1,1.1l5.4,5.4l-2.2,2.2
		l-5.4-5.4l-1.1,1.1l5.4,5.4l-2.2,2.2l-5.4-5.4l-1.1,1.1l5.4,5.4l-2.2,2.2l-9.1-9.1l-1.1,1.1l9.1,9.1l-2.2,2.2l-5.4-5.4l-1.1,1.1
		l5.4,5.4l-2.2,2.2l-5.4-5.4l-1.1,1.1l5.4,5.4l-2.2,2.2l-5.4-5.4l-1.1,1.1l5.4,5.4l-2.2,2.2l-5.4-5.4l-1.1,1.1l5.4,5.4l-2.2,2.2
		l-9.1-9.1l-1.1,1.1l9.1,9.1l-2.2,2.2l-5.4-5.4l-1.1,1.1l5.4,5.4l-1.9,1.9L-501.4,399.5z M-474.1,322.6l55.8,55.8l-13.4,13.4
		l-4.2-4.2l-51.6-51.5L-474.1,322.6z"/>
	<path id="XMLID_83_" class="st0" d="M-480.2,314.1c-0.1-0.1-0.2-0.2-0.3-0.2l-0.1-0.1l0,0c-2.5-2.5-4.7-2.9-6.6-1l-9.7,9.7
		c-0.9,0.9-1.4,1.9-1.3,3c0,1.2,0.7,2.5,2.1,3.8c0.1,0.1,0.1,0.2,0.2,0.2c0.1,0.1,0.1,0.2,0.2,0.2l4.2,4.3l15.7-15.7l-4-4
		C-480,314.4-480.1,314.2-480.2,314.1z M-491.6,331.9l-2.9-2.9c-0.1-0.1-0.1-0.1-0.2-0.2c-0.1-0.1-0.2-0.3-0.3-0.4
		c-1-1-1.5-1.9-1.6-2.7c0-0.6,0.3-1.2,0.8-1.8l9.7-9.7c0.8-0.8,1.9-1.4,4.3,1l0,0c0.1,0.1,0.2,0.2,0.3,0.2h0.1v0.2l3.1,3.1
		L-491.6,331.9z"/>
	<path id="XMLID_80_" class="st0" d="M-412.9,399.6c0.6-0.4,1.2-0.6,1.9-0.8c1.5-0.5,3.2-1,4-4.6l0.1-0.3l-6.9-14.2l-16.3,16.3
		l14.8,7.2l1.1,0.5l0.1-1.2C-414.1,402.1-413.8,400.2-412.9,399.6z M-415.6,401.5l-11.8-5.7l13-13l5.6,11.5
		c-0.6,2.4-1.5,2.6-2.8,3.1c-0.7,0.2-1.5,0.5-2.4,1.1C-414.9,399.1-415.4,400.5-415.6,401.5z"/>
	<path id="XMLID_77_" class="st0" d="M-413.4,404.2l14.8,7.2l-7.2-14.8L-413.4,404.2z M-406.3,399.5l4.1,8.4l-8.4-4.1L-406.3,399.5z
		"/>
	<path id="XMLID_74_" class="st0" d="M-370,394.4c4.5-10.5,6.7-21.7,6.7-33.3c0-11.6-2.3-22.7-6.7-33.3
		c-4.3-10.2-10.5-19.3-18.3-27.2c-7.9-7.9-17-14-27.2-18.3c-10.5-4.5-21.7-6.7-33.3-6.7c-11.5,0-22.7,2.3-33.3,6.7
		c-10.1,4.4-19.3,10.5-27.1,18.4c-7.9,7.9-14,17-18.3,27.2c-4.5,10.5-6.7,21.7-6.7,33.3c0,11.5,2.3,22.7,6.7,33.3
		c4.3,10.2,10.5,19.3,18.3,27.2c7.9,7.9,17,14,27.2,18.3c10.5,4.5,21.7,6.7,33.3,6.7c11.5,0,22.7-2.3,33.3-6.7
		c10.2-4.3,19.3-10.5,27.2-18.3C-380.5,413.8-374.3,404.6-370,394.4z M-416.1,438.4c-10.3,4.4-21.3,6.6-32.6,6.6
		c-11.3,0-22.3-2.2-32.6-6.6c-10-4.2-19-10.3-26.7-18c-7.7-7.7-13.7-16.7-18-26.7c-4.4-10.3-6.6-21.3-6.6-32.6
		c0-11.3,2.2-22.3,6.6-32.6c4.2-10,10.3-19,18-26.7c7.6-7.6,16.6-13.7,26.6-17.9c10.3-4.4,21.3-6.6,32.6-6.6s22.3,2.2,32.6,6.6
		c10,4.2,19,10.3,26.7,18s13.7,16.7,18,26.7c4.4,10.3,6.6,21.3,6.6,32.6s-2.2,22.3-6.6,32.6c-4.2,10-10.3,19-18,26.7
		C-397.2,428.1-406.2,434.1-416.1,438.4z"/>
</g>
</svg>
