<?xml version="1.0" encoding="utf-8"?>
<!-- Generator: Adobe Illustrator 19.0.0, SVG Export Plug-In . SVG Version: 6.00 Build 0)  -->
<svg version="1.1" id="Layer_1" xmlns="http://www.w3.org/2000/svg" xmlns:xlink="http://www.w3.org/1999/xlink" x="0px" y="0px"
	 viewBox="-614 334 38.7 38.7" style="enable-background:new -614 334 38.7 38.7;" xml:space="preserve">
<style type="text/css">
	.st0{fill:#FFFFFF;}
</style>
<g id="OvG5wB_2_">
	<g id="XMLID_140_">
		<path id="XMLID_141_" class="st0" d="M-593.4,372.7c-6.3,0-12.5,0-18.8,0h-0.1c-0.7-0.2-1.3-0.6-1.6-1.4c0-0.1-0.1-0.3-0.1-0.4
			c0-11.7,0-23.3,0-35v-0.1c0.2-0.8,0.7-1.4,1.5-1.7c0.1,0,0.2-0.1,0.4-0.1c11.6,0,23.3,0,34.9,0h0.1c0.9,0.2,1.4,0.7,1.7,1.6
			c0,0.1,0,0.2,0.1,0.3c0,11.6,0,23.3,0,34.9v0.1c-0.2,0.8-0.7,1.4-1.5,1.7c-0.1,0-0.2,0.1-0.4,0.1c-3.4,0-6.7,0-10.1,0l0,0
			c0-4.9,0-9.8,0-14.8c0-0.1,0-0.1,0-0.2c1.7,0,3.3,0,5,0c0.2-1.9,0.5-3.9,0.8-5.8c-1.9,0-3.8,0-5.7,0c0-0.7,0-1.3,0-2
			c0-0.8,0-1.7,0-2.5c0.1-1,0.6-1.7,1.6-1.9c0.4-0.1,0.8-0.1,1.2-0.1c0.9,0,1.9,0,2.9,0c0.1,0,0.1,0,0.2,0c0-1.8,0-3.5,0-5.2
			c-0.2,0-0.4-0.1-0.6-0.1c-1-0.1-2-0.1-3-0.1c-1.1,0-2.2,0-3.3,0.3c-1.9,0.5-3.3,1.6-4.2,3.4c-0.6,1.2-0.8,2.5-0.8,3.8
			c0,1.4,0,2.8,0,4.3c0,0.1,0,0.1,0,0.2c-1.7,0-3.4,0-5,0c0,1.9,0,3.9,0,5.8c1.7,0,3.4,0,5.1,0
			C-593.4,362.8-593.4,367.7-593.4,372.7z"/>
	</g>
</g>
</svg>
