<?xml version="1.0" encoding="utf-8"?>
<!-- Generator: Adobe Illustrator 19.0.0, SVG Export Plug-In . SVG Version: 6.00 Build 0)  -->
<svg version="1.1" id="Layer_1" xmlns="http://www.w3.org/2000/svg" xmlns:xlink="http://www.w3.org/1999/xlink" x="0px" y="0px"
	 viewBox="-614 333.5 39.9 38.2" style="enable-background:new -614 333.5 39.9 38.2;" xml:space="preserve">
<style type="text/css">
	.st0{fill:#FFFFFF;}
</style>
<g id="nEkqVe_1_">
	<g id="XMLID_146_">
		<path id="XMLID_148_" class="st0" d="M-614,363.8c1.2-5.3,5.4-6.7,9.9-7.4c1.1-0.2,2.2-0.2,3.4-0.4c-1.2-1.7-2-3.3-1-5.2
			c-1.4-0.1-2.8-0.1-4.1-0.4c-4.1-1-7.6-6.3-4.5-11.7c1.8-3.1,4.6-4.8,8.2-5c4-0.2,8-0.2,12-0.2l0.1,0.1c-1.6,1.3-3.4,2.1-5.8,1.6
			c0.3,0.3,0.4,0.4,0.4,0.5c2.7,2.4,3.4,5.5,2.5,8.9c-0.4,1.5-1.3,2.5-2.4,3.6c-0.6,0.6-1.3,1.3-1.9,2c-0.8,1-0.7,2,0.2,3
			c0.8,0.9,1.8,1.6,2.7,2.4c1.6,1.4,3,2.9,3.3,5.2c0.6,3.8-1.1,6.6-4.1,8.7c-2.9,1.9-6.1,2.3-9.5,2.2c-0.9,0-1.8-0.1-2.7-0.3
			c-3.3-0.8-5.8-2.5-6.7-6C-614,364.7-614,364.2-614,363.8z M-600.7,357.4c-2.1,0-4.5,0.5-6,1.3c-3.5,1.7-4.1,5.9-1.3,8.5
			c2.7,2.5,8.5,3.1,11.6,1.1c2.8-1.8,3.2-5.6,0.8-7.9c-0.8-0.8-1.8-1.4-2.6-2.2C-599,357.6-599.8,357.2-600.7,357.4z M-596.8,344.4
			c-0.1-2.8-0.8-5.4-2.5-7.5c-1.1-1.5-2.7-2.1-4.6-1.6c-1.8,0.4-2.8,1.6-3.2,3.3c-0.9,3.2,0.8,8.1,3.5,10c2.2,1.6,6.1,0.9,6.7-2.4
			C-596.8,345.5-596.8,344.9-596.8,344.4z"/>
		<path id="XMLID_147_" class="st0" d="M-574.1,352c-0.9,0-1.8,0-2.7,0c-0.9,0-1.7,0-2.7,0c0,1.8,0,3.4,0,5.2c-1.1,0-2,0-3.1,0
			c0-1.7,0-3.4,0-5.2c-1.8,0-3.5,0-5.2,0c0-1,0-2,0-3.1c1.7,0,3.4,0,5.2,0c0-1.8,0-3.5,0-5.3c1,0,2,0,3.1,0c0,1.7,0,3.4,0,5.3
			c1.9,0,3.6,0,5.4,0C-574.1,350-574.1,351-574.1,352z"/>
	</g>
</g>
</svg>
