<?xml version="1.0" encoding="utf-8"?>
<!-- Generator: Adobe Illustrator 19.0.0, SVG Export Plug-In . SVG Version: 6.00 Build 0)  -->
<svg version="1.1" id="Layer_1" xmlns="http://www.w3.org/2000/svg" xmlns:xlink="http://www.w3.org/1999/xlink" x="0px" y="0px"
	 viewBox="-169 260.7 272.3 272.3" style="enable-background:new -169 260.7 272.3 272.3;" xml:space="preserve">
<style type="text/css">
	.st0{fill:#29AAE1;stroke:#FFFFFF;stroke-width:2;stroke-miterlimit:10;}
	.st1{fill:#1D76BB;stroke:#FFFFFF;stroke-width:2;stroke-miterlimit:10;}
	.st2{fill:#FFFFFF;}
	.st3{fill:#E92629;stroke:#FFFFFF;stroke-width:2;stroke-miterlimit:10;}
	.st4{fill:#FCDC07;stroke:#FFFFFF;stroke-width:2;stroke-miterlimit:10;}
	.st5{fill:#231F20;}
</style>
<path id="XMLID_219_" class="st0" d="M101.1,396.7c0,74.1-60.1,134.2-134.2,134.2s-134.2-60.1-134.2-134.2s60.1-134.2,134.2-134.2
	S101.1,322.6,101.1,396.7z M-33.1,299.3c-53.8,0-97.4,43.6-97.4,97.4s43.6,97.4,97.4,97.4s97.4-43.6,97.4-97.4
	C64.3,342.9,20.7,299.3-33.1,299.3z"/>
<g id="XMLID_203_">
	<path id="XMLID_218_" class="st1" d="M-129,379.3c3.4-18.8,12.1-35.6,24.6-49l-0.3,0.1l-8.7-17.4l-18.3-7.3v-0.1
		c-17,18.4-29,41.6-33.6,67.3l19.5-3.6L-129,379.3z"/>
	<path id="XMLID_217_" class="st1" d="M29.8,322.3c13.8,11.7,24.3,27.2,29.9,44.9V367l19.4,1.2l15.6-12.1l0.2,0.2
		c-7.7-24.5-22.3-46-41.4-62.2l-6.6,18.7L29.8,322.3z"/>
	<path id="XMLID_216_" class="st1" d="M-0.6,507.7l0.4-19.4c-10.3,3.7-21.4,5.7-33,5.7c-7.6,0-14.9-0.9-22-2.5l0.1,0.1l-10.8,16.1
		l2.6,19.6h-0.3c9.8,2.3,19.9,3.5,30.4,3.5c15.9,0,31.2-2.8,45.4-7.9L-0.6,507.7L-0.6,507.7z"/>
	<path id="XMLID_215_" class="st1" d="M-63.6,527.4L-63.6,527.4L-63.6,527.4L-63.6,527.4z"/>
	<path id="XMLID_214_" class="st1" d="M-55.4,491.5c0.1,0,0.2,0.1,0.3,0.1L-55.4,491.5L-55.4,491.5z"/>
	<path id="XMLID_213_" class="st1" d="M-0.1,488.3c0.1,0,0.2-0.1,0.3-0.1h-0.3V488.3z"/>
	<path id="XMLID_212_" class="st1" d="M12.3,523l0.1-0.1C12.3,522.9,12.3,523,12.3,523L12.3,523z"/>
	<path id="XMLID_211_" class="st1" d="M-104.3,330.2l-0.1,0.1L-104.3,330.2L-104.3,330.2z"/>
	<path id="XMLID_210_" class="st1" d="M-131.5,305.3l-0.1,0.3c0.1-0.1,0.2-0.2,0.2-0.3H-131.5z"/>
	<path id="XMLID_209_" class="st1" d="M-165.2,372.9L-165.2,372.9C-165.2,373-165.2,373-165.2,372.9L-165.2,372.9z"/>
	<path id="XMLID_208_" class="st1" d="M-129,379.3c0,0.1,0,0.2-0.1,0.3L-129,379.3L-129,379.3z"/>
	<path id="XMLID_207_" class="st1" d="M59.8,367.5h0.1c0-0.1-0.1-0.2-0.1-0.3V367.5z"/>
	<path id="XMLID_206_" class="st1" d="M95,356.5l-0.1-0.1C94.9,356.5,95,356.5,95,356.5L95,356.5z"/>
	<path id="XMLID_205_" class="st1" d="M53.5,294.1l-0.2-0.1C53.4,294.1,53.4,294.1,53.5,294.1L53.5,294.1z"/>
	<path id="XMLID_204_" class="st1" d="M29.8,322.3c-0.1-0.1-0.1-0.1-0.2-0.2L29.8,322.3L29.8,322.3z"/>
</g>
<g id="XMLID_190_">
	<path id="XMLID_201_" class="st2" d="M-136.2,348.8c0.3-0.2,0.7-0.6,1-1.1c0.4-0.7,0.2-1.3-0.4-1.6c-0.5-0.2-1-0.1-1.6,0.5
		c-0.8,0.7-1.5,1.1-2.3,0.7c-0.9-0.4-1.2-1.4-0.6-2.5c0.3-0.6,0.6-0.9,0.9-1.1l0.5,0.5c-0.2,0.1-0.5,0.4-0.8,0.9
		c-0.4,0.8-0.1,1.3,0.3,1.4c0.5,0.2,0.9,0,1.6-0.6c0.8-0.8,1.5-1,2.3-0.6s1.3,1.4,0.7,2.7c-0.3,0.5-0.7,1-1,1.2L-136.2,348.8z"/>
	<path id="XMLID_199_" class="st2" d="M-139.1,342.2l0.4-0.7l2.4,1.3l0,0c-0.1-0.2-0.2-0.5-0.2-0.8c0-0.3,0-0.6,0.2-0.8
		c0.3-0.5,1-1.2,2.4-0.5l2.3,1.2l-0.4,0.7l-2.2-1.2c-0.6-0.3-1.3-0.4-1.6,0.3c-0.2,0.5-0.1,1,0.2,1.3c0.1,0.1,0.2,0.2,0.3,0.2
		l2.3,1.2l-0.4,0.7L-139.1,342.2z"/>
	<path id="XMLID_196_" class="st2" d="M-129.9,338.8l-0.5-0.2l0,0c0.2,0.4,0.2,0.9-0.1,1.5c-0.5,0.8-1.2,0.8-1.8,0.5
		c-0.9-0.5-0.9-1.6-0.1-3.1h-0.1c-0.3-0.2-0.9-0.4-1.4,0.3c-0.2,0.4-0.3,0.8-0.3,1.1l-0.5-0.1c0-0.4,0.1-1,0.4-1.4
		c0.7-1.2,1.6-1,2.4-0.5l1.4,0.8c0.3,0.2,0.7,0.4,0.9,0.5L-129.9,338.8z M-131.9,337.8c-0.5,0.7-0.8,1.7-0.1,2.1
		c0.4,0.3,0.8,0.1,1-0.3c0.3-0.5,0.2-1-0.1-1.3c-0.1-0.1-0.1-0.1-0.2-0.2L-131.9,337.8z"/>
	<path id="XMLID_194_" class="st2" d="M-131.5,335.6c-0.4-0.3-0.8-0.5-1.2-0.7l0.4-0.6l0.7,0.4l0,0c-0.4-0.5-0.4-1.1-0.2-1.5
		c0-0.1,0.1-0.1,0.1-0.2l0.6,0.4c0.1,0.1,0.1,0.2,0,0.3c-0.3,0.5-0.2,1,0.3,1.5c0.1,0.1,0.2,0.2,0.3,0.2l2,1.2l-0.4,0.7
		L-131.5,335.6z"/>
	<path id="XMLID_191_" class="st2" d="M-128.9,333.4c0.9,0.6,1.7,0.3,2.1-0.4c0.3-0.5,0.4-0.8,0.5-1.1l0.5,0.2
		c-0.1,0.3-0.2,0.8-0.6,1.4c-0.8,1.1-1.9,1.3-3,0.5c-1.1-0.7-1.5-2-0.8-3c0.8-1.2,2.1-0.8,2.7-0.3c0.1,0.1,0.2,0.2,0.3,0.2
		L-128.9,333.4z M-128,331.1c-0.4-0.3-1.2-0.6-1.7,0.2c-0.5,0.7,0,1.4,0.4,1.7L-128,331.1z"/>
</g>
<g id="XMLID_149_">
	<path id="XMLID_188_" class="st2" d="M-145.1,401.8l0.2,3.9h-0.8l-0.2-3l-2.4,0.1l0.2,2.8h-0.8l-0.2-2.8l-3.3,0.2l-0.1-0.9
		L-145.1,401.8z"/>
	<path id="XMLID_185_" class="st2" d="M-147.6,413.6c-2.5,0.3-4-1.1-4.2-2.9c-0.2-1.9,1.1-3.4,3.3-3.7c2.3-0.3,4,1,4.2,2.9
		C-144.1,411.8-145.5,413.3-147.6,413.6z M-148.4,407.9c-1.6,0.2-2.9,1.2-2.7,2.7c0.2,1.5,1.6,2.2,3.3,2c1.4-0.2,2.9-1.1,2.7-2.7
		C-145.3,408.3-146.8,407.7-148.4,407.9z"/>
	<path id="XMLID_182_" class="st2" d="M-144,414.2c0.2,0.5,0.4,1.1,0.5,1.8c0.2,1,0.1,1.7-0.2,2.2c-0.3,0.4-0.7,0.7-1.3,0.8
		c-1,0.2-1.7-0.3-2.1-1l0,0c-0.1,0.6-0.5,1-1.3,1.3c-1,0.4-1.6,0.7-1.9,0.9l-0.2-1c0.2-0.2,0.8-0.4,1.6-0.8c1-0.4,1.3-0.8,1.1-1.7
		l-0.2-0.9l-3.1,0.5l-0.2-0.9L-144,414.2z M-147.1,415.7l0.2,1c0.2,1,0.8,1.5,1.7,1.4c0.9-0.2,1.2-0.9,1.1-1.9
		c-0.1-0.5-0.2-0.8-0.2-0.9L-147.1,415.7z"/>
	<path id="XMLID_180_" class="st2" d="M-145.4,426.7c1-0.3,2.2-0.6,3.1-0.8l0,0c-0.9,0-1.9-0.1-2.9-0.2l-3.8-0.4l-0.2-0.7l3.1-2
		c0.9-0.6,1.8-1.1,2.6-1.5l0,0c-0.9,0.2-2.1,0.4-3.2,0.6l-3.1,0.5l-0.2-0.9l7.2-1.2l0.3,1.2l-3.2,2c-0.8,0.5-1.5,0.9-2.2,1.3l0,0
		c0.8,0,1.6,0.1,2.6,0.2l3.8,0.4l0.3,1.2l-7,2.2l-0.2-0.9L-145.4,426.7z"/>
	<path id="XMLID_177_" class="st2" d="M-145.3,430.5h-2.4l-0.3-0.9l7.7,0.2l0.3,1.1l-6.3,4.6l-0.3-1l2-1.4L-145.3,430.5z
		 M-143.9,432.5l1.8-1.3c0.4-0.3,0.8-0.5,1.2-0.8l0,0c-0.4,0-0.9,0-1.4,0l-2.2-0.1L-143.9,432.5z"/>
	<path id="XMLID_175_" class="st2" d="M-138.9,434l0.3,0.9l-6.1,2.3l1.1,2.9l-0.7,0.3l-1.4-3.8L-138.9,434z"/>
	<path id="XMLID_173_" class="st2" d="M-140.6,448.3c-0.3-0.2-0.7-0.8-1.1-1.6c-0.9-1.9-0.3-3.8,1.9-4.8c2.1-0.9,4.1-0.2,5.1,1.9
		c0.4,0.8,0.4,1.4,0.4,1.7l-0.8,0.1c0-0.4-0.1-0.9-0.3-1.5c-0.7-1.6-2.2-2.2-3.9-1.4c-1.6,0.7-2.3,2.2-1.5,3.8
		c0.2,0.5,0.6,1,0.9,1.3L-140.6,448.3z"/>
	<path id="XMLID_170_" class="st2" d="M-134.1,453.2c-2.2,1.2-4.1,0.4-5-1.2c-0.9-1.7-0.2-3.6,1.8-4.6c2.1-1.1,4.1-0.5,5,1.2
		C-131.4,450.4-132.2,452.2-134.1,453.2z M-136.9,448.3c-1.4,0.7-2.2,2.1-1.5,3.5c0.7,1.3,2.3,1.4,3.8,0.7c1.3-0.7,2.3-2.1,1.6-3.5
		C-133.8,447.5-135.4,447.5-136.9,448.3z"/>
	<path id="XMLID_168_" class="st2" d="M-136.7,456.2l6.3-3.8l0.5,0.9l-2,3.9c-0.5,0.9-0.9,1.7-1.4,2.4l0,0c0.8-0.6,1.5-1.1,2.5-1.7
		l2.6-1.6l0.5,0.8l-6.3,3.8l-0.5-0.8l2-3.9c0.4-0.9,0.9-1.7,1.4-2.4l0,0c-0.8,0.5-1.5,1-2.5,1.6l-2.7,1.6L-136.7,456.2z"/>
	<path id="XMLID_166_" class="st2" d="M-131.9,461.7c0,0.5,0.2,1.1,0.6,1.7c0.5,0.8,1.3,1,1.9,0.6c0.6-0.4,0.7-0.9,0.4-2
		c-0.3-1.2-0.2-2.2,0.6-2.8c0.9-0.6,2.2-0.3,3,0.8c0.4,0.6,0.6,1.2,0.6,1.5l-0.8,0.2c0-0.3-0.1-0.8-0.5-1.3
		c-0.6-0.8-1.3-0.8-1.7-0.5c-0.6,0.4-0.6,0.9-0.3,2c0.3,1.3,0.2,2.2-0.7,2.8c-0.9,0.6-2.2,0.5-3.2-0.9c-0.4-0.6-0.7-1.3-0.7-1.8
		L-131.9,461.7z"/>
	<path id="XMLID_164_" class="st2" d="M-123.2,463.4l-3.4,2.6c-1.3,1-1.4,2-0.8,2.8c0.7,0.9,1.7,1,2.9,0l3.4-2.6l0.6,0.8l-3.4,2.6
		c-1.8,1.4-3.2,1-4.2-0.3c-0.9-1.2-0.9-2.6,0.9-4l3.4-2.6L-123.2,463.4z"/>
	<path id="XMLID_162_" class="st2" d="M-118.7,475.3c0.7-0.7,1.6-1.6,2.3-2.2l0,0c-0.8,0.4-1.7,0.8-2.7,1.1l-3.5,1.4l-0.5-0.5
		l1.8-3.2c0.5-0.9,1.1-1.8,1.6-2.5l0,0c-0.7,0.6-1.7,1.4-2.5,2l-2.5,1.9l-0.6-0.7l5.8-4.5l0.8,0.9l-1.8,3.3
		c-0.5,0.8-0.9,1.5-1.4,2.2l0,0c0.7-0.4,1.5-0.7,2.4-1.1l3.5-1.4l0.8,0.9l-5.2,5.2l-0.6-0.7L-118.7,475.3z"/>
	<path id="XMLID_159_" class="st2" d="M-114,474.4c0.4,0.3,0.8,0.6,1.4,1.2c0.7,0.7,1,1.3,1,1.9c0,0.5-0.2,1.1-0.6,1.5
		c-0.5,0.5-1,0.7-1.5,0.7c-0.7,0-1.5-0.4-2.2-1c-0.2-0.2-0.4-0.4-0.5-0.6l-2.1,2.1l-0.7-0.7L-114,474.4z M-115.9,477.6
		c0.1,0.2,0.3,0.4,0.5,0.6c0.8,0.8,1.7,0.9,2.4,0.2c0.7-0.7,0.5-1.5-0.2-2.2c-0.3-0.3-0.5-0.5-0.7-0.6L-115.9,477.6z"/>
	<path id="XMLID_157_" class="st2" d="M-109.5,479.8l-1.6-1.5l0.5-0.6l4,3.7l-0.5,0.6l-1.7-1.5l-4.4,4.8l-0.7-0.6L-109.5,479.8z"/>
	<path id="XMLID_155_" class="st2" d="M-105.3,482.4l-4.8,5.6l-0.7-0.6l4.8-5.6L-105.3,482.4z"/>
	<path id="XMLID_152_" class="st2" d="M-101.5,490.1c-1.5,2-3.6,2.1-5.1,1c-1.5-1.2-1.7-3.2-0.3-5c1.4-1.8,3.5-2.1,5.1-0.9
		S-100.1,488.4-101.5,490.1z M-106,486.7c-1,1.2-1.2,2.9,0,3.8c1.2,0.9,2.7,0.4,3.7-1c0.9-1.2,1.2-2.8,0-3.8S-105,485.4-106,486.7z"
		/>
	<path id="XMLID_150_" class="st2" d="M-102.6,493.9l4.1-6.1l0.9,0.6l-0.1,4.4c0,1-0.1,1.9-0.3,2.7l0,0c0.5-0.9,1-1.6,1.6-2.6
		l1.7-2.5l0.7,0.5l-4.1,6.1l-0.8-0.5l0.2-4.4c0-1,0.1-1.9,0.2-2.8l0,0c-0.5,0.8-1,1.5-1.6,2.5l-1.8,2.6L-102.6,493.9z"/>
</g>
<g id="XMLID_126_">
	<path id="XMLID_146_" class="st2" d="M47,475.3c0.3-0.5,0.8-1,1.3-1.6c0.9-1,1.8-1.5,2.7-1.5c0.9-0.1,1.8,0.2,2.6,1
		c0.9,0.8,1.3,1.8,1.4,2.7c0,1-0.5,2-1.4,3.1c-0.5,0.5-0.9,0.9-1.2,1.2L47,475.3z M52.4,479c0.2-0.1,0.4-0.4,0.7-0.7
		c1.4-1.5,1.3-3.1-0.1-4.4c-1.3-1.2-2.7-1.2-4.1,0.2c-0.3,0.4-0.6,0.7-0.7,0.9L52.4,479z"/>
	<path id="XMLID_143_" class="st2" d="M58.5,467.5c2,1.6,2,3.6,0.8,5.1s-3.3,1.6-5,0.2c-1.8-1.5-2.1-3.6-0.8-5.1
		S56.8,466.1,58.5,467.5z M54.9,472c1.2,1,2.8,1.2,3.8,0.1c1-1.2,0.4-2.7-0.9-3.7c-1.1-0.9-2.8-1.3-3.8-0.1
		C53.1,469.4,53.7,471,54.9,472z"/>
	<path id="XMLID_141_" class="st2" d="M56.9,463.6l5.9,4.4l-0.6,0.8l-5.9-4.4L56.9,463.6z"/>
	<path id="XMLID_139_" class="st2" d="M63.8,466.6l-6-4.2l0.6-0.9l4.4,0.2c1,0,1.9,0.1,2.7,0.3l0,0c-0.9-0.5-1.6-1-2.5-1.6l-2.5-1.7
		L61,458l6,4.2l-0.5,0.8l-4.4-0.2c-1,0-1.9-0.1-2.8-0.3l0,0c0.8,0.5,1.5,1,2.5,1.7l2.6,1.8L63.8,466.6z"/>
	<path id="XMLID_137_" class="st2" d="M70.5,455.5c-0.1,0.4-0.3,1.3-0.8,2.1c-0.6,1-1.3,1.6-2.2,1.8c-0.8,0.2-1.9,0.1-2.9-0.5
		c-1.9-1.1-2.5-3.2-1.2-5.4c0.4-0.7,0.9-1.2,1.2-1.4l0.5,0.6c-0.4,0.2-0.7,0.6-1.1,1.2c-0.9,1.5-0.6,3.1,1,4c1.6,1,3.1,0.6,4-0.9
		c0.3-0.5,0.5-0.9,0.5-1.2l-1.9-1.1l-0.8,1.3l-0.7-0.4l1.2-2.1L70.5,455.5z"/>
	<path id="XMLID_135_" class="st2" d="M73.1,451.4l-7.4-1.5l0.4-0.9l3.7,0.8c0.9,0.2,1.8,0.4,2.5,0.6l0,0c-0.6-0.4-1.3-1-2-1.7
		l-2.9-2.5l0.4-0.9l3.7,0.8c0.9,0.2,1.7,0.4,2.5,0.6l0,0c-0.7-0.5-1.3-1-2-1.6l-2.9-2.5l0.4-0.9l5.7,5.1l-0.4,0.9l-3.8-0.8
		c-0.9-0.2-1.7-0.4-2.4-0.6l0,0c0.6,0.4,1.2,0.9,1.9,1.6l3,2.6L73.1,451.4z"/>
	<path id="XMLID_132_" class="st2" d="M75.6,436.7c2.3,0.9,3,2.9,2.3,4.6c-0.7,1.8-2.6,2.5-4.7,1.7c-2.2-0.9-3-2.8-2.3-4.6
		C71.6,436.5,73.5,435.9,75.6,436.7z M73.5,442c1.5,0.6,3.1,0.3,3.6-1.1c0.6-1.4-0.4-2.7-2-3.3c-1.4-0.5-3-0.4-3.6,1.1
		C71,440.1,72,441.4,73.5,442z"/>
	<path id="XMLID_129_" class="st2" d="M72.6,434.4c0.1-0.5,0.2-1.2,0.4-1.8c0.3-1,0.7-1.5,1.2-1.8c0.4-0.2,1-0.3,1.5-0.1
		c0.9,0.3,1.3,1.1,1.3,1.9l0,0c0.4-0.5,1-0.6,1.7-0.6c1,0.1,1.8,0.2,2.1,0.1l-0.3,0.9c-0.2,0-0.9,0-1.8-0.1c-1-0.1-1.5,0.1-1.8,0.9
		l-0.3,0.8l3,1l-0.3,0.9L72.6,434.4z M76.1,434.6l0.3-0.9c0.3-1,0-1.7-0.8-2c-0.9-0.3-1.5,0.2-1.8,1.2c-0.1,0.4-0.2,0.8-0.2,0.9
		L76.1,434.6z"/>
	<path id="XMLID_127_" class="st2" d="M74.3,429l0.3-0.9l3.4,1l0,0c-0.2-0.3-0.4-0.5-0.6-0.8l-2-2.9l0.3-1.1l2.3,3.4l4.8-1.6
		l-0.3,1.1l-4.1,1.4l0.6,0.9l2.7,0.8l-0.3,0.9L74.3,429z"/>
</g>
<g id="XMLID_110_">
	<path id="XMLID_123_" class="st2" d="M60.2,330l-1.9,0.6l-0.5-0.7l6.2-1.8l0.5,0.8l-3.8,5.2l-0.5-0.7l1.2-1.6L60.2,330z
		 M61.8,331.3l1.1-1.5c0.2-0.3,0.5-0.6,0.7-0.9l0,0c-0.3,0.1-0.7,0.3-1.1,0.4l-1.8,0.5L61.8,331.3z"/>
	<path id="XMLID_121_" class="st2" d="M62.9,337.2c-0.2-0.1-0.6-0.4-0.9-0.9c-0.7-1.1-0.4-2.3,0.7-3c1.1-0.7,2.5-0.5,3.2,0.7
		c0.3,0.4,0.4,0.8,0.4,1.1l-0.6,0.2c0-0.2-0.1-0.5-0.3-0.9c-0.5-0.8-1.5-0.9-2.2-0.4c-0.9,0.5-1,1.4-0.6,2.2
		c0.2,0.4,0.5,0.6,0.7,0.7L62.9,337.2z"/>
	<path id="XMLID_119_" class="st2" d="M68.6,336l-1.1,0.6l0.6,1l-0.5,0.3l-0.6-1l-2,1.2c-0.5,0.3-0.7,0.6-0.4,1
		c0.1,0.2,0.2,0.3,0.3,0.4l-0.5,0.3c-0.1-0.1-0.3-0.3-0.5-0.6s-0.2-0.6-0.2-0.9c0.1-0.3,0.4-0.6,0.8-0.9l2.1-1.2l-0.4-0.6l0.5-0.3
		l0.4,0.6l0.9-0.5L68.6,336z"/>
	<path id="XMLID_116_" class="st2" d="M64.7,340.6l3.8-2.2l0.4,0.7l-3.8,2.2L64.7,340.6z M70.1,338.6c-0.2,0.1-0.5,0.1-0.7-0.2
		c-0.1-0.2,0-0.5,0.2-0.7c0.2-0.1,0.5-0.1,0.7,0.2C70.4,338.2,70.3,338.5,70.1,338.6z"/>
	<path id="XMLID_113_" class="st2" d="M69.6,344.8c-1.4,0.8-2.6,0.1-3.1-0.8c-0.6-1-0.2-2.3,1-2.9c1.3-0.7,2.5-0.2,3.1,0.8
		C71.2,343,70.8,344.2,69.6,344.8z M67.9,341.8c-0.8,0.5-1.2,1.3-0.9,2c0.4,0.7,1.3,0.8,2.1,0.4c0.7-0.3,1.3-1.1,0.9-2
		C69.6,341.4,68.6,341.4,67.9,341.8z"/>
	<path id="XMLID_111_" class="st2" d="M70.9,345.3c0.4-0.2,0.7-0.4,1.1-0.5l0.3,0.6l-0.6,0.4l0,0c0.5,0,1.1,0.3,1.4,1
		c0.3,0.5,0.3,1.6-1,2.2l-2.4,1.1l-0.3-0.7l2.3-1.1c0.6-0.3,1.1-0.8,0.7-1.5c-0.2-0.5-0.7-0.7-1.2-0.6c-0.1,0-0.2,0.1-0.4,0.1
		l-2.4,1.1l-0.4-0.7L70.9,345.3z"/>
</g>
<g id="XMLID_59_">
	<path id="XMLID_108_" class="st2" d="M-99.3,297.2l4.1,6.1l-0.8,0.5l-4-6L-99.3,297.2z"/>
	<path id="XMLID_106_" class="st2" d="M-93.9,302.5l-3.8-6.2l0.9-0.5l3.9,1.9c0.9,0.4,1.7,0.9,2.4,1.3l0,0c-0.6-0.8-1.1-1.5-1.7-2.5
		l-1.6-2.6l0.8-0.5l3.8,6.2l-0.8,0.5l-3.9-2c-0.9-0.4-1.7-0.9-2.4-1.4l0,0c0.5,0.8,1,1.5,1.6,2.5l1.6,2.7L-93.9,302.5z"/>
	<path id="XMLID_104_" class="st2" d="M-91.4,292.4l3.5-1.9l0.4,0.7l-2.7,1.5l1.2,2.1l2.4-1.3l0.4,0.7l-2.4,1.3l1.6,2.9l-1,0.5
		L-91.4,292.4z"/>
	<path id="XMLID_101_" class="st2" d="M-79.4,290.4c1.1,2.3,0.3,4.1-1.4,4.9c-1.8,0.8-3.6,0-4.6-2c-1-2.1-0.3-4.1,1.4-4.9
		C-82.2,287.6-80.3,288.4-79.4,290.4z M-84.5,292.9c0.7,1.4,2,2.3,3.4,1.7s1.5-2.3,0.8-3.8c-0.6-1.3-2-2.4-3.4-1.7
		C-85.1,289.8-85.2,291.5-84.5,292.9z"/>
	<path id="XMLID_98_" class="st2" d="M-79.6,286.7c0.4-0.3,1-0.6,1.6-0.8c0.9-0.4,1.6-0.5,2.2-0.2c0.5,0.2,0.8,0.6,1.1,1.1
		c0.4,0.9,0,1.7-0.6,2.3l0,0c0.6,0,1.1,0.3,1.6,1c0.6,0.9,1,1.5,1.3,1.7l-0.9,0.4c-0.2-0.1-0.6-0.7-1.1-1.4
		c-0.6-0.9-1.1-1.1-1.9-0.8l-0.8,0.3l1.2,2.9l-0.9,0.4L-79.6,286.7z M-77.4,289.5l0.9-0.4c0.9-0.4,1.3-1.1,1-1.9
		c-0.4-0.9-1.1-1-2.1-0.6c-0.4,0.2-0.7,0.3-0.8,0.4L-77.4,289.5z"/>
	<path id="XMLID_96_" class="st2" d="M-66.8,286.3c-0.4-1-0.8-2.1-1.1-3l0,0c0,0.9,0,1.9,0,2.9L-68,290l-0.7,0.2l-2.2-2.9
		c-0.7-0.9-1.2-1.7-1.7-2.4l0,0c0.3,0.9,0.6,2.1,0.9,3.1l0.8,3l-0.9,0.3l-1.8-7.1l1.1-0.4l2.3,3c0.6,0.8,1.1,1.4,1.5,2.1l0,0
		c-0.1-0.8-0.1-1.6,0-2.6l0.1-3.8l1.1-0.4l2.7,6.8l-0.9,0.3L-66.8,286.3z"/>
	<path id="XMLID_93_" class="st2" d="M-63.1,286.2l-0.2,2.4l-0.9,0.2l0.6-7.7l1.1-0.3l4.3,6.5l-1,0.3l-1.3-2L-63.1,286.2z
		 M-60.9,284.9l-1.2-1.9c-0.3-0.4-0.5-0.8-0.7-1.2l0,0c0,0.4,0,0.9,0,1.4l-0.2,2.2L-60.9,284.9z"/>
	<path id="XMLID_91_" class="st2" d="M-58.8,280l0.9-0.2l1.3,6.4l3.1-0.6l0.2,0.8l-4,0.8L-58.8,280z"/>
	<path id="XMLID_89_" class="st2" d="M-45.3,284.9c-0.3,0.2-1,0.5-1.9,0.6c-2,0.3-3.8-0.8-4.1-3.2c-0.3-2.3,1-4,3.3-4.3
		c0.9-0.1,1.5,0,1.8,0.1l-0.1,0.8c-0.4-0.1-0.9-0.2-1.5-0.1c-1.7,0.2-2.7,1.5-2.4,3.4c0.2,1.8,1.4,2.8,3.2,2.5
		c0.6-0.1,1.1-0.3,1.5-0.5L-45.3,284.9z"/>
	<path id="XMLID_86_" class="st2" d="M-38.5,280.9c0.2,2.5-1.2,4-3.1,4.1c-1.9,0.1-3.4-1.2-3.6-3.5c-0.2-2.3,1.2-3.9,3.1-4.1
		C-40.1,277.3-38.7,278.7-38.5,280.9z M-44.2,281.4c0.1,1.6,1.1,2.9,2.6,2.8c1.5-0.1,2.2-1.6,2.1-3.2c-0.1-1.5-1-2.9-2.6-2.8
		C-43.6,278.3-44.3,279.8-44.2,281.4z"/>
	<path id="XMLID_84_" class="st2" d="M-31.1,281.3c-0.1-1-0.1-2.3-0.1-3.2l0,0c-0.2,0.9-0.5,1.8-0.9,2.8l-1.3,3.6h-0.7l-1.2-3.5
		c-0.4-1-0.7-2-0.9-2.8l0,0c0,0.9-0.1,2.1-0.1,3.2l-0.2,3.1h-0.9l0.4-7.3h1.2l1.3,3.5c0.3,0.9,0.6,1.7,0.8,2.5l0,0
		c0.2-0.7,0.4-1.5,0.8-2.5l1.3-3.6h1.2l0.5,7.3h-0.9L-31.1,281.3z"/>
	<path id="XMLID_82_" class="st2" d="M-22.4,281.8c0-1,0-2.3,0.1-3.2l0,0c-0.3,0.8-0.7,1.7-1.1,2.7l-1.5,3.5h-0.7l-0.9-3.6
		c-0.3-1.1-0.5-2-0.7-2.9l0,0c-0.1,0.9-0.2,2.1-0.4,3.2l-0.4,3.1l-0.9-0.1l1-7.3l1.2,0.1l1,3.6c0.2,0.9,0.4,1.7,0.6,2.5l0,0
		c0.2-0.7,0.6-1.5,0.9-2.4l1.5-3.4l1.2,0.1v7.3l-0.9-0.1L-22.4,281.8z"/>
	<path id="XMLID_80_" class="st2" d="M-18.4,278.1l-0.6,4.3c-0.2,1.6,0.4,2.4,1.4,2.5c1.1,0.1,1.9-0.5,2.1-2.1l0.6-4.3l0.9,0.2
		l-0.6,4.2c-0.3,2.2-1.6,3-3.2,2.8c-1.5-0.2-2.5-1.2-2.2-3.5l0.6-4.3L-18.4,278.1z"/>
	<path id="XMLID_78_" class="st2" d="M-13.6,286.2l1.4-7.2l1,0.2l1.6,4.1c0.4,1,0.6,1.8,0.8,2.6l0,0c0.1-1,0.3-1.9,0.5-3l0.6-3
		l0.9,0.2l-1.4,7.2l-0.9-0.2l-1.6-4.1c-0.3-0.9-0.7-1.8-0.9-2.7l0,0c-0.1,0.9-0.3,1.8-0.5,3l-0.6,3.1L-13.6,286.2z"/>
	<path id="XMLID_76_" class="st2" d="M-4.1,280.8l-1.7,7.1l-0.9-0.2l1.7-7.1L-4.1,280.8z"/>
	<path id="XMLID_74_" class="st2" d="M0.7,289.4c-0.4,0.1-1.1,0-2-0.2c-2-0.6-3.1-2.3-2.5-4.6c0.6-2.2,2.6-3.3,4.7-2.6
		c0.9,0.2,1.4,0.6,1.6,0.8l-0.4,0.7c-0.3-0.3-0.8-0.5-1.3-0.7c-1.7-0.5-3.1,0.3-3.6,2.1c-0.5,1.7,0.2,3.1,1.9,3.6
		c0.6,0.2,1.2,0.2,1.6,0.1V289.4z"/>
	<path id="XMLID_71_" class="st2" d="M3.5,288.2L2,290.1l-0.9-0.3l4.8-6.1l1.1,0.4l-0.1,7.7l-1-0.3v-2.4L3.5,288.2z M6,288.3v-2.2
		c0-0.5,0-1,0.1-1.4l0,0c-0.2,0.4-0.5,0.8-0.8,1.1l-1.4,1.8L6,288.3z"/>
	<path id="XMLID_69_" class="st2" d="M10.6,286.3l-2.1-0.8l0.3-0.7l5,2l-0.3,0.7l-2.1-0.8L9,292.8l-0.9-0.4L10.6,286.3z"/>
	<path id="XMLID_67_" class="st2" d="M15.6,287.5l-3,6.7l-0.9-0.4l3-6.7L15.6,287.5z"/>
	<path id="XMLID_64_" class="st2" d="M21.3,294.3c-1.1,2.3-3.1,2.8-4.8,2c-1.7-0.9-2.3-2.8-1.3-4.8c1-2.1,3-2.8,4.8-1.9
		C21.8,290.4,22.3,292.3,21.3,294.3z M16.1,291.8c-0.7,1.4-0.6,3,0.8,3.7c1.3,0.7,2.7-0.2,3.5-1.7c0.6-1.3,0.6-3-0.8-3.7
		C18.2,289.4,16.9,290.4,16.1,291.8z"/>
	<path id="XMLID_62_" class="st2" d="M20.5,298.1l3.7-6.4l0.9,0.5l0.2,4.4c0,1,0,1.9,0,2.7l0,0c0.4-0.9,0.8-1.7,1.4-2.7l1.5-2.7
		l0.8,0.4l-3.7,6.4l-0.8-0.5l-0.2-4.4c0-1,0-1.9,0-2.8l0,0c-0.4,0.8-0.8,1.6-1.4,2.7l-1.6,2.7L20.5,298.1z"/>
	<path id="XMLID_60_" class="st2" d="M27,300.6c0.2,0.5,0.6,1,1.2,1.3c0.8,0.5,1.6,0.4,2-0.2s0.3-1.1-0.4-2c-0.8-1-1.1-1.9-0.5-2.8
		c0.6-1,1.9-1.2,3.1-0.4c0.6,0.4,1,0.9,1.2,1.2l-0.6,0.5c-0.1-0.2-0.4-0.7-1-1.1c-0.8-0.5-1.5-0.3-1.8,0.2c-0.4,0.6-0.2,1.1,0.5,2
		c0.8,1.1,1,1.9,0.4,2.8s-1.9,1.3-3.3,0.4c-0.6-0.4-1.1-1-1.3-1.4L27,300.6z"/>
</g>
<path id="XMLID_58_" class="st3" d="M-37.1,493.4L-37.1,493.4c-1.8-0.3-3.7-0.5-5.5-0.9c-8.9-1.8-16.8-5.7-23.4-11.9
	c-9.4-8.7-14.6-19.5-15.6-32.3c-0.4-4.6,0-9.2,1-13.7c2.6-11.8,8.8-21.4,18.4-28.7c8.6-6.5,18.4-9.6,29.1-9.7
	c3.4,0,6.8-0.4,10.2-1.1c11.4-2.5,20.7-8.3,27.9-17.5c7.9-10,11.2-21.5,10.3-34.2c-0.3-3.5-0.9-6.9-2-10.2
	c-3-9.5-8.3-17.4-16.1-23.6c-8.7-7-18.7-10.5-29.8-10.7c-4-0.1-8.1,0.2-12.1,0.7c-4.3,0.5-8.5,1.3-12.7,2.4
	c-15.6,4-29.3,11.5-41.2,22.3c-7.2,6.5-13.2,13.9-18.2,22.3c-8.7,14.6-13.2,30.4-13.6,47.4c-0.2,6.7,0.4,13.3,1.6,19.8
	c1.4,7.8,3.7,15.3,7,22.4c6.3,13.9,15.4,25.7,27.2,35.4c9.3,7.6,19.6,13.2,31,17c4.7,1.6,9.5,2.8,14.3,3.5c2.7,0.4,5.4,0.7,8.1,1
	C-39.8,493.3-38.4,493.3-37.1,493.4z"/>
<path id="XMLID_57_" class="st4" d="M-29.3,299L-29.3,299c1.8,0.3,3.7,0.5,5.5,0.9c8.9,1.8,16.8,5.7,23.4,11.9
	c9.4,8.7,14.6,19.5,15.6,32.3c0.4,4.6,0,9.2-1,13.7c-2.6,11.8-8.8,21.4-18.4,28.7c-8.6,6.5-18.4,9.6-29.1,9.7
	c-3.4,0-6.8,0.4-10.2,1.1c-11.4,2.5-20.7,8.3-27.9,17.5c-7.9,10-11.2,21.5-10.3,34.2c0.3,3.5,0.9,6.9,2,10.2
	c3,9.5,8.3,17.4,16.1,23.6c8.7,7,18.7,10.5,29.8,10.7c4,0.1,8.1-0.2,12.1-0.7c4.3-0.5,8.5-1.3,12.7-2.4c15.6-4,29.3-11.5,41.2-22.3
	c7.2-6.5,13.2-13.9,18.2-22.3c8.7-14.6,13.2-30.4,13.6-47.4c0.2-6.7-0.4-13.3-1.6-19.8c-1.4-7.8-3.7-15.3-7-22.4
	c-6.3-13.9-15.4-25.7-27.2-35.4c-9.3-7.6-19.6-13.2-31-17c-4.7-1.5-9.5-2.8-14.3-3.5c-2.7-0.4-5.4-0.7-8.1-1
	C-26.7,299.1-28,299.1-29.3,299z"/>
<g id="XMLID_43_">
	<path id="XMLID_55_" class="st2" d="M-83.1,372l-1.8,4.4l4.1,1.7l2-4.9l1.2,0.5l-2.6,6.3l-11.3-4.7l2.5-6.1l1.2,0.5l-1.9,4.6
		l3.6,1.5l1.8-4.4L-83.1,372z"/>
	<path id="XMLID_53_" class="st2" d="M-77.2,372.8l-10.2-6.7l0.9-1.4l7.3,0.1c1.7,0,3.2,0.1,4.5,0.3l0,0c-1.4-0.8-2.7-1.6-4.3-2.6
		l-4.2-2.8l0.8-1.2l10.2,6.7l-0.9,1.3l-7.3-0.2c-1.6,0-3.2-0.1-4.7-0.3v0.1c1.3,0.8,2.6,1.5,4.3,2.7l4.4,2.9L-77.2,372.8z"/>
	<path id="XMLID_51_" class="st2" d="M-65,357.1c-0.3,0.7-1,2-2.2,3.1c-1.3,1.3-2.7,2-4.4,2.1c-1.5,0-3.1-0.7-4.4-2
		c-2.5-2.6-2.6-6.3,0.3-9.1c1-1,2-1.6,2.6-1.7l0.6,1.2c-0.7,0.3-1.4,0.7-2.3,1.5c-2.1,2.1-2.2,4.8,0,7s4.8,2.2,6.8,0.2
		c0.7-0.7,1.1-1.3,1.3-1.7l-2.6-2.6l-1.8,1.7l-0.9-1.1l2.9-2.8L-65,357.1z"/>
	<path id="XMLID_48_" class="st2" d="M-64.1,352.4l1,3.9l-1.4,0.9l-3.1-12.5l1.6-1l10.2,8l-1.4,0.9l-3.2-2.5L-64.1,352.4z
		 M-61.4,349.2l-2.9-2.3c-0.7-0.5-1.2-1-1.7-1.5l0,0c0.2,0.7,0.5,1.4,0.7,2.2l0.9,3.6L-61.4,349.2z"/>
	<path id="XMLID_46_" class="st2" d="M-47,347.7c-0.6,0.5-1.7,1.4-3.2,2c-1.7,0.7-3.3,0.8-4.8,0.2c-1.4-0.6-2.6-1.8-3.3-3.6
		c-1.3-3.4,0-6.8,3.8-8.3c1.3-0.5,2.5-0.6,3-0.6l0.1,1.3c-0.7,0-1.6,0-2.7,0.5c-2.8,1.1-3.9,3.5-2.8,6.4s3.5,3.9,6.2,2.9
		c1-0.4,1.6-0.8,1.8-1.1l-1.3-3.4l-2.3,0.9l-0.5-1.2l3.7-1.5L-47,347.7z"/>
	<path id="XMLID_44_" class="st2" d="M-40.4,341.2l-4.7,0.9l0.8,4.3l5.2-1l0.2,1.3l-6.7,1.3l-2.3-12l6.5-1.2l0.2,1.3l-4.9,0.9
		l0.7,3.8l4.7-0.9L-40.4,341.2z"/>
</g>
<g id="XMLID_29_">
	<path id="XMLID_39_" class="st2" d="M-18.9,444.3c0.6-0.4,1.6-0.9,2.6-1.2c1.5-0.6,2.5-0.7,3.5-0.3c0.8,0.2,1.4,0.8,1.7,1.7
		c0.4,1.1,0,2.3-1,3.2l0,0c1.2-0.1,2.8,0.3,3.4,2c0.4,1,0.3,1.9-0.1,2.7c-0.5,1-1.7,1.9-3.6,2.6c-1,0.4-1.8,0.6-2.3,0.7L-18.9,444.3
		z M-15.6,448.4l1.3-0.5c1.6-0.6,2.2-1.7,1.8-2.8c-0.5-1.3-1.7-1.5-3.2-0.9c-0.7,0.3-1,0.5-1.3,0.6L-15.6,448.4z M-13.6,453.9
		c0.3-0.1,0.7-0.2,1.3-0.4c1.5-0.6,2.7-1.7,2.1-3.3c-0.6-1.6-2.2-1.7-3.8-1.1l-1.2,0.5L-13.6,453.9z"/>
	<path id="XMLID_37_" class="st2" d="M-9.5,440.2l3.8,6.2c1.4,2.3,3.1,2.7,4.5,1.8c1.5-1,1.9-2.6,0.5-4.9l-3.8-6.2l1.4-0.8l3.7,6.1
		c2,3.2,1.1,5.5-1.2,6.9c-2.1,1.3-4.5,1.1-6.5-2.1l-3.8-6.1L-9.5,440.2z"/>
	<path id="XMLID_35_" class="st2" d="M-0.6,434l7.8,9.4l-1.2,1l-7.8-9.4L-0.6,434z"/>
	<path id="XMLID_33_" class="st2" d="M1,432.6l1.1-1.1L10,439l3.6-3.8l1,0.9L9.9,441L1,432.6z"/>
	<path id="XMLID_30_" class="st2" d="M6.3,427.3c0.4-0.9,0.9-1.9,1.6-3c1.2-1.9,2.6-3,4-3.3c1.4-0.4,3-0.1,4.6,0.9
		c1.7,1.1,2.7,2.5,3,4.1c0.3,1.6-0.2,3.5-1.5,5.5c-0.6,0.9-1.2,1.7-1.7,2.3L6.3,427.3z M16.2,431.9c0.3-0.3,0.6-0.8,0.9-1.3
		c1.8-2.8,1.3-5.4-1.5-7.2c-2.4-1.6-4.8-1.2-6.7,1.6c-0.4,0.7-0.7,1.2-0.9,1.6L16.2,431.9z"/>
</g>
<circle id="XMLID_28_" class="st2" cx="-34.1" cy="396.7" r="32.1"/>
<g id="group_x5F_full_4_">
	<g id="XMLID_20_">
		<path id="XMLID_21_" class="st5" d="M-45.2,402.2c0-2.8,0-13.9,0-13.9s0-0.6,0.3-1.4c-2.9,0-5.9,0-5.9,0s-2.8,0-2.8,2.8v9.7
			c0,2.8,2.8,2.8,2.8,2.8v13.9h8.3V405C-42.4,405-45.2,405-45.2,402.2z M-45.2,385.6c0.7,0,1.4-0.2,2-0.5c0.1-0.1,0.2-0.1,0.3-0.1
			c1.2-0.7,1.9-2,1.9-3.5c0-2.3-1.9-4.2-4.2-4.2c-2.3,0-4.2,1.9-4.2,4.2C-49.4,383.7-47.5,385.6-45.2,385.6z M-17.5,387h-5.9
			c0.3,0.8,0.3,1.4,0.3,1.4s0,11.1,0,13.9s-2.8,2.8-2.8,2.8v11.1h8.3v-13.9c0,0,2.8,0,2.8-2.8s0-9.7,0-9.7S-14.7,387-17.5,387z
			 M-25.3,384.9c0.1,0,0.2,0.1,0.3,0.1c0.6,0.3,1.3,0.5,2,0.5c2.3,0,4.2-1.9,4.2-4.2c0-2.3-1.9-4.2-4.2-4.2s-4.2,1.9-4.2,4.2
			C-27.2,382.9-26.4,384.2-25.3,384.9z M-34.1,385.6c2.3,0,4.2-1.9,4.2-4.2c0-2.3-1.9-4.2-4.2-4.2s-4.2,1.9-4.2,4.2
			S-36.4,385.6-34.1,385.6z M-25.8,389.7c0,0,0-2.8-2.8-2.8c-0.7,0-11.1,0-11.1,0s-2.8,0-2.8,2.8v9.7c0,2.8,2.8,2.8,2.8,2.8v13.9
			h11.1v-13.9c0,0,2.8,0,2.8-2.8C-25.8,396.7-25.8,389.7-25.8,389.7z"/>
	</g>
</g>
<g>
	<path class="st2" d="M-44.1,509.2c0.4,0,0.9,0,1.5,0c0.8,0.1,1.3,0.3,1.7,0.6c0.3,0.3,0.5,0.8,0.4,1.3c0,0.5-0.2,1-0.6,1.3
		c-0.4,0.4-1.1,0.6-1.9,0.5c-0.2,0-0.4,0-0.6-0.1l-0.2,2.4l-0.8-0.1L-44.1,509.2z M-43.5,512.2c0.2,0.1,0.4,0.1,0.6,0.1
		c0.9,0.1,1.6-0.3,1.6-1.2c0.1-0.8-0.5-1.2-1.3-1.3c-0.3,0-0.6,0-0.7,0L-43.5,512.2z"/>
	<path class="st2" d="M-36.1,514.5c0,0.5,0,0.8,0,1.2l-0.7,0l0-0.7l0,0c-0.2,0.3-0.7,0.8-1.5,0.8c-0.7,0-1.5-0.4-1.4-2l0.1-2.5
		l0.8,0l-0.1,2.4c0,0.8,0.2,1.4,0.9,1.4c0.5,0,0.9-0.3,1.1-0.7c0-0.1,0.1-0.3,0.1-0.4l0.1-2.7l0.8,0L-36.1,514.5z"/>
	<path class="st2" d="M-34.7,515.7c0-0.3,0-0.7,0-1.1l-0.1-5.3l0.8,0l0,2.7h0c0.3-0.5,0.8-0.8,1.5-0.8c1.1,0,1.9,0.9,1.9,2.2
		c0,1.6-0.9,2.3-1.9,2.4c-0.6,0-1.1-0.2-1.5-0.8h0l0,0.7L-34.7,515.7z M-33.9,514c0,0.1,0,0.2,0,0.3c0.2,0.5,0.6,0.9,1.2,0.9
		c0.8,0,1.3-0.7,1.3-1.7c0-0.9-0.5-1.6-1.3-1.6c-0.5,0-1,0.4-1.2,1c0,0.1,0,0.2,0,0.3L-33.9,514z"/>
	<path class="st2" d="M-29.6,509.3l0.8,0l0.2,6.4l-0.8,0L-29.6,509.3z"/>
	<path class="st2" d="M-26.6,509.9c0,0.3-0.2,0.5-0.5,0.5c-0.3,0-0.5-0.2-0.5-0.5c0-0.3,0.2-0.5,0.5-0.5
		C-26.8,509.5-26.6,509.7-26.6,509.9z M-27.2,515.6l-0.2-4.4l0.8,0l0.2,4.4L-27.2,515.6z"/>
	<path class="st2" d="M-25.2,514.6c0.2,0.1,0.7,0.3,1.1,0.2c0.6,0,0.8-0.4,0.8-0.7c0-0.4-0.3-0.6-0.9-0.7c-0.8-0.2-1.2-0.6-1.2-1.1
		c-0.1-0.7,0.5-1.3,1.4-1.4c0.4,0,0.8,0.1,1.1,0.2l-0.2,0.6c-0.2-0.1-0.5-0.2-0.9-0.2c-0.5,0-0.7,0.3-0.7,0.6c0,0.4,0.3,0.5,0.9,0.7
		c0.8,0.2,1.2,0.6,1.2,1.2c0.1,0.8-0.5,1.3-1.5,1.4c-0.5,0-0.9,0-1.2-0.2L-25.2,514.6z"/>
	<path class="st2" d="M-22,508.8l0.8-0.1l0.3,2.7l0,0c0.1-0.2,0.3-0.5,0.5-0.6c0.2-0.2,0.5-0.3,0.8-0.3c0.6-0.1,1.6,0.2,1.7,1.7
		l0.3,2.6l-0.8,0.1l-0.3-2.5c-0.1-0.7-0.4-1.3-1.1-1.2c-0.5,0.1-0.9,0.5-1,0.9c0,0.1,0,0.2,0,0.4l0.3,2.6l-0.8,0.1L-22,508.8z"/>
</g>
</svg>
