<?xml version="1.0" encoding="utf-8"?>
<!-- Generator: Adobe Illustrator 19.0.0, SVG Export Plug-In . SVG Version: 6.00 Build 0)  -->
<svg version="1.1" id="Layer_1" xmlns="http://www.w3.org/2000/svg" xmlns:xlink="http://www.w3.org/1999/xlink" x="0px" y="0px"
	 viewBox="0 0 274.9 275" style="enable-background:new 0 0 274.9 275;" xml:space="preserve">
<style type="text/css">
	.st0{fill-rule:evenodd;clip-rule:evenodd;fill:#29AAE1;stroke:#FFFFFF;stroke-width:2;stroke-miterlimit:10;}
	.st1{fill:#1D76BB;stroke:#FFFFFF;stroke-width:2;stroke-miterlimit:10;}
	.st2{fill:#FFFFFF;}
	.st3{fill-rule:evenodd;clip-rule:evenodd;fill:#E92629;stroke:#FFFFFF;stroke-width:2;stroke-miterlimit:10;}
	.st4{fill-rule:evenodd;clip-rule:evenodd;fill:#FCDC07;stroke:#FFFFFF;stroke-width:2;stroke-miterlimit:10;}
	.st5{fill:#231F20;}
</style>
<g id="XMLID_3_">
	<path id="XMLID_203_" class="st0" d="M272.1,137c0,74.1-60.1,134.2-134.2,134.2S3.7,211.1,3.7,137C3.7,62.9,63.8,2.8,137.9,2.8
		S272.1,62.9,272.1,137z M137.9,39.6c-53.8,0-97.4,43.6-97.4,97.4c0,53.8,43.6,97.4,97.4,97.4s97.4-43.6,97.4-97.4
		C235.3,83.2,191.7,39.6,137.9,39.6z"/>
	<g id="XMLID_187_">
		<path id="XMLID_202_" class="st1" d="M42,119.6c3.4-18.7,12.1-35.6,24.5-48.9l-0.3,0.1l-8.7-17.4L39.3,46l0-0.1
			c-17,18.4-29,41.6-33.6,67.3l19.5-3.6L42,119.6z"/>
		<path id="XMLID_201_" class="st1" d="M200.8,62.6c13.8,11.7,24.3,27.2,29.9,44.9l0-0.2l19.4,1.2l15.6-12.1l0.2,0.2
			c-7.7-24.5-22.3-46-41.4-62.2l-6.6,18.7L200.8,62.6z"/>
		<path id="XMLID_200_" class="st1" d="M170.4,248l0.4-19.4c-10.3,3.7-21.4,5.7-33,5.7c-7.6,0-14.9-0.9-22-2.5l0.1,0.1l-10.8,16.1
			l2.6,19.6l-0.3,0c9.8,2.3,19.9,3.5,30.4,3.5c15.9,0,31.2-2.8,45.4-7.9L170.4,248L170.4,248z"/>
		<path id="XMLID_199_" class="st1" d="M107.4,267.7l0.1,0C107.5,267.7,107.4,267.7,107.4,267.7L107.4,267.7z"/>
		<path id="XMLID_198_" class="st1" d="M115.6,231.8c0.1,0,0.2,0.1,0.3,0.1L115.6,231.8L115.6,231.8z"/>
		<path id="XMLID_197_" class="st1" d="M170.9,228.6c0.1,0,0.2-0.1,0.3-0.1l-0.3,0L170.9,228.6z"/>
		<path id="XMLID_196_" class="st1" d="M183.3,263.3l0.1-0.1C183.3,263.2,183.3,263.3,183.3,263.3L183.3,263.3z"/>
		<path id="XMLID_195_" class="st1" d="M66.7,70.5c0,0-0.1,0.1-0.1,0.1L66.7,70.5L66.7,70.5z"/>
		<path id="XMLID_194_" class="st1" d="M39.5,45.6l-0.1,0.3c0.1-0.1,0.2-0.2,0.2-0.3L39.5,45.6z"/>
		<path id="XMLID_193_" class="st1" d="M5.8,113.2l0,0.1C5.8,113.3,5.8,113.3,5.8,113.2L5.8,113.2z"/>
		<path id="XMLID_192_" class="st1" d="M42,119.6c0,0.1,0,0.2-0.1,0.3L42,119.6L42,119.6z"/>
		<path id="XMLID_191_" class="st1" d="M230.8,107.8l0.1,0c0-0.1-0.1-0.2-0.1-0.3L230.8,107.8z"/>
		<path id="XMLID_190_" class="st1" d="M266,96.8l-0.1-0.1C265.9,96.8,266,96.8,266,96.8L266,96.8z"/>
		<path id="XMLID_189_" class="st1" d="M224.5,34.4l-0.2-0.1C224.4,34.4,224.4,34.4,224.5,34.4L224.5,34.4z"/>
		<path id="XMLID_188_" class="st1" d="M200.8,62.6c-0.1-0.1-0.1-0.1-0.2-0.2L200.8,62.6L200.8,62.6z"/>
	</g>
	<g id="XMLID_174_">
		<path id="XMLID_185_" class="st2" d="M34.8,89.1c0.3-0.2,0.7-0.6,1-1.1c0.4-0.7,0.2-1.3-0.4-1.6c-0.5-0.2-1-0.1-1.6,0.5
			c-0.8,0.7-1.5,1.1-2.3,0.7c-0.9-0.4-1.2-1.4-0.6-2.5c0.3-0.6,0.6-0.9,0.9-1.1l0.5,0.5c-0.2,0.1-0.5,0.4-0.8,0.9
			c-0.4,0.8-0.1,1.3,0.3,1.4c0.5,0.2,0.9,0,1.6-0.6c0.8-0.8,1.5-1,2.3-0.6c0.8,0.4,1.3,1.4,0.7,2.7c-0.3,0.5-0.7,1-1,1.2L34.8,89.1z
			"/>
		<path id="XMLID_183_" class="st2" d="M31.9,82.5l0.4-0.7l2.4,1.3l0,0c-0.1-0.2-0.2-0.5-0.2-0.8c0-0.3,0-0.6,0.2-0.8
			c0.3-0.5,1-1.2,2.4-0.5l2.3,1.2l-0.4,0.7l-2.2-1.2c-0.6-0.3-1.3-0.4-1.6,0.3c-0.2,0.5-0.1,1,0.2,1.3c0.1,0.1,0.2,0.2,0.3,0.2
			l2.3,1.2l-0.4,0.7L31.9,82.5z"/>
		<path id="XMLID_180_" class="st2" d="M41.1,79.1l-0.5-0.2l0,0c0.2,0.4,0.2,0.9-0.1,1.5c-0.5,0.8-1.2,0.8-1.8,0.5
			c-0.9-0.5-0.9-1.6-0.1-3.1l-0.1,0c-0.3-0.2-0.9-0.4-1.4,0.3c-0.2,0.4-0.3,0.8-0.3,1.1l-0.5-0.1c0-0.4,0.1-1,0.4-1.4
			c0.7-1.2,1.6-1,2.4-0.5l1.4,0.8c0.3,0.2,0.7,0.4,0.9,0.5L41.1,79.1z M39.1,78.1c-0.5,0.7-0.8,1.7-0.1,2.1c0.4,0.3,0.8,0.1,1-0.3
			c0.3-0.5,0.2-1-0.1-1.3c-0.1-0.1-0.1-0.1-0.2-0.2L39.1,78.1z"/>
		<path id="XMLID_178_" class="st2" d="M39.5,75.9c-0.4-0.3-0.8-0.5-1.2-0.7l0.4-0.6l0.7,0.4l0,0c-0.4-0.5-0.4-1.1-0.2-1.5
			c0-0.1,0.1-0.1,0.1-0.2l0.6,0.4C40,73.8,40,73.9,39.9,74c-0.3,0.5-0.2,1,0.3,1.5c0.1,0.1,0.2,0.2,0.3,0.2l2,1.2l-0.4,0.7
			L39.5,75.9z"/>
		<path id="XMLID_175_" class="st2" d="M42.1,73.7c0.9,0.6,1.7,0.3,2.1-0.4c0.3-0.5,0.4-0.8,0.5-1.1l0.5,0.2
			c-0.1,0.3-0.2,0.8-0.6,1.4c-0.8,1.1-1.9,1.3-3,0.5c-1.1-0.7-1.5-2-0.8-3c0.8-1.2,2.1-0.8,2.7-0.3c0.1,0.1,0.2,0.2,0.3,0.2
			L42.1,73.7z M43,71.4c-0.4-0.3-1.2-0.6-1.7,0.2c-0.5,0.7,0,1.4,0.4,1.7L43,71.4z"/>
	</g>
	<g id="XMLID_133_">
		<path id="XMLID_172_" class="st2" d="M25.9,142.1l0.2,3.9l-0.8,0l-0.2-3l-2.4,0.1l0.2,2.8l-0.8,0l-0.2-2.8l-3.3,0.2l-0.1-0.9
			L25.9,142.1z"/>
		<path id="XMLID_169_" class="st2" d="M23.4,153.9c-2.5,0.3-4-1.1-4.2-2.9c-0.2-1.9,1.1-3.4,3.3-3.7c2.3-0.3,4,1,4.2,2.9
			C26.9,152.1,25.5,153.6,23.4,153.9z M22.6,148.2c-1.6,0.2-2.9,1.2-2.7,2.7c0.2,1.5,1.6,2.2,3.3,2c1.4-0.2,2.9-1.1,2.7-2.7
			C25.7,148.6,24.2,148,22.6,148.2z"/>
		<path id="XMLID_166_" class="st2" d="M27,154.5c0.2,0.5,0.4,1.1,0.5,1.8c0.2,1,0.1,1.7-0.2,2.2c-0.3,0.4-0.7,0.7-1.3,0.8
			c-1,0.2-1.7-0.3-2.1-1l0,0c-0.1,0.6-0.5,1-1.3,1.3c-1,0.4-1.6,0.7-1.9,0.9l-0.2-1c0.2-0.2,0.8-0.4,1.6-0.8c1-0.4,1.3-0.8,1.1-1.7
			l-0.2-0.9l-3.1,0.5l-0.2-0.9L27,154.5z M23.9,156l0.2,1c0.2,1,0.8,1.5,1.7,1.4c0.9-0.2,1.2-0.9,1.1-1.9c-0.1-0.5-0.2-0.8-0.2-0.9
			L23.9,156z"/>
		<path id="XMLID_164_" class="st2" d="M25.6,167c1-0.3,2.2-0.6,3.1-0.8l0,0c-0.9,0-1.9-0.1-2.9-0.2l-3.8-0.4l-0.2-0.7l3.1-2
			c0.9-0.6,1.8-1.1,2.6-1.5l0,0c-0.9,0.2-2.1,0.4-3.2,0.6l-3.1,0.5l-0.2-0.9l7.2-1.2l0.3,1.2l-3.2,2c-0.8,0.5-1.5,0.9-2.2,1.3l0,0
			c0.8,0,1.6,0.1,2.6,0.2l3.8,0.4l0.3,1.2l-7,2.2l-0.2-0.9L25.6,167z"/>
		<path id="XMLID_161_" class="st2" d="M25.7,170.8l-2.4,0l-0.3-0.9l7.7,0.2l0.3,1.1l-6.3,4.6l-0.3-1l2-1.4L25.7,170.8z M27.1,172.8
			l1.8-1.3c0.4-0.3,0.8-0.5,1.2-0.8l0,0c-0.4,0-0.9,0-1.4,0l-2.2-0.1L27.1,172.8z"/>
		<path id="XMLID_159_" class="st2" d="M32.1,174.3l0.3,0.9l-6.1,2.3l1.1,2.9l-0.7,0.3l-1.4-3.8L32.1,174.3z"/>
		<path id="XMLID_157_" class="st2" d="M30.4,188.6c-0.3-0.2-0.7-0.8-1.1-1.6c-0.9-1.9-0.3-3.8,1.9-4.8c2.1-0.9,4.1-0.2,5.1,1.9
			c0.4,0.8,0.4,1.4,0.4,1.7l-0.8,0.1c0-0.4-0.1-0.9-0.3-1.5c-0.7-1.6-2.2-2.2-3.9-1.4c-1.6,0.7-2.3,2.2-1.5,3.8
			c0.2,0.5,0.6,1,0.9,1.3L30.4,188.6z"/>
		<path id="XMLID_154_" class="st2" d="M36.9,193.5c-2.2,1.2-4.1,0.4-5-1.2c-0.9-1.7-0.2-3.6,1.8-4.6c2.1-1.1,4.1-0.5,5,1.2
			C39.6,190.7,38.8,192.5,36.9,193.5z M34.1,188.6c-1.4,0.7-2.2,2.1-1.5,3.5c0.7,1.3,2.3,1.4,3.8,0.7c1.3-0.7,2.3-2.1,1.6-3.5
			C37.2,187.8,35.6,187.8,34.1,188.6z"/>
		<path id="XMLID_152_" class="st2" d="M34.3,196.5l6.3-3.8l0.5,0.9l-2,3.9c-0.5,0.9-0.9,1.7-1.4,2.4l0,0c0.8-0.6,1.5-1.1,2.5-1.7
			l2.6-1.6l0.5,0.8l-6.3,3.8l-0.5-0.8l2-3.9c0.4-0.9,0.9-1.7,1.4-2.4l0,0c-0.8,0.5-1.5,1-2.5,1.6l-2.7,1.6L34.3,196.5z"/>
		<path id="XMLID_150_" class="st2" d="M39.1,202c0,0.5,0.2,1.1,0.6,1.7c0.5,0.8,1.3,1,1.9,0.6c0.6-0.4,0.7-0.9,0.4-2
			c-0.3-1.2-0.2-2.2,0.6-2.8c0.9-0.6,2.2-0.3,3,0.8c0.4,0.6,0.6,1.2,0.6,1.5l-0.8,0.2c0-0.3-0.1-0.8-0.5-1.3
			c-0.6-0.8-1.3-0.8-1.7-0.5c-0.6,0.4-0.6,0.9-0.3,2c0.3,1.3,0.2,2.2-0.7,2.8c-0.9,0.6-2.2,0.5-3.2-0.9c-0.4-0.6-0.7-1.3-0.7-1.8
			L39.1,202z"/>
		<path id="XMLID_148_" class="st2" d="M47.8,203.7l-3.4,2.6c-1.3,1-1.4,2-0.8,2.8c0.7,0.9,1.7,1,2.9,0l3.4-2.6l0.6,0.8l-3.4,2.6
			c-1.8,1.4-3.2,1-4.2-0.3c-0.9-1.2-0.9-2.6,0.9-4l3.4-2.6L47.8,203.7z"/>
		<path id="XMLID_146_" class="st2" d="M52.3,215.6c0.7-0.7,1.6-1.6,2.3-2.2l0,0c-0.8,0.4-1.7,0.8-2.7,1.1l-3.5,1.4l-0.5-0.5
			l1.8-3.2c0.5-0.9,1.1-1.8,1.6-2.5l0,0c-0.7,0.6-1.7,1.4-2.5,2l-2.5,1.9l-0.6-0.7l5.8-4.5l0.8,0.9l-1.8,3.3
			c-0.5,0.8-0.9,1.5-1.4,2.2l0,0c0.7-0.4,1.5-0.7,2.4-1.1l3.5-1.4l0.8,0.9l-5.2,5.2l-0.6-0.7L52.3,215.6z"/>
		<path id="XMLID_143_" class="st2" d="M57,214.7c0.4,0.3,0.8,0.6,1.4,1.2c0.7,0.7,1,1.3,1,1.9c0,0.5-0.2,1.1-0.6,1.5
			c-0.5,0.5-1,0.7-1.5,0.7c-0.7,0-1.5-0.4-2.2-1c-0.2-0.2-0.4-0.4-0.5-0.6l-2.1,2.1l-0.7-0.7L57,214.7z M55.1,217.9
			c0.1,0.2,0.3,0.4,0.5,0.6c0.8,0.8,1.7,0.9,2.4,0.2c0.7-0.7,0.5-1.5-0.2-2.2c-0.3-0.3-0.5-0.5-0.7-0.6L55.1,217.9z"/>
		<path id="XMLID_141_" class="st2" d="M61.5,220.1l-1.6-1.5l0.5-0.6l4,3.7l-0.5,0.6l-1.7-1.5l-4.4,4.8l-0.7-0.6L61.5,220.1z"/>
		<path id="XMLID_139_" class="st2" d="M65.7,222.7l-4.8,5.6l-0.7-0.6l4.8-5.6L65.7,222.7z"/>
		<path id="XMLID_136_" class="st2" d="M69.5,230.4c-1.5,2-3.6,2.1-5.1,1c-1.5-1.2-1.7-3.2-0.3-5c1.4-1.8,3.5-2.1,5.1-0.9
			C70.8,226.7,70.9,228.7,69.5,230.4z M65,227c-1,1.2-1.2,2.9,0,3.8c1.2,0.9,2.7,0.4,3.7-1c0.9-1.2,1.2-2.8,0-3.8
			C67.5,225,66,225.7,65,227z"/>
		<path id="XMLID_134_" class="st2" d="M68.4,234.2l4.1-6.1l0.9,0.6l-0.1,4.4c0,1-0.1,1.9-0.3,2.7l0,0c0.5-0.9,1-1.6,1.6-2.6
			l1.7-2.5l0.7,0.5l-4.1,6.1l-0.8-0.5l0.2-4.4c0-1,0.1-1.9,0.2-2.8l0,0c-0.5,0.8-1,1.5-1.6,2.5l-1.8,2.6L68.4,234.2z"/>
	</g>
	<g id="XMLID_110_">
		<path id="XMLID_130_" class="st2" d="M218,215.6c0.3-0.5,0.8-1,1.3-1.6c0.9-1,1.8-1.5,2.7-1.5c0.9-0.1,1.8,0.2,2.6,1
			c0.9,0.8,1.3,1.8,1.4,2.7c0,1-0.5,2-1.4,3.1c-0.5,0.5-0.9,0.9-1.2,1.2L218,215.6z M223.4,219.3c0.2-0.1,0.4-0.4,0.7-0.7
			c1.4-1.5,1.3-3.1-0.1-4.4c-1.3-1.2-2.7-1.2-4.1,0.2c-0.3,0.4-0.6,0.7-0.7,0.9L223.4,219.3z"/>
		<path id="XMLID_127_" class="st2" d="M229.5,207.8c2,1.6,2,3.6,0.8,5.1c-1.2,1.5-3.3,1.6-5,0.2c-1.8-1.5-2.1-3.6-0.8-5.1
			C225.8,206.5,227.8,206.4,229.5,207.8z M225.9,212.3c1.2,1,2.8,1.2,3.8,0.1c1-1.2,0.4-2.7-0.9-3.7c-1.1-0.9-2.8-1.3-3.8-0.1
			C224.1,209.7,224.7,211.3,225.9,212.3z"/>
		<path id="XMLID_125_" class="st2" d="M227.9,203.9l5.9,4.4l-0.6,0.8l-5.9-4.4L227.9,203.9z"/>
		<path id="XMLID_123_" class="st2" d="M234.8,206.9l-6-4.2l0.6-0.9l4.4,0.2c1,0,1.9,0.1,2.7,0.3l0,0c-0.9-0.5-1.6-1-2.5-1.6
			l-2.5-1.7l0.5-0.7l6,4.2l-0.5,0.8l-4.4-0.2c-1,0-1.9-0.1-2.8-0.3l0,0c0.8,0.5,1.5,1,2.5,1.7l2.6,1.8L234.8,206.9z"/>
		<path id="XMLID_121_" class="st2" d="M241.5,195.8c-0.1,0.4-0.3,1.3-0.8,2.1c-0.6,1-1.3,1.6-2.2,1.8c-0.8,0.2-1.9,0.1-2.9-0.5
			c-1.9-1.1-2.5-3.2-1.2-5.4c0.4-0.7,0.9-1.2,1.2-1.4l0.5,0.6c-0.4,0.2-0.7,0.6-1.1,1.2c-0.9,1.5-0.6,3.1,1,4c1.6,1,3.1,0.6,4-0.9
			c0.3-0.5,0.5-0.9,0.5-1.2l-1.9-1.1l-0.8,1.3l-0.7-0.4l1.2-2.1L241.5,195.8z"/>
		<path id="XMLID_119_" class="st2" d="M244.1,191.7l-7.4-1.5l0.4-0.9l3.7,0.8c0.9,0.2,1.8,0.4,2.5,0.6l0,0c-0.6-0.4-1.3-1-2-1.7
			l-2.9-2.5l0.4-0.9l3.7,0.8c0.9,0.2,1.7,0.4,2.5,0.6l0,0c-0.7-0.5-1.3-1-2-1.6l-2.9-2.5l0.4-0.9l5.7,5.1l-0.4,0.9l-3.8-0.8
			c-0.9-0.2-1.7-0.4-2.4-0.6l0,0c0.6,0.4,1.2,0.9,1.9,1.6l3,2.6L244.1,191.7z"/>
		<path id="XMLID_116_" class="st2" d="M246.6,177c2.3,0.9,3,2.9,2.3,4.6c-0.7,1.8-2.6,2.5-4.7,1.7c-2.2-0.9-3-2.8-2.3-4.6
			C242.6,176.8,244.5,176.2,246.6,177z M244.5,182.3c1.5,0.6,3.1,0.3,3.6-1.1c0.6-1.4-0.4-2.7-2-3.3c-1.4-0.5-3-0.4-3.6,1.1
			C242,180.4,243,181.7,244.5,182.3z"/>
		<path id="XMLID_113_" class="st2" d="M243.6,174.7c0.1-0.5,0.2-1.2,0.4-1.8c0.3-1,0.7-1.5,1.2-1.8c0.4-0.2,1-0.3,1.5-0.1
			c0.9,0.3,1.3,1.1,1.3,1.9l0,0c0.4-0.5,1-0.6,1.7-0.6c1,0.1,1.8,0.2,2.1,0.1l-0.3,0.9c-0.2,0-0.9,0-1.8-0.1c-1-0.1-1.5,0.1-1.8,0.9
			l-0.3,0.8l3,1l-0.3,0.9L243.6,174.7z M247.1,174.9l0.3-0.9c0.3-1,0-1.7-0.8-2c-0.9-0.3-1.5,0.2-1.8,1.2c-0.1,0.4-0.2,0.8-0.2,0.9
			L247.1,174.9z"/>
		<path id="XMLID_111_" class="st2" d="M245.3,169.3l0.3-0.9l3.4,1l0,0c-0.2-0.3-0.4-0.5-0.6-0.8l-2-2.9l0.3-1.1l2.3,3.4l4.8-1.6
			l-0.3,1.1l-4.1,1.4l0.6,0.9l2.7,0.8l-0.3,0.9L245.3,169.3z"/>
	</g>
	<g id="XMLID_94_">
		<path id="XMLID_107_" class="st2" d="M231.2,70.3l-1.9,0.6l-0.5-0.7l6.2-1.8l0.5,0.8l-3.8,5.2l-0.5-0.7l1.2-1.6L231.2,70.3z
			 M232.8,71.6l1.1-1.5c0.2-0.3,0.5-0.6,0.7-0.9l0,0c-0.3,0.1-0.7,0.3-1.1,0.4l-1.8,0.5L232.8,71.6z"/>
		<path id="XMLID_105_" class="st2" d="M233.9,77.5c-0.2-0.1-0.6-0.4-0.9-0.9c-0.7-1.1-0.4-2.3,0.7-3c1.1-0.7,2.5-0.5,3.2,0.7
			c0.3,0.4,0.4,0.8,0.4,1.1l-0.6,0.2c0-0.2-0.1-0.5-0.3-0.9c-0.5-0.8-1.5-0.9-2.2-0.4c-0.9,0.5-1,1.4-0.6,2.2
			c0.2,0.4,0.5,0.6,0.7,0.7L233.9,77.5z"/>
		<path id="XMLID_103_" class="st2" d="M239.6,76.3l-1.1,0.6l0.6,1l-0.5,0.3l-0.6-1l-2,1.2c-0.5,0.3-0.7,0.6-0.4,1
			c0.1,0.2,0.2,0.3,0.3,0.4l-0.5,0.3c-0.1-0.1-0.3-0.3-0.5-0.6c-0.2-0.3-0.2-0.6-0.2-0.9c0.1-0.3,0.4-0.6,0.8-0.9l2.1-1.2l-0.4-0.6
			l0.5-0.3l0.4,0.6l0.9-0.5L239.6,76.3z"/>
		<path id="XMLID_100_" class="st2" d="M235.7,80.9l3.8-2.2l0.4,0.7l-3.8,2.2L235.7,80.9z M241.1,78.9c-0.2,0.1-0.5,0.1-0.7-0.2
			c-0.1-0.2,0-0.5,0.2-0.7c0.2-0.1,0.5-0.1,0.7,0.2C241.4,78.5,241.3,78.8,241.1,78.9z"/>
		<path id="XMLID_97_" class="st2" d="M240.6,85.1c-1.4,0.8-2.6,0.1-3.1-0.8c-0.6-1-0.2-2.3,1-2.9c1.3-0.7,2.5-0.2,3.1,0.8
			C242.2,83.3,241.8,84.5,240.6,85.1z M238.9,82.1c-0.8,0.5-1.2,1.3-0.9,2c0.4,0.7,1.3,0.8,2.1,0.4c0.7-0.3,1.3-1.1,0.9-2
			C240.6,81.7,239.6,81.7,238.9,82.1z"/>
		<path id="XMLID_95_" class="st2" d="M241.9,85.6c0.4-0.2,0.7-0.4,1.1-0.5l0.3,0.6l-0.6,0.4l0,0c0.5,0,1.1,0.3,1.4,1
			c0.3,0.5,0.3,1.6-1,2.2l-2.4,1.1l-0.3-0.7l2.3-1.1c0.6-0.3,1.1-0.8,0.7-1.5c-0.2-0.5-0.7-0.7-1.2-0.6c-0.1,0-0.2,0.1-0.4,0.1
			l-2.4,1.1L239,87L241.9,85.6z"/>
	</g>
	<g id="XMLID_43_">
		<path id="XMLID_92_" class="st2" d="M71.7,37.5l4.1,6.1l-0.8,0.5L71,38.1L71.7,37.5z"/>
		<path id="XMLID_90_" class="st2" d="M77.1,42.8l-3.8-6.2l0.9-0.5l3.9,1.9c0.9,0.4,1.7,0.9,2.4,1.3l0,0c-0.6-0.8-1.1-1.5-1.7-2.5
			l-1.6-2.6l0.8-0.5l3.8,6.2L81,40.4l-3.9-2c-0.9-0.4-1.7-0.9-2.4-1.4l0,0c0.5,0.8,1,1.5,1.6,2.5l1.6,2.7L77.1,42.8z"/>
		<path id="XMLID_88_" class="st2" d="M79.6,32.7l3.5-1.9l0.4,0.7L80.8,33l1.2,2.1l2.4-1.3l0.4,0.7l-2.4,1.3l1.6,2.9L83,39.2
			L79.6,32.7z"/>
		<path id="XMLID_85_" class="st2" d="M91.6,30.7c1.1,2.3,0.3,4.1-1.4,4.9c-1.8,0.8-3.6,0-4.6-2c-1-2.1-0.3-4.1,1.4-4.9
			C88.8,27.9,90.7,28.7,91.6,30.7z M86.5,33.2c0.7,1.4,2,2.3,3.4,1.7c1.4-0.6,1.5-2.3,0.8-3.8c-0.6-1.3-2-2.4-3.4-1.7
			C85.9,30.1,85.8,31.8,86.5,33.2z"/>
		<path id="XMLID_82_" class="st2" d="M91.4,27c0.4-0.3,1-0.6,1.6-0.8c0.9-0.4,1.6-0.5,2.2-0.2c0.5,0.2,0.8,0.6,1.1,1.1
			c0.4,0.9,0,1.7-0.6,2.3l0,0c0.6,0,1.1,0.3,1.6,1c0.6,0.9,1,1.5,1.3,1.7l-0.9,0.4c-0.2-0.1-0.6-0.7-1.1-1.4
			c-0.6-0.9-1.1-1.1-1.9-0.8l-0.8,0.3l1.2,2.9l-0.9,0.4L91.4,27z M93.6,29.8l0.9-0.4c0.9-0.4,1.3-1.1,1-1.9c-0.4-0.9-1.1-1-2.1-0.6
			c-0.4,0.2-0.7,0.3-0.8,0.4L93.6,29.8z"/>
		<path id="XMLID_80_" class="st2" d="M104.2,26.6c-0.4-1-0.8-2.1-1.1-3l0,0c0,0.9,0,1.9,0,2.9l-0.1,3.8l-0.7,0.2l-2.2-2.9
			c-0.7-0.9-1.2-1.7-1.7-2.4l0,0c0.3,0.9,0.6,2.1,0.9,3.1l0.8,3l-0.9,0.3l-1.8-7.1l1.1-0.4l2.3,3c0.6,0.8,1.1,1.4,1.5,2.1l0,0
			c-0.1-0.8-0.1-1.6,0-2.6l0.1-3.8l1.1-0.4l2.7,6.8l-0.9,0.3L104.2,26.6z"/>
		<path id="XMLID_77_" class="st2" d="M107.9,26.5l-0.2,2.4l-0.9,0.2l0.6-7.7l1.1-0.3l4.3,6.5l-1,0.3l-1.3-2L107.9,26.5z
			 M110.1,25.2l-1.2-1.9c-0.3-0.4-0.5-0.8-0.7-1.2l0,0c0,0.4,0,0.9,0,1.4l-0.2,2.2L110.1,25.2z"/>
		<path id="XMLID_75_" class="st2" d="M112.2,20.3l0.9-0.2l1.3,6.4l3.1-0.6l0.2,0.8l-4,0.8L112.2,20.3z"/>
		<path id="XMLID_73_" class="st2" d="M125.7,25.2c-0.3,0.2-1,0.5-1.9,0.6c-2,0.3-3.8-0.8-4.1-3.2c-0.3-2.3,1-4,3.3-4.3
			c0.9-0.1,1.5,0,1.8,0.1l-0.1,0.8c-0.4-0.1-0.9-0.2-1.5-0.1c-1.7,0.2-2.7,1.5-2.4,3.4c0.2,1.8,1.4,2.8,3.2,2.5
			c0.6-0.1,1.1-0.3,1.5-0.5L125.7,25.2z"/>
		<path id="XMLID_70_" class="st2" d="M132.5,21.2c0.2,2.5-1.2,4-3.1,4.1c-1.9,0.1-3.4-1.2-3.6-3.5c-0.2-2.3,1.2-3.9,3.1-4.1
			C130.9,17.6,132.3,19,132.5,21.2z M126.8,21.7c0.1,1.6,1.1,2.9,2.6,2.8c1.5-0.1,2.2-1.6,2.1-3.2c-0.1-1.5-1-2.9-2.6-2.8
			C127.4,18.6,126.7,20.1,126.8,21.7z"/>
		<path id="XMLID_68_" class="st2" d="M139.9,21.6c-0.1-1-0.1-2.3-0.1-3.2h0c-0.2,0.9-0.5,1.8-0.9,2.8l-1.3,3.6l-0.7,0l-1.2-3.5
			c-0.4-1-0.7-2-0.9-2.8h0c0,0.9-0.1,2.1-0.1,3.2l-0.2,3.1l-0.9,0l0.4-7.3l1.2,0l1.3,3.5c0.3,0.9,0.6,1.7,0.8,2.5l0,0
			c0.2-0.7,0.4-1.5,0.8-2.5l1.3-3.6l1.2,0l0.5,7.3l-0.9,0L139.9,21.6z"/>
		<path id="XMLID_66_" class="st2" d="M148.6,22.1c0-1,0-2.3,0.1-3.2l0,0c-0.3,0.8-0.7,1.7-1.1,2.7l-1.5,3.5l-0.7,0l-0.9-3.6
			c-0.3-1.1-0.5-2-0.7-2.9l0,0c-0.1,0.9-0.2,2.1-0.4,3.2l-0.4,3.1l-0.9-0.1l1-7.3l1.2,0.1l1,3.6c0.2,0.9,0.4,1.7,0.6,2.5l0,0
			c0.2-0.7,0.6-1.5,0.9-2.4l1.5-3.4l1.2,0.1l0,7.3l-0.9-0.1L148.6,22.1z"/>
		<path id="XMLID_64_" class="st2" d="M152.6,18.4l-0.6,4.3c-0.2,1.6,0.4,2.4,1.4,2.5c1.1,0.1,1.9-0.5,2.1-2.1l0.6-4.3L157,19
			l-0.6,4.2c-0.3,2.2-1.6,3-3.2,2.8c-1.5-0.2-2.5-1.2-2.2-3.5l0.6-4.3L152.6,18.4z"/>
		<path id="XMLID_62_" class="st2" d="M157.4,26.5l1.4-7.2l1,0.2l1.6,4.1c0.4,1,0.6,1.8,0.8,2.6l0,0c0.1-1,0.3-1.9,0.5-3l0.6-3
			l0.9,0.2l-1.4,7.2l-0.9-0.2l-1.6-4.1c-0.3-0.9-0.7-1.8-0.9-2.7l0,0c-0.1,0.9-0.3,1.8-0.5,3l-0.6,3.1L157.4,26.5z"/>
		<path id="XMLID_60_" class="st2" d="M166.9,21.1l-1.7,7.1l-0.9-0.2l1.7-7.1L166.9,21.1z"/>
		<path id="XMLID_58_" class="st2" d="M171.7,29.7c-0.4,0.1-1.1,0-2-0.2c-2-0.6-3.1-2.3-2.5-4.6c0.6-2.2,2.6-3.3,4.7-2.6
			c0.9,0.2,1.4,0.6,1.6,0.8l-0.4,0.7c-0.3-0.3-0.8-0.5-1.3-0.7c-1.7-0.5-3.1,0.3-3.6,2.1c-0.5,1.7,0.2,3.1,1.9,3.6
			c0.6,0.2,1.2,0.2,1.6,0.1L171.7,29.7z"/>
		<path id="XMLID_55_" class="st2" d="M174.5,28.5l-1.5,1.9l-0.9-0.3l4.8-6.1l1.1,0.4l-0.1,7.7l-1-0.3l0-2.4L174.5,28.5z M177,28.6
			l0-2.2c0-0.5,0-1,0.1-1.4l0,0c-0.2,0.4-0.5,0.8-0.8,1.1l-1.4,1.8L177,28.6z"/>
		<path id="XMLID_53_" class="st2" d="M181.6,26.6l-2.1-0.8l0.3-0.7l5,2l-0.3,0.7l-2.1-0.8l-2.4,6.1l-0.9-0.4L181.6,26.6z"/>
		<path id="XMLID_51_" class="st2" d="M186.6,27.8l-3,6.7l-0.9-0.4l3-6.7L186.6,27.8z"/>
		<path id="XMLID_48_" class="st2" d="M192.3,34.6c-1.1,2.3-3.1,2.8-4.8,2c-1.7-0.9-2.3-2.8-1.3-4.8c1-2.1,3-2.8,4.8-1.9
			C192.8,30.7,193.3,32.6,192.3,34.6z M187.1,32.1c-0.7,1.4-0.6,3,0.8,3.7c1.3,0.7,2.7-0.2,3.5-1.7c0.6-1.3,0.6-3-0.8-3.7
			C189.2,29.7,187.9,30.7,187.1,32.1z"/>
		<path id="XMLID_46_" class="st2" d="M191.5,38.4l3.7-6.4l0.9,0.5l0.2,4.4c0,1,0,1.9,0,2.7l0,0c0.4-0.9,0.8-1.7,1.4-2.7l1.5-2.7
			l0.8,0.4l-3.7,6.4l-0.8-0.5l-0.2-4.4c0-1,0-1.9,0-2.8l0,0c-0.4,0.8-0.8,1.6-1.4,2.7l-1.6,2.7L191.5,38.4z"/>
		<path id="XMLID_44_" class="st2" d="M198,40.9c0.2,0.5,0.6,1,1.2,1.3c0.8,0.5,1.6,0.4,2-0.2c0.4-0.6,0.3-1.1-0.4-2
			c-0.8-1-1.1-1.9-0.5-2.8c0.6-1,1.9-1.2,3.1-0.4c0.6,0.4,1,0.9,1.2,1.2l-0.6,0.5c-0.1-0.2-0.4-0.7-1-1.1c-0.8-0.5-1.5-0.3-1.8,0.2
			c-0.4,0.6-0.2,1.1,0.5,2c0.8,1.1,1,1.9,0.4,2.8c-0.6,0.9-1.9,1.3-3.3,0.4c-0.6-0.4-1.1-1-1.3-1.4L198,40.9z"/>
	</g>
	<path id="XMLID_42_" class="st3" d="M133.9,233.7C133.9,233.7,133.9,233.7,133.9,233.7c-1.8-0.3-3.7-0.5-5.5-0.9
		c-8.9-1.8-16.8-5.7-23.4-11.9c-9.4-8.7-14.6-19.5-15.6-32.3c-0.4-4.6,0-9.2,1-13.7c2.6-11.8,8.8-21.4,18.4-28.7
		c8.6-6.5,18.4-9.6,29.1-9.7c3.4,0,6.8-0.4,10.2-1.1c11.4-2.5,20.7-8.3,27.9-17.5c7.9-10,11.2-21.5,10.3-34.2
		c-0.3-3.5-0.9-6.9-2-10.2c-3-9.5-8.3-17.4-16.1-23.6c-8.7-7-18.7-10.5-29.8-10.7c-4-0.1-8.1,0.2-12.1,0.7
		c-4.3,0.5-8.5,1.3-12.7,2.4c-15.6,4-29.3,11.5-41.2,22.3c-7.2,6.5-13.2,13.9-18.2,22.3c-8.7,14.6-13.2,30.4-13.6,47.4
		c-0.2,6.7,0.4,13.3,1.6,19.8c1.4,7.8,3.7,15.3,7,22.4c6.3,13.9,15.4,25.7,27.2,35.4c9.3,7.6,19.6,13.2,31,17
		c4.7,1.6,9.5,2.8,14.3,3.5c2.7,0.4,5.4,0.7,8.1,1C131.2,233.6,132.6,233.6,133.9,233.7z"/>
	<path id="XMLID_41_" class="st4" d="M141.7,39.3C141.7,39.3,141.7,39.3,141.7,39.3c1.8,0.3,3.7,0.5,5.5,0.9
		c8.9,1.8,16.8,5.7,23.4,11.9c9.4,8.7,14.6,19.5,15.6,32.3c0.4,4.6,0,9.2-1,13.7c-2.6,11.8-8.8,21.4-18.4,28.7
		c-8.6,6.5-18.4,9.6-29.1,9.7c-3.4,0-6.8,0.4-10.2,1.1c-11.4,2.5-20.7,8.3-27.9,17.5c-7.9,10-11.2,21.5-10.3,34.2
		c0.3,3.5,0.9,6.9,2,10.2c3,9.5,8.3,17.4,16.1,23.6c8.7,7,18.7,10.5,29.8,10.7c4,0.1,8.1-0.2,12.1-0.7c4.3-0.5,8.5-1.3,12.7-2.4
		c15.6-4,29.3-11.5,41.2-22.3c7.2-6.5,13.2-13.9,18.2-22.3c8.7-14.6,13.2-30.4,13.6-47.4c0.2-6.7-0.4-13.3-1.6-19.8
		c-1.4-7.8-3.7-15.3-7-22.4c-6.3-13.9-15.4-25.7-27.2-35.4c-9.3-7.6-19.6-13.2-31-17c-4.7-1.5-9.5-2.8-14.3-3.5
		c-2.7-0.4-5.4-0.7-8.1-1C144.3,39.4,143,39.4,141.7,39.3z"/>
	<g id="XMLID_27_">
		<path id="XMLID_39_" class="st2" d="M87.9,112.3l-1.8,4.4l4.1,1.7l2-4.9l1.2,0.5l-2.6,6.3l-11.3-4.7l2.5-6.1l1.2,0.5l-1.9,4.6
			l3.6,1.5l1.8-4.4L87.9,112.3z"/>
		<path id="XMLID_37_" class="st2" d="M93.8,113.1l-10.2-6.7l0.9-1.4l7.3,0.1c1.7,0,3.2,0.1,4.5,0.3l0,0c-1.4-0.8-2.7-1.6-4.3-2.6
			l-4.3-2.8l0.8-1.2l10.2,6.7l-0.9,1.3l-7.3-0.2c-1.6,0-3.2-0.1-4.7-0.3l0,0.1c1.3,0.8,2.6,1.5,4.3,2.7l4.4,2.9L93.8,113.1z"/>
		<path id="XMLID_35_" class="st2" d="M106,97.4c-0.3,0.7-1,2-2.2,3.1c-1.3,1.3-2.7,2-4.4,2.1c-1.5,0-3.1-0.7-4.4-2
			c-2.5-2.6-2.6-6.3,0.3-9.1c1-1,2-1.6,2.6-1.7l0.6,1.2c-0.7,0.3-1.4,0.7-2.3,1.5c-2.1,2.1-2.2,4.8,0,7c2.2,2.2,4.8,2.2,6.8,0.2
			c0.7-0.7,1.1-1.3,1.3-1.7l-2.6-2.6l-1.8,1.7L99,96l2.9-2.8L106,97.4z"/>
		<path id="XMLID_32_" class="st2" d="M106.9,92.7l1,3.9l-1.4,0.9L103.4,85l1.6-1l10.2,8l-1.4,0.9l-3.2-2.5L106.9,92.7z M109.6,89.5
			l-2.9-2.3c-0.7-0.5-1.2-1-1.7-1.5l0,0c0.2,0.7,0.5,1.4,0.7,2.2l0.9,3.6L109.6,89.5z"/>
		<path id="XMLID_30_" class="st2" d="M124,88c-0.6,0.5-1.7,1.4-3.2,2c-1.7,0.7-3.3,0.8-4.8,0.2c-1.4-0.6-2.6-1.8-3.3-3.6
			c-1.3-3.4,0-6.8,3.8-8.3c1.3-0.5,2.5-0.6,3-0.6l0.1,1.3c-0.7,0-1.6,0-2.7,0.5c-2.8,1.1-3.9,3.5-2.8,6.4c1.1,2.9,3.5,3.9,6.2,2.9
			c1-0.4,1.6-0.8,1.8-1.1l-1.3-3.4l-2.3,0.9l-0.5-1.2l3.7-1.5L124,88z"/>
		<path id="XMLID_28_" class="st2" d="M130.6,81.5l-4.7,0.9l0.8,4.3l5.2-1l0.2,1.3l-6.7,1.3l-2.3-12l6.5-1.2l0.2,1.3l-4.9,0.9
			l0.7,3.8l4.7-0.9L130.6,81.5z"/>
	</g>
	<g id="XMLID_13_">
		<path id="XMLID_23_" class="st2" d="M152.1,184.6c0.6-0.4,1.6-0.9,2.6-1.2c1.5-0.6,2.5-0.7,3.5-0.3c0.8,0.2,1.4,0.8,1.7,1.7
			c0.4,1.1,0,2.3-1,3.2l0,0c1.2-0.1,2.8,0.3,3.4,2c0.4,1,0.3,1.9-0.1,2.7c-0.5,1-1.7,1.9-3.6,2.6c-1,0.4-1.8,0.6-2.3,0.7
			L152.1,184.6z M155.4,188.7l1.3-0.5c1.6-0.6,2.2-1.7,1.8-2.8c-0.5-1.3-1.7-1.5-3.2-0.9c-0.7,0.3-1,0.5-1.3,0.6L155.4,188.7z
			 M157.4,194.2c0.3-0.1,0.7-0.2,1.3-0.4c1.5-0.6,2.7-1.7,2.1-3.3c-0.6-1.6-2.2-1.7-3.8-1.1l-1.2,0.5L157.4,194.2z"/>
		<path id="XMLID_21_" class="st2" d="M161.5,180.5l3.8,6.2c1.4,2.3,3.1,2.7,4.5,1.8c1.5-1,1.9-2.6,0.5-4.9l-3.8-6.2l1.4-0.8
			l3.7,6.1c2,3.2,1.1,5.5-1.2,6.9c-2.1,1.3-4.5,1.1-6.5-2.1l-3.8-6.1L161.5,180.5z"/>
		<path id="XMLID_19_" class="st2" d="M170.4,174.3l7.8,9.4l-1.2,1l-7.8-9.4L170.4,174.3z"/>
		<path id="XMLID_17_" class="st2" d="M172,172.9l1.1-1.1l7.9,7.5l3.6-3.8l1,0.9l-4.7,4.9L172,172.9z"/>
		<path id="XMLID_14_" class="st2" d="M177.3,167.6c0.4-0.9,0.9-1.9,1.6-3c1.2-1.9,2.6-3,4-3.3c1.4-0.4,3-0.1,4.6,0.9
			c1.7,1.1,2.7,2.5,3,4.1c0.3,1.6-0.2,3.5-1.5,5.5c-0.6,0.9-1.2,1.7-1.7,2.3L177.3,167.6z M187.2,172.2c0.3-0.3,0.6-0.8,0.9-1.3
			c1.8-2.8,1.3-5.4-1.5-7.2c-2.4-1.6-4.8-1.2-6.7,1.6c-0.4,0.7-0.7,1.2-0.9,1.6L187.2,172.2z"/>
	</g>
	<circle id="XMLID_12_" class="st2" cx="136.9" cy="137" r="32.1"/>
	<g id="group_x5F_full_4_">
		<g id="XMLID_4_">
			<path id="XMLID_5_" class="st5" d="M125.8,142.5c0-2.8,0-13.9,0-13.9s0-0.6,0.3-1.4c-2.9,0-5.9,0-5.9,0s-2.8,0-2.8,2.8v9.7
				c0,2.8,2.8,2.8,2.8,2.8v13.9h8.3v-11.1C128.6,145.3,125.8,145.3,125.8,142.5z M125.8,125.9c0.7,0,1.4-0.2,2-0.5
				c0.1-0.1,0.2-0.1,0.3-0.1c1.2-0.7,1.9-2,1.9-3.5c0-2.3-1.9-4.2-4.2-4.2c-2.3,0-4.2,1.9-4.2,4.2
				C121.6,124,123.5,125.9,125.8,125.9z M153.5,127.3h-5.9c0.3,0.8,0.3,1.4,0.3,1.4s0,11.1,0,13.9c0,2.8-2.8,2.8-2.8,2.8v11.1h8.3
				v-13.9c0,0,2.8,0,2.8-2.8c0-2.8,0-9.7,0-9.7S156.3,127.3,153.5,127.3z M145.7,125.2c0.1,0,0.2,0.1,0.3,0.1c0.6,0.3,1.3,0.5,2,0.5
				c2.3,0,4.2-1.9,4.2-4.2c0-2.3-1.9-4.2-4.2-4.2c-2.3,0-4.2,1.9-4.2,4.2C143.8,123.2,144.6,124.5,145.7,125.2z M136.9,125.9
				c2.3,0,4.2-1.9,4.2-4.2c0-2.3-1.9-4.2-4.2-4.2c-2.3,0-4.2,1.9-4.2,4.2C132.7,124,134.6,125.9,136.9,125.9z M145.2,130
				c0,0,0-2.8-2.8-2.8c-0.7,0-11.1,0-11.1,0s-2.8,0-2.8,2.8v9.7c0,2.8,2.8,2.8,2.8,2.8v13.9h11.1v-13.9c0,0,2.8,0,2.8-2.8
				C145.2,137,145.2,130,145.2,130z"/>
		</g>
	</g>
</g>
</svg>
