<?xml version="1.0" encoding="utf-8"?>
<!-- Generator: Adobe Illustrator 19.0.0, SVG Export Plug-In . SVG Version: 6.00 Build 0)  -->
<svg version="1.1" id="Layer_1" xmlns="http://www.w3.org/2000/svg" xmlns:xlink="http://www.w3.org/1999/xlink" x="0px" y="0px"
	 viewBox="-614 331.5 39.5 39.4" style="enable-background:new -614 331.5 39.5 39.4;" xml:space="preserve">
<style type="text/css">
	.st0{fill:#FFFFFF;}
</style>
<g id="_x37_9OWxE_3_">
	<g id="XMLID_134_">
		<path id="XMLID_135_" class="st0" d="M-594.1,331.5c5,0,10.1,0,15.1,0c1.3,0,2.3,0.4,3.2,1.3c0.9,0.9,1.3,1.9,1.3,3.2
			c0,10.1,0,20.2,0,30.4c0,2.2-1.6,4.1-3.8,4.4c-0.3,0-0.5,0.1-0.8,0.1c-3.7,0-7.4,0-11.2,0c-6.4,0-12.7,0-19.1,0
			c-0.7,0-1.3-0.1-1.9-0.4c-1.4-0.7-2.3-1.8-2.6-3.4c-0.1-0.3-0.1-0.5-0.1-0.8c0-2,0-4,0-6c0-8.1,0-16.1,0-24.2c0-0.7,0.1-1.4,0.4-2
			c0.7-1.4,1.8-2.3,3.4-2.5c0.5-0.1,0.8-0.1,1-0.1C-604.1,331.5-599.1,331.5-594.1,331.5z M-605.8,348.2c-0.2,0-3.3,0-3.4,0
			c0,0.1,0,0.1,0,0.2c0,5.4,0,10.9,0,16.3c0,0.1,0,0.2,0,0.3c0,0.6,0.5,1.1,1,1.3c0.2,0.1,0.4,0.1,0.6,0.1c9,0,18,0,27,0
			c0.1,0,0.1,0,0.2,0c0.7,0,1.2-0.4,1.4-1c0.1-0.2,0.1-0.4,0.1-0.6c0-5.5,0-10.9,0-16.4v-0.1v-0.1c-0.3,0-3.3,0-3.4,0
			c0.6,2.5,0.5,4.9-0.4,7.3s-2.4,4.3-4.6,5.7c-3.9,2.6-9.1,2.7-13.1,0.3c-2-1.2-3.6-2.9-4.6-5.1C-606.3,353.8-606.5,351-605.8,348.2
			z M-594.1,358.8c4.2,0,7.6-3.4,7.6-7.6c0-4.2-3.4-7.6-7.6-7.6c-4.3,0-7.6,3.5-7.6,7.6C-601.7,355.4-598.3,358.8-594.1,358.8z
			 M-582.7,343.6c0.8,0,1.5,0,2.3,0c0.8,0,1.5-0.7,1.5-1.5c0-1.5,0-3.1,0-4.6c0-0.8-0.7-1.5-1.5-1.5c-1.5,0-3,0-4.6,0
			c-0.8,0-1.5,0.7-1.5,1.5c0,1.5,0,3,0,4.6c0,0.1,0,0.3,0.1,0.4c0.2,0.7,0.8,1.1,1.5,1.1C-584.2,343.6-583.5,343.6-582.7,343.6z"/>
	</g>
</g>
</svg>
