<?xml version="1.0" encoding="utf-8"?>
<!-- Generator: Adobe Illustrator 19.0.0, SVG Export Plug-In . SVG Version: 6.00 Build 0)  -->
<svg version="1.1" id="Layer_1" xmlns="http://www.w3.org/2000/svg" xmlns:xlink="http://www.w3.org/1999/xlink" x="0px" y="0px"
	 viewBox="-614 333.5 38.9 39.1" style="enable-background:new -614 333.5 38.9 39.1;" xml:space="preserve">
<style type="text/css">
	.st0{fill:#FFFFFF;}
</style>
<path id="XMLID_124_" class="st0" d="M-577.6,333.5h-33.9c-1.4,0-2.5,1.1-2.5,2.5v34.1c0,1.4,1.1,2.5,2.5,2.5h33.9
	c1.4,0,2.5-1.1,2.5-2.5v-34C-575,334.7-576.2,333.5-577.6,333.5z M-602.3,366.9h-5.7v-18.3h5.7V366.9z M-605.2,346.2
	c-1.9,0-3.4-1.5-3.4-3.4c0-1.9,1.5-3.4,3.4-3.4c1.9,0,3.4,1.5,3.4,3.4C-601.8,344.7-603.3,346.2-605.2,346.2z M-580.9,366.9h-5.7
	v-9.5c0,0,0.4-4.3-3.1-4.3c-3.2,0-3.3,4.5-3.3,4.5v9.3h-5.8v-18.3h5.7v2.4c0,0,1.2-3,5.4-3s6.8,2.1,6.8,8.3V366.9z"/>
</svg>
