<?xml version="1.0" encoding="utf-8"?>
<!-- Generator: Adobe Illustrator 19.0.0, SVG Export Plug-In . SVG Version: 6.00 Build 0)  -->
<svg version="1.1" id="Layer_1" xmlns="http://www.w3.org/2000/svg" xmlns:xlink="http://www.w3.org/1999/xlink" x="0px" y="0px"
	 viewBox="-620 341.9 38.9 39.1" style="enable-background:new -620 341.9 38.9 39.1;" xml:space="preserve">
<style type="text/css">
	.st0{fill:#A6A8AB;}
</style>
<path id="XMLID_124_" class="st0" d="M-583.6,341.9h-33.9c-1.4,0-2.5,1.1-2.5,2.5v34.1c0,1.4,1.1,2.5,2.5,2.5h33.9
	c1.4,0,2.5-1.1,2.5-2.5v-34C-581,343.1-582.2,341.9-583.6,341.9z M-608.3,375.3h-5.7V357h5.7V375.3z M-611.2,354.6
	c-1.9,0-3.4-1.5-3.4-3.4s1.5-3.4,3.4-3.4s3.4,1.5,3.4,3.4S-609.3,354.6-611.2,354.6z M-586.9,375.3h-5.7v-9.5c0,0,0.4-4.3-3.1-4.3
	c-3.2,0-3.3,4.5-3.3,4.5v9.3h-5.8V357h5.7v2.4c0,0,1.2-3,5.4-3s6.8,2.1,6.8,8.3L-586.9,375.3L-586.9,375.3z"/>
</svg>
