<?xml version="1.0" encoding="utf-8"?>
<!-- Generator: Adobe Illustrator 19.0.0, SVG Export Plug-In . SVG Version: 6.00 Build 0)  -->
<svg version="1.1" id="Layer_1" xmlns="http://www.w3.org/2000/svg" xmlns:xlink="http://www.w3.org/1999/xlink" x="0px" y="0px"
	 viewBox="-614 334 29.9 37.8" style="enable-background:new -614 334 29.9 37.8;" xml:space="preserve">
<style type="text/css">
	.st0{fill:#FFFFFF;}
</style>
<g id="LsSM2P_1_">
	<g id="XMLID_142_">
		<path id="XMLID_143_" class="st0" d="M-599.3,334c5,0.1,8.6,1.9,11.5,5.3c2.1,2.4,3.2,5.3,3.6,8.4c0.4,2.7-0.2,5.2-1.2,7.6
			c-0.9,2.1-2,4.2-3.2,6.2c-0.9,1.5-2,2.8-3.1,4.2c-1.5,1.8-3.1,3.5-4.9,5c-0.5,0.4-1,0.7-1.5,0.9c-1.1,0.5-2-0.2-2.9-0.8
			c-2.4-1.7-4.4-3.9-6.2-6.3c-2-2.5-3.7-5.2-5-8.1c-1.2-2.7-2-5.5-1.7-8.5c0.3-3,1.4-5.7,3.3-8.1c2.2-2.8,4.9-4.6,8.3-5.4
			C-601.2,334.2-600,334.1-599.3,334z M-601.2,340.4c1.7,1.3,2.3,2.9,1.3,4.8c-0.6,1.2-1.7,1.9-3.1,1.9c-1.9,0-3-1.1-3.6-2.8
			c-2.1,2.9-2.3,7.7,0.9,10.9c3.2,3.3,8.5,4,12.3,0.9c3.5-2.8,4.5-8,1.6-12.3C-593.9,340.5-597.9,339.3-601.2,340.4z"/>
	</g>
</g>
</svg>
