<?xml version="1.0" encoding="utf-8"?>
<!-- Generator: Adobe Illustrator 19.0.0, SVG Export Plug-In . SVG Version: 6.00 Build 0)  -->
<svg version="1.1" id="Layer_1" xmlns="http://www.w3.org/2000/svg" xmlns:xlink="http://www.w3.org/1999/xlink" x="0px" y="0px"
	 viewBox="-605 328.2 50.2 39.4" style="enable-background:new -605 328.2 50.2 39.4;" xml:space="preserve">
<style type="text/css">
	.st0{fill:#FFFFFF;}
</style>
<g id="aB8kwP_1_">
	<g id="XMLID_152_">
		<path id="XMLID_153_" class="st0" d="M-574.9,345.9c1.3,0,2.4,0,3.6,0c2.4,0,4.8,0,7.2,0c0.4,0,1,0.3,1.1,0.6
			c2.7,6.9,5.4,13.7,8.1,20.6c0.1,0.1,0,0.3,0.1,0.5c-16.7,0-33.4,0-50.2,0c0.1-0.4,0.2-0.7,0.3-1c2.6-6.6,5.1-13.1,7.7-19.7
			c0.3-0.8,0.7-1.1,1.5-1.1c3.5,0.1,6.9,0,10.5,0c-0.1-0.4-0.2-0.7-0.3-1c-0.7-2.1-1.5-4.1-2.2-6.2c-1.1-3.3,0.1-6.8,2.9-8.8
			c2.8-2,6.5-2,9.3,0s4,5.5,2.9,8.8C-573.2,341.1-574.1,343.4-574.9,345.9z M-579.8,357.4c-0.1,0-0.2,0-0.3,0
			c-0.9-2-1.7-3.9-2.6-5.9c-0.2-0.5-0.4-0.8-1.1-0.8c-2.9,0-5.9,0-8.8,0.1c-0.4,0-0.9,0.4-1,0.7c-1.5,3.6-2.8,7.2-4.3,10.8
			c-0.1,0.2-0.1,0.3-0.1,0.5c12.1,0,24.1,0,36.2,0c-1.5-3.9-3-7.8-4.6-11.5c-0.1-0.3-0.7-0.5-1-0.5c-2.9,0-5.7,0-8.6,0
			c-0.7,0-1,0.2-1.2,0.8C-578,353.5-578.9,355.4-579.8,357.4z M-579.9,333.1c-1.8,0-3.3,1.5-3.4,3.3c0,1.8,1.4,3.3,3.3,3.4
			c1.8,0.1,3.4-1.5,3.4-3.3C-576.6,334.7-578.1,333.1-579.9,333.1z"/>
	</g>
</g>
</svg>
