<?xml version="1.0" encoding="utf-8"?>
<!-- Generator: Adobe Illustrator 19.0.0, SVG Export Plug-In . SVG Version: 6.00 Build 0)  -->
<svg version="1.1" id="Layer_1" xmlns="http://www.w3.org/2000/svg" xmlns:xlink="http://www.w3.org/1999/xlink" x="0px" y="0px"
	 viewBox="-528.2 274.1 174 174" style="enable-background:new -528.2 274.1 174 174;" xml:space="preserve">
<style type="text/css">
	.st0{fill:none;stroke:#B4B4B4;stroke-width:2;stroke-miterlimit:10;}
</style>
<circle id="XMLID_228_" class="st0" cx="-441.5" cy="361.1" r="85.4"/>
<path id="XMLID_225_" class="st0" d="M-393,381.7c-3.1-4.8-13.3-7.7-23.5-12c-10.2-4.2-12.6-5.7-12.6-5.7l-0.1-9.8
	c0,0,3.8-2.9,5-12.1c2.4,0.7,4.9-3.6,5-5.8c0.1-2.2-0.3-8.1-3.2-7.5c0.6-4.5,1-8.6,0.8-10.7c-0.8-7.8-8.5-16.1-20.3-16.1
	c-11.9,0-19.6,8.3-20.3,16.1c-0.2,2.1,0.2,6.2,0.8,10.7c-2.9-0.6-3.4,5.4-3.2,7.5c0.1,2.2,2.6,6.5,5,5.8c1.2,9.2,5,12.1,5,12.1
	l-0.1,9.8c0,0-2.4,1.5-12.6,5.7c-10.2,4.2-20.5,7.2-23.5,12c-2.7,4.3-1.9,24.8-1.9,24.8h50.9h50.9
	C-391.1,406.5-390.3,385.9-393,381.7z"/>
</svg>
