<?xml version="1.0" encoding="utf-8"?>
<!-- Generator: Adobe Illustrator 19.0.0, SVG Export Plug-In . SVG Version: 6.00 Build 0)  -->
<svg version="1.1" id="Layer_1" xmlns="http://www.w3.org/2000/svg" xmlns:xlink="http://www.w3.org/1999/xlink" x="0px" y="0px"
	 viewBox="-535.8 273.9 174 174" style="enable-background:new -535.8 273.9 174 174;" xml:space="preserve">
<style type="text/css">
	.st0{fill:#A6A8AC;}
</style>
<g id="XMLID_44_">
	<g id="XMLID_49_">
		<g id="XMLID_67_">
			<path id="XMLID_68_" class="st0" d="M-433.4,412.6H-464v-36.4c-0.8-0.1-2-0.3-3.2-0.9c-1.9-0.9-4.1-2.9-4.1-7.1v-25.4
				c0-4.2,2.2-6.2,4.1-7.1c2-1,3.9-1,4-1h29c4.2,0,6.2,2.2,7.1,4.1c1,2,1,3.9,1,4v25.4c0,6.4-5.2,7.8-7.3,8v36.4H-433.4z
				 M-462.5,410.9h27.4v-36.3h0.8c0.3,0,6.4-0.1,6.4-6.4v-25.4c0-0.3-0.1-6.4-6.4-6.4h-29c-0.3,0-6.4,0.1-6.4,6.4v25.4
				c0,6.4,6.2,6.4,6.4,6.4h0.8V410.9z M-448.8,332.7L-448.8,332.7c-0.4,0-0.8,0-1.2-0.1c-5.5-0.5-9.9-4.9-10.5-10.5
				c-0.3-3.4,0.7-6.6,3-9.1c2.2-2.5,5.4-3.9,8.7-3.9c0.4,0,0.8,0,1.2,0.1c5.5,0.6,9.9,5,10.5,10.5c0.3,3.4-0.7,6.6-3,9.1
				C-442.2,331.3-445.5,332.7-448.8,332.7z M-448.8,310.9c-2.8,0-5.6,1.2-7.5,3.3c-1.9,2.1-2.8,4.9-2.5,7.8c0.5,4.7,4.2,8.5,9,9
				c0.3,0,0.7,0.1,1,0.1c2.8,0,5.6-1.2,7.5-3.3s2.8-4.9,2.6-7.8c-0.5-4.7-4.2-8.5-9-9C-448,310.9-448.4,310.9-448.8,310.9z"/>
		</g>
		<g id="XMLID_50_">
			<g id="XMLID_63_">
				<path id="XMLID_64_" class="st0" d="M-402.6,406.2h-28.2v-27.5c0-0.7,0.6-0.9,1.2-1.1c0.2-0.1,0.4-0.1,0.5-0.2
					c3.4-1.7,5.1-4.8,5.1-9.1v-26.1h19.6c2.2,0,4,0.7,5.3,2c2,2,1.9,4.9,1.9,5.1v23c0,5.7-3.7,7-5.4,7.3V406.2z M-429.2,404.5h24.8
					V378h0.8c0,0,1.2,0,2.3-0.7c1.5-0.9,2.3-2.6,2.3-5v-23c0,0,0-2.4-1.5-3.9c-0.9-1-2.3-1.5-4.1-1.5h-17.9v24.3c0,5-2.1,8.7-6,10.6
					c-0.2,0.1-0.4,0.2-0.6,0.3c0,0-0.1,0-0.1,0.1C-429.2,379.2-429.2,404.5-429.2,404.5z"/>
			</g>
			<g id="XMLID_59_">
				<path id="XMLID_60_" class="st0" d="M-417.6,340.3L-417.6,340.3c-0.2,0-0.3,0-0.5,0c-5.2-0.2-9.6-4.4-10.1-9.6
					c-0.3-3.1,0.7-6,2.7-8.3c2-2.2,4.9-3.5,7.9-3.5c0.4,0,0.7,0,1.1,0.1c5.2,0.5,9.3,4.9,9.6,10.1c0.1,3-0.9,5.8-2.9,7.9
					C-412,339.1-414.6,340.3-417.6,340.3z M-417.5,320.6c-2.5,0-5,1.1-6.7,3c-1.7,1.9-2.5,4.4-2.3,7c0.4,4.4,4.1,7.9,8.5,8.1
					c0.1,0,0.3,0,0.4,0l0,0c2.5,0,4.8-1,6.5-2.8c1.7-1.8,2.6-4.2,2.5-6.7c-0.2-4.4-3.7-8.1-8.1-8.5
					C-417,320.6-417.2,320.6-417.5,320.6z"/>
			</g>
			<g id="XMLID_55_">
				<path id="XMLID_56_" class="st0" d="M-466.5,406.2h-26.8v-26.5c-0.7-0.1-1.8-0.3-2.9-0.8c-1.8-0.9-3.9-2.7-3.9-6.5v-23
					c0-6.9,6.3-7.1,7-7.1c0.1,0,0.1,0,0.2,0h19.6v25.9c0,4.3,1.8,7.5,5.1,9.1c0.1,0.1,0.3,0.1,0.5,0.2c0.6,0.2,1.2,0.5,1.2,1.1
					V406.2z M-491.8,404.5h23.5v-25.4c0,0-0.1,0-0.1-0.1c-0.2-0.1-0.4-0.2-0.6-0.3c-4-2-6-5.7-6-10.6v-24.2h-18c0,0,0,0-0.1,0
					c-0.4,0-1.8,0.1-3,0.8c-1.5,0.9-2.3,2.4-2.3,4.7v23c0,5.7,5.7,5.7,6,5.7h0.8v26.4H-491.8z"/>
			</g>
			<g id="XMLID_51_">
				<path id="XMLID_52_" class="st0" d="M-479.9,340.3c-3,0-5.7-1.2-7.8-3.3c-2-2.2-3.1-5-2.9-7.9c0.3-5.4,4.7-9.8,10.1-10.1
					c0.2,0,0.4,0,0.6,0c5.9,0,10.7,4.8,10.7,10.7c0,2.2-0.6,4.2-1.8,6v0.1l0,0c-0.3,0.3-0.6,0.7-0.8,1.1v0.1l0,0
					C-474,339.1-477,340.3-479.9,340.3z M-479.9,320.6c-0.2,0-0.3,0-0.5,0c-4.5,0.2-8.3,4-8.5,8.5c-0.1,2.5,0.7,4.9,2.5,6.7
					c1.7,1.8,4,2.8,6.5,2.8s4.9-1,6.6-2.9c0.3-0.4,0.6-0.8,0.9-1.1c1-1.5,1.5-3.2,1.5-5C-470.9,324.6-475,320.6-479.9,320.6z"/>
			</g>
		</g>
	</g>
	<g id="XMLID_45_">
		<path id="XMLID_46_" class="st0" d="M-448.8,447c-11.6,0-22.9-2.3-33.5-6.8c-10.3-4.3-19.5-10.5-27.4-18.4s-14.1-17.1-18.4-27.4
			c-4.5-10.6-6.8-21.9-6.8-33.5s2.3-22.9,6.8-33.5c4.3-10.3,10.5-19.5,18.4-27.4s17.1-14.1,27.4-18.4c10.6-4.5,21.9-6.8,33.5-6.8
			s22.9,2.3,33.5,6.8c10.2,4.3,19.5,10.5,27.4,18.4s14.1,17.1,18.4,27.4c4.5,10.6,6.8,21.9,6.8,33.5s-2.3,22.9-6.8,33.5
			c-4.3,10.2-10.5,19.5-18.4,27.4s-17.1,14.1-27.4,18.4C-425.9,444.7-437.1,447-448.8,447z M-448.8,276.5c-11.4,0-22.5,2.2-32.9,6.6
			c-10.1,4.3-19.1,10.3-26.8,18.1c-7.7,7.8-13.8,16.8-18.1,26.8c-4.4,10.4-6.6,21.5-6.6,32.9s2.2,22.5,6.6,32.9
			c4.3,10,10.4,19,18.1,26.8c7.8,7.8,16.8,13.8,26.8,18.1c10.4,4.4,21.5,6.6,32.9,6.6s22.5-2.2,32.9-6.6
			c10.1-4.3,19.1-10.3,26.8-18.1c7.8-7.8,13.8-16.8,18.1-26.8c4.4-10.4,6.6-21.5,6.6-32.9s-2.2-22.4-6.6-32.9
			c-4.3-10.1-10.3-19.1-18.1-26.8c-7.8-7.8-16.8-13.8-26.8-18.1C-426.2,278.7-437.4,276.5-448.8,276.5z"/>
	</g>
</g>
</svg>
