<?xml version="1.0" encoding="utf-8"?>
<!-- Generator: Adobe Illustrator 19.0.0, SVG Export Plug-In . SVG Version: 6.00 Build 0)  -->
<svg version="1.1" id="Layer_1" xmlns="http://www.w3.org/2000/svg" xmlns:xlink="http://www.w3.org/1999/xlink" x="0px" y="0px"
	 viewBox="0 0 307.7 295" style="enable-background:new 0 0 307.7 295;" xml:space="preserve">
<style type="text/css">
	.st0{fill:#00AEEF;stroke:#FFFFFF;stroke-width:2;stroke-miterlimit:10;}
	.st1{fill:#FEDD10;stroke:#FFFFFF;stroke-width:2;stroke-miterlimit:10;}
	.st2{fill:#EB2227;stroke:#FFFFFF;stroke-width:2;stroke-miterlimit:10;}
	.st3{fill:#BABD35;stroke:#FFFFFF;stroke-width:2;stroke-miterlimit:10;}
	.st4{fill:#06A14B;stroke:#FFFFFF;stroke-width:2;stroke-miterlimit:10;}
	.st5{fill:#F69321;stroke:#FFFFFF;stroke-width:2;stroke-miterlimit:10;}
	.st6{fill:#F16724;stroke:#FFFFFF;stroke-width:2;stroke-miterlimit:10;}
	.st7{fill:#FFFFFF;}
	.st8{fill:#515AA7;stroke:#FFFFFF;stroke-width:2;stroke-miterlimit:10;}
	.st9{fill:#804097;stroke:#FFFFFF;stroke-width:2;stroke-miterlimit:10;}
	.st10{fill:#231F20;}
</style>
<g id="XMLID_4_">
	<path id="XMLID_426_" class="st0" d="M154.2,169.2L49,107.6c-10.6,18.1-16.7,39.1-16.7,61.6c0,5.6,0.4,11.1,1.1,16.4
		C15.4,191.2,2.3,208,2.3,227.9c0,24.5,19.8,44.3,44.3,44.3c10.9,0,20.8-3.9,28.5-10.4c21.3,18.2,49,29.2,79.2,29.2V169.2z"/>
	<path id="XMLID_425_" class="st1" d="M275,186.1c0.8-5.6,1.2-11.2,1.2-17c0-22.5-6.1-43.5-16.7-61.6l-105.3,61.7V291
		c29.8,0,57.1-10.7,78.3-28.5c7.6,6,17.2,9.6,27.6,9.6c24.5,0,44.3-19.8,44.3-44.3C304.5,208.6,292.2,192.2,275,186.1z"/>
	<g id="XMLID_421_">
		<path id="XMLID_424_" class="st2" d="M197.7,55.8c0.6-2.8,0.8-5.7,0.8-8.6c0-24.5-19.8-44.3-44.3-44.3
			c-24.5,0-44.3,19.8-44.3,44.3c0,2.7,0.2,5.3,0.7,7.9c-26.1,10-47.8,28.6-61.8,52.4l105.3,61.7l105.4-61.6
			C255.7,101.6,234.5,71.1,197.7,55.8z"/>
		<path id="XMLID_423_" class="st2" d="M259.5,107.6L259.5,107.6c0,0,0,0.1,0.1,0.1C259.6,107.6,259.5,107.6,259.5,107.6z"/>
		<path id="XMLID_422_" class="st2" d="M259.6,107.7C260.3,108.9,260.3,108.8,259.6,107.7L259.6,107.7z"/>
	</g>
	<path id="XMLID_420_" class="st3" d="M242.2,169.2c0-15.9-4.2-31.1-12-44.4l-75.9,44.5V257c23.5,0,45.5-9.1,62.1-25.7
		C233,214.7,242.2,192.6,242.2,169.2z"/>
	<path id="XMLID_419_" class="st4" d="M154.3,223c14.4,0,27.9-5.6,38.1-15.8c10.2-10.2,15.8-23.7,15.8-38.1c0-9.7-2.6-19-7.3-27.2
		l-46.5,27.3V223z"/>
	<path id="XMLID_418_" class="st5" d="M107.8,141.9l46.5,27.2l46.5-27.2c-2.3-3.9-5.1-7.6-8.4-10.9c-10.2-10.2-23.7-15.8-38.1-15.8
		c-14.4,0-27.9,5.6-38.1,15.8C112.9,134.4,110.1,138,107.8,141.9z"/>
	<path id="XMLID_417_" class="st6" d="M216.3,107c-16.6-16.6-38.7-25.7-62.1-25.7c-23.5,0-45.5,9.1-62.1,25.7
		c-5.4,5.4-9.9,11.3-13.7,17.7l29.4,17.2c2.3-3.9,5.1-7.5,8.4-10.8c10.2-10.2,23.7-15.8,38.1-15.8c14.4,0,27.9,5.6,38.1,15.8
		c3.3,3.3,6.1,7,8.4,10.9l29.4-17.2C226.3,118.4,221.7,112.4,216.3,107z"/>
	<g id="group_x5F_full_5_">
		<g id="XMLID_409_">
			<path id="XMLID_410_" class="st7" d="M145.9,39.8c0-2.1,0-10.4,0-10.4s0-0.5,0.2-1c-2.2,0-4.4,0-4.4,0s-2.1,0-2.1,2.1v7.3
				c0,2.1,2.1,2.1,2.1,2.1v10.4h6.2v-8.3C148,41.9,145.9,41.9,145.9,39.8z M145.9,27.3c0.5,0,1-0.1,1.5-0.4c0.1,0,0.1-0.1,0.2-0.1
				c0.9-0.6,1.4-1.5,1.4-2.6c0-1.7-1.4-3.1-3.1-3.1c-1.7,0-3.1,1.4-3.1,3.1C142.8,25.9,144.2,27.3,145.9,27.3z M166.7,28.4h-4.4
				c0.2,0.6,0.2,1,0.2,1s0,8.3,0,10.4c0,2.1-2.1,2.1-2.1,2.1v8.3h6.2V39.8c0,0,2.1,0,2.1-2.1c0-2.1,0-7.3,0-7.3
				S168.8,28.4,166.7,28.4z M160.9,26.8c0.1,0,0.1,0.1,0.2,0.1c0.4,0.2,0.9,0.4,1.5,0.4c1.7,0,3.1-1.4,3.1-3.1
				c0-1.7-1.4-3.1-3.1-3.1s-3.1,1.4-3.1,3.1C159.4,25.3,160,26.3,160.9,26.8z M154.2,27.3c1.7,0,3.1-1.4,3.1-3.1
				c0-1.7-1.4-3.1-3.1-3.1c-1.7,0-3.1,1.4-3.1,3.1C151.1,25.9,152.5,27.3,154.2,27.3z M160.5,30.5c0,0,0-2.1-2.1-2.1
				c-0.5,0-8.3,0-8.3,0s-2.1,0-2.1,2.1v7.3c0,2.1,2.1,2.1,2.1,2.1v10.4h8.3V39.8c0,0,2.1,0,2.1-2.1
				C160.5,35.7,160.5,30.5,160.5,30.5z"/>
		</g>
	</g>
	<path id="XMLID_408_" class="st8" d="M154.5,257v-87.8l-75.9-44.5c-7.8,13.3-12,28.5-12,44.4c0,23.5,9.1,45.5,25.7,62.1
		C108.9,247.9,131,257,154.5,257z"/>
	<path id="XMLID_407_" class="st9" d="M154.2,169.2L107.7,142c-4.8,8.2-7.3,17.5-7.3,27.2c0,14.4,5.6,27.9,15.8,38.1
		c10.2,10.2,23.7,15.8,38.1,15.8V169.2z"/>
	<g id="XMLID_371_">
		<path id="XMLID_405_" class="st7" d="M57.1,187c0.2-0.4,0.3-0.9,0.2-1.4c-0.1-0.4-0.2-0.8-0.4-1.1c-0.2-0.3-0.5-0.5-0.8-0.7
			c-0.3-0.2-0.7-0.3-1-0.3c-0.4,0-0.8,0-1.2,0c-0.4,0.1-0.8,0.2-1.2,0.3c-0.4,0.2-0.7,0.4-0.9,0.6c-0.2,0.3-0.4,0.5-0.5,0.9
			c-0.1,0.3-0.1,0.7-0.1,1.2c0.1,0.3,0.2,0.6,0.3,0.8c0.1,0.2,0.3,0.4,0.6,0.6c0.2,0.2,0.5,0.3,0.8,0.3c0.3,0.1,0.6,0.1,0.9,0l0.2,1
			c-1,0.1-1.7-0.1-2.3-0.6c-0.6-0.5-1-1.2-1.2-2.1c-0.1-0.6-0.1-1.1,0-1.6c0.1-0.5,0.3-0.9,0.6-1.2c0.3-0.3,0.7-0.6,1.1-0.8
			c0.4-0.2,0.9-0.4,1.5-0.5c0.5-0.1,1.1-0.1,1.6,0c0.5,0.1,1,0.2,1.4,0.5c0.4,0.2,0.7,0.6,1,1c0.3,0.4,0.5,0.9,0.6,1.5
			c0.1,0.4,0.1,0.8,0,1.1c0,0.4-0.1,0.7-0.3,1c-0.2,0.3-0.4,0.6-0.6,0.8c-0.3,0.2-0.6,0.4-1,0.5l-0.2-1
			C56.6,187.7,56.9,187.4,57.1,187z"/>
		<path id="XMLID_402_" class="st7" d="M55.1,190.1c0.4,0,0.7,0.1,1,0.3c0.3,0.2,0.6,0.4,0.8,0.7c0.2,0.3,0.4,0.6,0.5,1.1
			c0.1,0.4,0.1,0.8,0,1.2c-0.1,0.4-0.2,0.7-0.4,0.9c-0.2,0.3-0.5,0.5-0.8,0.7c-0.3,0.2-0.7,0.3-1.1,0.4c-0.4,0.1-0.8,0.1-1.1,0.1
			c-0.4,0-0.7-0.1-1-0.3c-0.3-0.2-0.6-0.4-0.8-0.7c-0.2-0.3-0.4-0.6-0.5-1.1c-0.1-0.4-0.1-0.8,0-1.2c0.1-0.4,0.2-0.7,0.4-0.9
			c0.2-0.3,0.5-0.5,0.8-0.7s0.7-0.3,1.1-0.4C54.3,190.1,54.7,190.1,55.1,190.1z M53.3,191.5c-0.2,0.1-0.4,0.3-0.5,0.5
			c-0.1,0.2-0.2,0.4-0.3,0.6c0,0.2,0,0.4,0,0.7c0.1,0.2,0.1,0.4,0.3,0.6c0.1,0.2,0.3,0.3,0.5,0.4c0.2,0.1,0.4,0.2,0.7,0.2
			c0.3,0,0.6,0,0.9-0.1c0.3-0.1,0.6-0.2,0.8-0.3c0.2-0.1,0.4-0.3,0.6-0.5c0.1-0.2,0.2-0.4,0.3-0.6c0-0.2,0-0.4,0-0.7
			c-0.1-0.2-0.1-0.4-0.3-0.6c-0.1-0.2-0.3-0.3-0.5-0.4c-0.2-0.1-0.4-0.2-0.7-0.2c-0.3,0-0.6,0-0.9,0.1S53.5,191.3,53.3,191.5z"/>
		<path id="XMLID_400_" class="st7" d="M58.3,196.5l-0.8,0.2l0,0c0.7,0.2,1.2,0.6,1.5,1.4c0.1,0.3,0.1,0.6,0.1,0.9
			c0,0.3-0.1,0.5-0.2,0.7c-0.1,0.2-0.3,0.3-0.5,0.5c-0.2,0.1-0.5,0.2-0.7,0.3l-3.4,1l-0.3-0.9l3.5-1.1c0.3-0.1,0.6-0.3,0.7-0.5
			c0.1-0.2,0.2-0.5,0.1-0.9c-0.1-0.3-0.2-0.5-0.3-0.6c-0.1-0.2-0.3-0.3-0.5-0.4c-0.2-0.1-0.4-0.1-0.6-0.1c-0.2,0-0.4,0-0.7,0.1
			l-3,0.9l-0.3-0.9l5.2-1.6L58.3,196.5z"/>
		<path id="XMLID_398_" class="st7" d="M60.5,203.4l-0.7,0.3l-0.4-1l-3.2,1.1c-0.1,0-0.2,0.1-0.2,0.1c-0.1,0-0.1,0.1-0.1,0.1
			c0,0.1,0,0.1,0,0.2c0,0.1,0.1,0.2,0.1,0.3l0.1,0.4l-0.7,0.3l-0.2-0.6c-0.1-0.2-0.1-0.4-0.2-0.6c0-0.2,0-0.3,0-0.4
			c0-0.1,0.1-0.2,0.3-0.3c0.1-0.1,0.3-0.2,0.6-0.3l3.3-1.1l-0.3-0.9l0.7-0.3l0.3,0.9l1.5-0.5l0.3,0.8l-1.5,0.5L60.5,203.4z"/>
		<path id="XMLID_395_" class="st7" d="M57.5,209.7c-0.4-0.3-0.8-0.7-1-1.3c-0.2-0.4-0.2-0.8-0.2-1.1c0-0.3,0.1-0.7,0.2-1
			c0.2-0.3,0.4-0.6,0.7-0.8c0.3-0.2,0.6-0.4,1-0.6c0.4-0.2,0.8-0.2,1.1-0.2c0.4,0,0.7,0,1,0.2c0.3,0.1,0.6,0.3,0.9,0.5
			c0.2,0.2,0.4,0.5,0.6,0.9c0.2,0.5,0.2,0.9,0.2,1.2c-0.1,0.4-0.2,0.7-0.4,1c-0.2,0.3-0.5,0.5-0.8,0.7c-0.3,0.2-0.6,0.4-0.9,0.5
			l-1.5-3.8c-0.2,0.1-0.4,0.2-0.6,0.3c-0.2,0.1-0.3,0.3-0.4,0.5c-0.1,0.2-0.2,0.4-0.2,0.6c0,0.2,0,0.5,0.1,0.8
			c0.1,0.4,0.3,0.6,0.6,0.8c0.3,0.2,0.6,0.2,0.9,0.1l0.3,0.8C58.5,210.1,58,210,57.5,209.7z M60.7,208.2c0.1-0.1,0.3-0.3,0.3-0.5
			c0.1-0.2,0.1-0.4,0.1-0.6c0-0.2,0-0.4-0.1-0.6c-0.1-0.2-0.2-0.4-0.3-0.5c-0.1-0.1-0.3-0.2-0.5-0.3c-0.2-0.1-0.4-0.1-0.6-0.1
			c-0.2,0-0.4,0-0.6,0.1l1.2,2.9C60.4,208.5,60.6,208.4,60.7,208.2z"/>
		<path id="XMLID_393_" class="st7" d="M63.3,210.2l-0.8,0.4l0,0c0.8,0.1,1.3,0.5,1.7,1.2c0.2,0.3,0.2,0.6,0.2,0.9
			c0,0.3,0,0.5-0.1,0.7c-0.1,0.2-0.2,0.4-0.4,0.5c-0.2,0.2-0.4,0.3-0.7,0.4l-3.2,1.5l-0.4-0.8l3.3-1.6c0.3-0.1,0.5-0.3,0.6-0.6
			c0.1-0.3,0.1-0.5-0.1-0.9c-0.1-0.2-0.3-0.4-0.4-0.6c-0.2-0.1-0.3-0.2-0.5-0.3c-0.2-0.1-0.4-0.1-0.6,0c-0.2,0-0.4,0.1-0.7,0.2
			l-2.8,1.3l-0.4-0.8l4.9-2.3L63.3,210.2z"/>
		<path id="XMLID_391_" class="st7" d="M66.5,216.7l-0.7,0.4l-0.5-1l-3,1.6c-0.1,0-0.2,0.1-0.2,0.1c0,0-0.1,0.1-0.1,0.2
			c0,0.1,0,0.1,0,0.2c0,0.1,0.1,0.2,0.1,0.3l0.2,0.4l-0.7,0.4l-0.3-0.6c-0.1-0.2-0.2-0.4-0.2-0.5c0-0.2-0.1-0.3,0-0.4
			c0-0.1,0.1-0.3,0.2-0.4c0.1-0.1,0.3-0.2,0.5-0.3l3.1-1.6l-0.4-0.8l0.7-0.4l0.4,0.8l1.4-0.8l0.4,0.8l-1.4,0.8L66.5,216.7z"/>
		<path id="XMLID_389_" class="st7" d="M71.4,222.8c0-0.4-0.1-0.8-0.4-1.3c-0.1-0.2-0.2-0.3-0.4-0.5c-0.1-0.2-0.3-0.3-0.5-0.3
			c-0.2-0.1-0.3-0.1-0.5-0.1c-0.2,0-0.4,0.1-0.6,0.2c-0.2,0.1-0.3,0.3-0.4,0.5c0,0.2-0.1,0.4,0,0.7c0,0.2,0.1,0.5,0.2,0.8
			c0.1,0.3,0.2,0.6,0.3,0.8c0.1,0.3,0.2,0.6,0.3,0.9c0.1,0.3,0.1,0.6,0.1,0.9c0,0.3-0.1,0.5-0.2,0.8c-0.1,0.2-0.4,0.5-0.7,0.7
			c-0.3,0.2-0.7,0.3-1,0.3c-0.3,0-0.7-0.1-1-0.2c-0.3-0.1-0.6-0.3-0.8-0.6c-0.3-0.3-0.5-0.5-0.7-0.8c-0.2-0.4-0.4-0.7-0.5-1.1
			c-0.1-0.4-0.2-0.7-0.1-1.1c0-0.4,0.1-0.7,0.3-1c0.2-0.3,0.5-0.6,0.9-0.8l0.5,0.8c-0.3,0.2-0.5,0.4-0.6,0.6
			c-0.1,0.2-0.2,0.5-0.2,0.7c0,0.2,0,0.5,0.1,0.8c0.1,0.3,0.2,0.5,0.3,0.8c0.1,0.2,0.3,0.4,0.4,0.5c0.2,0.2,0.3,0.3,0.5,0.4
			c0.2,0.1,0.4,0.2,0.6,0.2c0.2,0,0.4-0.1,0.7-0.2c0.2-0.1,0.4-0.3,0.4-0.5c0.1-0.2,0.1-0.4,0-0.7c0-0.2-0.1-0.5-0.2-0.8
			c-0.1-0.3-0.2-0.6-0.3-0.8c-0.1-0.3-0.2-0.6-0.3-0.9c-0.1-0.3-0.1-0.6-0.1-0.8c0-0.3,0.1-0.5,0.2-0.8c0.1-0.2,0.3-0.5,0.6-0.6
			c0.3-0.2,0.6-0.3,1-0.3c0.3,0,0.6,0,0.9,0.2c0.3,0.1,0.6,0.3,0.8,0.5c0.2,0.2,0.5,0.5,0.7,0.8c0.2,0.3,0.4,0.7,0.5,1
			c0.1,0.3,0.1,0.7,0.1,1c0,0.3-0.1,0.6-0.3,0.9c-0.2,0.3-0.4,0.5-0.8,0.8l-0.5-0.8C71.1,223.6,71.3,223.2,71.4,222.8z"/>
		<path id="XMLID_387_" class="st7" d="M73.4,227.6l-0.6,0.5l-0.6-0.9l-2.8,1.9c-0.1,0.1-0.2,0.1-0.2,0.2c0,0.1-0.1,0.1-0.1,0.2
			c0,0.1,0,0.1,0.1,0.2c0,0.1,0.1,0.2,0.2,0.3l0.2,0.3l-0.6,0.5l-0.4-0.6c-0.1-0.2-0.2-0.4-0.3-0.5c-0.1-0.2-0.1-0.3-0.1-0.4
			c0-0.1,0.1-0.3,0.2-0.4c0.1-0.1,0.3-0.3,0.5-0.4l2.8-2l-0.5-0.8l0.6-0.5l0.5,0.8l1.3-0.9l0.5,0.7l-1.3,0.9L73.4,227.6z"/>
		<path id="XMLID_385_" class="st7" d="M74.4,229l-0.9,0.7l0,0c0.5-0.1,0.9-0.1,1.3,0c0.4,0.1,0.7,0.4,1,0.8l-0.8,0.6
			c-0.2-0.3-0.4-0.5-0.7-0.6c-0.2-0.1-0.5-0.2-0.7-0.2c-0.2,0-0.5,0-0.8,0.1c-0.3,0.1-0.5,0.3-0.8,0.5l-1.9,1.5l-0.5-0.7l4.4-3.3
			L74.4,229z"/>
		<path id="XMLID_382_" class="st7" d="M74.9,238.3c-0.2-0.1-0.3-0.2-0.5-0.4c-0.1-0.2-0.2-0.4-0.2-0.5c0-0.2,0.1-0.4,0.4-0.6
			c-0.4,0-0.7-0.1-1-0.3c-0.3-0.2-0.6-0.4-0.8-0.7c-0.2-0.2-0.3-0.4-0.4-0.6c-0.1-0.2-0.2-0.4-0.2-0.6c0-0.2,0-0.4,0.1-0.6
			c0.1-0.2,0.2-0.4,0.5-0.6c0.2-0.2,0.5-0.3,0.7-0.4c0.2,0,0.4,0,0.6,0c0.2,0.1,0.4,0.1,0.6,0.3c0.2,0.1,0.4,0.3,0.6,0.4
			c0.2,0.2,0.4,0.3,0.5,0.5c0.2,0.2,0.3,0.3,0.5,0.4c0.1,0.1,0.3,0.2,0.4,0.2c0.1,0,0.3,0,0.4-0.1c0.2-0.1,0.2-0.3,0.3-0.4
			c0-0.1,0.1-0.3,0-0.4c0-0.1-0.1-0.3-0.2-0.4c-0.1-0.1-0.2-0.2-0.2-0.3c-0.2-0.3-0.5-0.5-0.8-0.6c-0.3-0.1-0.6,0-0.9,0.2l-0.6-0.7
			c0.3-0.2,0.5-0.3,0.8-0.4c0.3,0,0.5,0,0.8,0c0.2,0.1,0.5,0.2,0.7,0.4c0.2,0.2,0.4,0.4,0.6,0.6c0.2,0.2,0.3,0.4,0.4,0.6
			c0.1,0.2,0.2,0.4,0.3,0.6c0,0.2,0,0.4-0.1,0.7c-0.1,0.2-0.2,0.4-0.5,0.6l-2.2,1.8c-0.2,0.1-0.3,0.2-0.3,0.3c-0.1,0.1,0,0.2,0,0.3
			c0,0.1,0.1,0.1,0.2,0.2L74.9,238.3z M76.1,235.4c-0.1,0-0.3-0.1-0.4-0.2c-0.1-0.1-0.3-0.2-0.4-0.4c-0.1-0.1-0.3-0.3-0.5-0.4
			c-0.2-0.1-0.3-0.2-0.5-0.3c-0.2-0.1-0.3-0.1-0.5-0.1c-0.2,0-0.3,0.1-0.5,0.2c-0.1,0.1-0.2,0.2-0.2,0.3c0,0.1-0.1,0.2,0,0.3
			c0,0.1,0,0.2,0.1,0.3c0.1,0.1,0.1,0.2,0.2,0.3c0.2,0.2,0.4,0.4,0.6,0.5c0.2,0.1,0.4,0.2,0.6,0.2c0.2,0,0.3,0,0.5,0
			c0.1,0,0.3-0.1,0.4-0.2L76.1,235.4z"/>
		<path id="XMLID_380_" class="st7" d="M81.2,237.1l-0.6,0.5l-0.7-0.8l-2.5,2.3c-0.1,0.1-0.1,0.1-0.2,0.2c0,0.1,0,0.1,0,0.2
			c0,0.1,0,0.1,0.1,0.2c0.1,0.1,0.1,0.2,0.2,0.3l0.3,0.3l-0.6,0.5l-0.5-0.5c-0.2-0.2-0.3-0.3-0.4-0.5c-0.1-0.1-0.1-0.3-0.1-0.4
			c0-0.1,0-0.3,0.1-0.4c0.1-0.1,0.2-0.3,0.4-0.5l2.6-2.3l-0.6-0.7l0.6-0.5l0.6,0.7l1.2-1.1l0.6,0.7l-1.2,1.1L81.2,237.1z"/>
		<path id="XMLID_377_" class="st7" d="M80.9,244.1c-0.5-0.1-1-0.3-1.4-0.8c-0.3-0.3-0.5-0.6-0.6-1c-0.1-0.3-0.2-0.7-0.1-1
			c0-0.3,0.1-0.7,0.3-1c0.2-0.3,0.4-0.6,0.7-0.9c0.3-0.3,0.6-0.5,0.9-0.7c0.3-0.2,0.7-0.2,1-0.3c0.3,0,0.7,0,1,0.2
			c0.3,0.1,0.6,0.3,0.9,0.6c0.3,0.3,0.6,0.7,0.6,1.1c0.1,0.4,0.1,0.7,0,1.1c-0.1,0.4-0.2,0.7-0.4,1c-0.2,0.3-0.4,0.6-0.7,0.8
			l-2.9-2.9c-0.2,0.2-0.3,0.3-0.4,0.5c-0.1,0.2-0.2,0.4-0.2,0.6c0,0.2,0,0.4,0.1,0.7c0.1,0.2,0.2,0.4,0.4,0.7
			c0.3,0.3,0.5,0.4,0.8,0.5c0.3,0,0.6,0,0.9-0.2l0.6,0.6C81.9,244.1,81.4,244.2,80.9,244.1z M83.2,241.5c0.1-0.2,0.1-0.4,0.1-0.6
			c0-0.2,0-0.4-0.1-0.6c-0.1-0.2-0.2-0.4-0.3-0.5c-0.2-0.2-0.3-0.3-0.5-0.4c-0.2-0.1-0.4-0.1-0.6-0.1c-0.2,0-0.4,0-0.6,0.1
			c-0.2,0.1-0.4,0.2-0.5,0.3l2.2,2.2C83,241.9,83.1,241.7,83.2,241.5z"/>
		<path id="XMLID_374_" class="st7" d="M84.1,249.7c-0.6,0.1-1.2-0.2-1.9-0.8c-0.2-0.2-0.4-0.4-0.5-0.6c-0.2-0.2-0.3-0.4-0.3-0.7
			c-0.1-0.2-0.1-0.5-0.1-0.7c0-0.2,0.1-0.5,0.3-0.7l0.7,0.6c-0.1,0.1-0.2,0.3-0.2,0.4c0,0.1,0,0.3,0.1,0.4c0.1,0.1,0.1,0.3,0.2,0.4
			c0.1,0.1,0.2,0.2,0.3,0.3c0.2,0.2,0.4,0.3,0.7,0.4c0.2,0.1,0.4,0.1,0.7,0c0.2,0,0.4-0.1,0.7-0.3c0.2-0.1,0.4-0.3,0.6-0.6l0.2-0.3
			l0,0c-0.3,0.1-0.7,0.2-1,0.1c-0.3-0.1-0.6-0.3-0.9-0.5c-0.3-0.3-0.5-0.6-0.6-0.9c-0.1-0.3-0.2-0.6-0.2-1c0-0.3,0.1-0.6,0.2-1
			c0.1-0.3,0.3-0.6,0.6-0.9c0.2-0.2,0.5-0.5,0.8-0.7c0.3-0.2,0.6-0.3,0.9-0.4c0.3-0.1,0.7-0.1,1,0c0.4,0.1,0.7,0.3,1.1,0.6
			c0.3,0.2,0.4,0.5,0.6,0.8c0.1,0.3,0.1,0.6,0,1l0,0l0.5-0.6l0.6,0.6l-3.3,3.7C85.3,249.2,84.7,249.6,84.1,249.7z M84.9,247.1
			c0.2,0,0.5,0,0.7,0c0.2-0.1,0.4-0.2,0.7-0.3c0.2-0.1,0.4-0.3,0.6-0.5c0.2-0.2,0.3-0.4,0.4-0.6c0.1-0.2,0.2-0.4,0.2-0.6
			c0-0.2,0-0.4-0.1-0.7c-0.1-0.2-0.2-0.4-0.4-0.6c-0.2-0.2-0.4-0.3-0.7-0.4c-0.2-0.1-0.4-0.1-0.7,0c-0.2,0-0.4,0.1-0.6,0.3
			c-0.2,0.1-0.4,0.3-0.6,0.5c-0.2,0.2-0.3,0.4-0.4,0.6c-0.1,0.2-0.2,0.4-0.3,0.7c0,0.2,0,0.5,0,0.7c0.1,0.2,0.2,0.4,0.4,0.6
			C84.4,246.9,84.6,247,84.9,247.1z"/>
		<path id="XMLID_372_" class="st7" d="M88,251.8c-0.2,0.1-0.5,0.3-0.7,0.3c-0.2,0.1-0.4,0.1-0.5,0.1c-0.2,0-0.3,0-0.5-0.1
			c-0.2-0.1-0.3-0.1-0.5-0.3c-0.1-0.1-0.2-0.1-0.2-0.2c-0.1-0.1-0.1-0.2-0.2-0.2l0.5-0.6c0,0.1,0.1,0.2,0.2,0.2
			c0.1,0.1,0.1,0.1,0.2,0.2c0.1,0.1,0.3,0.2,0.4,0.2c0.2,0,0.3,0,0.5-0.1l0.9-0.5l1.7-5.6l0.8,0.6l-1.6,4.5l0,0l4-2.5l0.7,0.6
			L88,251.8z"/>
	</g>
	<g id="XMLID_326_">
		<path id="XMLID_369_" class="st7" d="M209.3,251l-0.5-0.7l4.9-3.5l0.5,0.7l-2,1.5l3.9,5.4l-0.8,0.6l-3.9-5.4L209.3,251z"/>
		<path id="XMLID_367_" class="st7" d="M215.2,248.1l0.7,0.9l0,0c-0.1-0.5-0.1-0.9,0-1.3c0.1-0.4,0.4-0.7,0.8-1l0.6,0.8
			c-0.3,0.2-0.5,0.4-0.6,0.7c-0.1,0.2-0.2,0.5-0.2,0.7c0,0.2,0,0.5,0.2,0.8c0.1,0.3,0.3,0.5,0.5,0.8l1.5,1.9l-0.7,0.6l-3.4-4.3
			L215.2,248.1z"/>
		<path id="XMLID_364_" class="st7" d="M224.5,247.5c-0.1,0.2-0.2,0.3-0.4,0.5c-0.2,0.1-0.4,0.2-0.5,0.2c-0.2,0-0.4-0.1-0.6-0.4
			c0,0.4-0.1,0.7-0.2,1c-0.2,0.3-0.4,0.6-0.7,0.8c-0.2,0.2-0.4,0.3-0.6,0.4c-0.2,0.1-0.4,0.2-0.6,0.2c-0.2,0-0.4,0-0.6-0.1
			c-0.2-0.1-0.4-0.2-0.6-0.4c-0.2-0.2-0.3-0.5-0.4-0.7c0-0.2,0-0.4,0-0.6c0.1-0.2,0.1-0.4,0.3-0.6c0.1-0.2,0.3-0.4,0.4-0.6
			c0.2-0.2,0.3-0.4,0.5-0.5c0.2-0.2,0.3-0.3,0.4-0.5c0.1-0.1,0.2-0.3,0.2-0.4c0-0.1,0-0.3-0.1-0.4c-0.1-0.2-0.3-0.2-0.4-0.3
			c-0.1,0-0.3-0.1-0.4,0c-0.1,0-0.3,0.1-0.4,0.2c-0.1,0.1-0.2,0.2-0.3,0.3c-0.3,0.2-0.5,0.5-0.6,0.8c-0.1,0.3,0,0.6,0.2,0.9
			l-0.7,0.6c-0.2-0.3-0.3-0.5-0.4-0.8c-0.1-0.3,0-0.5,0-0.8c0.1-0.2,0.2-0.5,0.3-0.7c0.2-0.2,0.4-0.4,0.6-0.6
			c0.2-0.2,0.4-0.3,0.6-0.4c0.2-0.1,0.4-0.2,0.6-0.3c0.2,0,0.4,0,0.7,0c0.2,0.1,0.4,0.2,0.6,0.5l1.8,2.1c0.1,0.2,0.2,0.3,0.3,0.3
			c0.1,0.1,0.2,0,0.3,0c0.1,0,0.1-0.1,0.2-0.2L224.5,247.5z M221.6,246.3c0,0.1-0.1,0.3-0.2,0.4c-0.1,0.1-0.2,0.3-0.4,0.4
			c-0.1,0.2-0.3,0.3-0.4,0.5c-0.1,0.2-0.2,0.3-0.3,0.5c-0.1,0.2-0.1,0.3-0.1,0.5c0,0.2,0.1,0.3,0.2,0.5c0.1,0.1,0.2,0.2,0.3,0.2
			c0.1,0,0.2,0,0.3,0c0.1,0,0.2-0.1,0.3-0.1c0.1-0.1,0.2-0.1,0.3-0.2c0.2-0.2,0.4-0.4,0.5-0.6c0.1-0.2,0.2-0.4,0.2-0.6
			c0-0.2,0-0.3,0-0.5c0-0.2-0.1-0.3-0.2-0.4L221.6,246.3z"/>
		<path id="XMLID_361_" class="st7" d="M220.9,242.1l-0.7-0.8l0.7-0.6l0.7,0.8L220.9,242.1z M222.2,242.2l3.7,4l-0.7,0.6l-3.7-4
			L222.2,242.2z"/>
		<path id="XMLID_359_" class="st7" d="M223.8,240.7l0.6,0.6l0,0c-0.2-0.7,0-1.4,0.6-2c0.3-0.3,0.5-0.4,0.7-0.5
			c0.2-0.1,0.5-0.1,0.7-0.1c0.2,0,0.5,0.1,0.7,0.2c0.2,0.1,0.4,0.3,0.6,0.5l2.5,2.5l-0.6,0.6L227,240c-0.2-0.2-0.5-0.4-0.8-0.4
			c-0.3,0-0.5,0.1-0.8,0.4c-0.2,0.2-0.3,0.4-0.4,0.6c-0.1,0.2-0.1,0.4-0.1,0.6c0,0.2,0.1,0.4,0.2,0.6c0.1,0.2,0.2,0.4,0.4,0.6
			l2.2,2.2l-0.6,0.6l-3.9-3.9L223.8,240.7z"/>
		<path id="XMLID_356_" class="st7" d="M226.6,236.5l-0.8-0.7l0.6-0.7l0.8,0.7L226.6,236.5z M227.9,236.5l4,3.7l-0.6,0.7l-4-3.7
			L227.9,236.5z"/>
		<path id="XMLID_354_" class="st7" d="M229.3,234.9l0.7,0.6l0,0c-0.3-0.7-0.1-1.4,0.4-2c0.2-0.3,0.5-0.5,0.7-0.6
			c0.2-0.1,0.5-0.2,0.7-0.2c0.2,0,0.5,0.1,0.7,0.2c0.2,0.1,0.4,0.3,0.7,0.5l2.7,2.3l-0.6,0.7l-2.8-2.4c-0.3-0.2-0.5-0.3-0.8-0.3
			c-0.3,0-0.5,0.2-0.8,0.4c-0.2,0.2-0.3,0.4-0.4,0.6c-0.1,0.2-0.1,0.4-0.1,0.6c0,0.2,0.1,0.4,0.2,0.6c0.1,0.2,0.3,0.4,0.5,0.5l2.3,2
			l-0.6,0.7l-4.2-3.5L229.3,234.9z"/>
		<path id="XMLID_351_" class="st7" d="M240.6,232c0.1,0.6-0.1,1.2-0.6,1.9c-0.2,0.2-0.3,0.4-0.5,0.6c-0.2,0.2-0.4,0.3-0.7,0.4
			c-0.2,0.1-0.5,0.1-0.7,0.1c-0.2,0-0.5-0.1-0.7-0.3l0.5-0.7c0.1,0.1,0.3,0.1,0.4,0.1c0.1,0,0.3,0,0.4-0.1c0.1-0.1,0.3-0.2,0.4-0.3
			c0.1-0.1,0.2-0.2,0.3-0.3c0.2-0.2,0.3-0.5,0.3-0.7c0-0.2,0-0.4,0-0.7c-0.1-0.2-0.2-0.4-0.3-0.6c-0.2-0.2-0.4-0.4-0.6-0.6l-0.3-0.2
			l0,0c0.2,0.3,0.2,0.7,0.2,1c-0.1,0.3-0.2,0.7-0.4,0.9c-0.2,0.3-0.5,0.6-0.8,0.7c-0.3,0.2-0.6,0.2-0.9,0.2c-0.3,0-0.6,0-1-0.2
			c-0.3-0.1-0.6-0.3-0.9-0.5c-0.3-0.2-0.5-0.4-0.7-0.7c-0.2-0.3-0.4-0.6-0.5-0.9c-0.1-0.3-0.1-0.7-0.1-1c0.1-0.4,0.2-0.7,0.5-1.1
			c0.2-0.3,0.5-0.5,0.8-0.6c0.3-0.1,0.6-0.2,1-0.1l0,0l-0.6-0.5l0.5-0.7l4,3C240,230.9,240.4,231.4,240.6,232z M237.9,231.5
			c0-0.2,0-0.5-0.1-0.7c-0.1-0.2-0.2-0.4-0.4-0.6c-0.2-0.2-0.3-0.4-0.6-0.5c-0.2-0.1-0.4-0.3-0.6-0.4c-0.2-0.1-0.4-0.1-0.7-0.2
			c-0.2,0-0.4,0-0.6,0.1c-0.2,0.1-0.4,0.2-0.6,0.5c-0.2,0.2-0.3,0.5-0.3,0.7c0,0.2,0,0.5,0,0.7c0.1,0.2,0.2,0.4,0.3,0.6
			c0.2,0.2,0.3,0.4,0.5,0.5c0.2,0.1,0.4,0.3,0.6,0.4c0.2,0.1,0.5,0.2,0.7,0.2c0.2,0,0.5,0,0.7-0.1c0.2-0.1,0.4-0.2,0.6-0.5
			C237.8,231.9,237.9,231.7,237.9,231.5z"/>
		<path id="XMLID_347_" class="st7" d="M243.9,224c-0.1,0.4-0.2,0.8-0.4,1.2c-0.3,0.4-0.5,0.7-0.8,0.9c-0.3,0.2-0.6,0.3-0.9,0.3
			c-0.3,0-0.5,0-0.7-0.1c-0.2-0.1-0.4-0.2-0.5-0.2c-0.2-0.2-0.4-0.3-0.6-0.5c-0.1-0.2-0.2-0.4-0.3-0.6c-0.1-0.2-0.1-0.5-0.1-0.7
			c0-0.3,0-0.5,0-0.8c-0.2,0-0.4,0-0.5,0c-0.2,0-0.3,0-0.5,0c-0.2,0-0.3,0-0.5-0.1c-0.2,0-0.3-0.1-0.5-0.2c-0.2-0.1-0.3-0.2-0.4-0.4
			c-0.1-0.2-0.2-0.3-0.3-0.5c0-0.2-0.1-0.4,0-0.6c0-0.2,0.1-0.5,0.3-0.7c0.1-0.2,0.3-0.4,0.4-0.5c0.2-0.2,0.4-0.3,0.6-0.3
			c0.2-0.1,0.4-0.1,0.6-0.1c0.2,0,0.4,0.1,0.7,0.2c0.2,0.1,0.3,0.3,0.5,0.4c0.1,0.2,0.2,0.4,0.3,0.6c0.1,0.2,0.1,0.4,0.1,0.6
			c0,0.2,0,0.4,0,0.6l2.1-0.3c-0.3-0.3-0.5-0.6-0.9-0.8l0.4-0.7c0.2,0.1,0.3,0.3,0.5,0.4c0.1,0.1,0.2,0.2,0.3,0.3
			c0.1,0.1,0.2,0.2,0.3,0.3c0.1,0.1,0.2,0.3,0.3,0.4l2.2-0.4l-0.6,1l-1.2,0.2C243.9,223.1,244,223.5,243.9,224z M239.5,222
			c0-0.1,0-0.3-0.1-0.4c0-0.1-0.1-0.3-0.2-0.4c-0.1-0.1-0.2-0.2-0.3-0.3c-0.2-0.1-0.4-0.1-0.6-0.1c-0.2,0-0.4,0.2-0.5,0.4
			c-0.1,0.2-0.2,0.4-0.1,0.6c0,0.2,0.1,0.4,0.4,0.6c0.1,0.1,0.2,0.1,0.3,0.1c0.1,0,0.2,0,0.4,0c0.1,0,0.3,0,0.4,0c0.1,0,0.3,0,0.4,0
			C239.6,222.3,239.5,222.2,239.5,222z M240.2,223.8c0,0.2,0,0.4,0.1,0.5c0,0.2,0.1,0.3,0.2,0.5c0.1,0.1,0.2,0.3,0.4,0.4
			c0.2,0.1,0.3,0.2,0.5,0.2c0.2,0,0.3,0,0.5-0.1c0.2-0.1,0.3-0.1,0.5-0.3c0.1-0.1,0.3-0.2,0.4-0.4c0.2-0.3,0.3-0.6,0.3-0.9
			c0-0.3-0.1-0.6-0.2-0.9l-2.7,0.4C240.2,223.4,240.2,223.6,240.2,223.8z"/>
		<path id="XMLID_345_" class="st7" d="M243.6,211.2c-0.4,0.2-0.7,0.6-1,1.1c-0.2,0.4-0.3,0.8-0.3,1.2c0,0.4,0.1,0.7,0.3,1
			c0.2,0.3,0.4,0.6,0.7,0.8c0.3,0.2,0.6,0.5,1,0.6c0.4,0.2,0.8,0.3,1.2,0.4c0.4,0.1,0.8,0.1,1.1,0c0.3-0.1,0.7-0.2,1-0.4
			c0.3-0.2,0.5-0.5,0.7-0.9c0.1-0.3,0.2-0.6,0.2-0.9c0-0.3,0-0.5-0.1-0.8c-0.1-0.3-0.2-0.5-0.4-0.7c-0.2-0.2-0.4-0.4-0.7-0.6
			l0.4-0.9c0.8,0.5,1.3,1.1,1.6,1.9c0.2,0.7,0.1,1.5-0.3,2.4c-0.3,0.5-0.6,0.9-0.9,1.2c-0.4,0.3-0.8,0.5-1.2,0.6
			c-0.4,0.1-0.9,0.1-1.4,0c-0.5-0.1-1-0.2-1.5-0.5c-0.5-0.2-0.9-0.5-1.3-0.9c-0.4-0.3-0.6-0.7-0.8-1.2c-0.2-0.4-0.3-0.9-0.3-1.4
			c0-0.5,0.1-1,0.4-1.5c0.2-0.4,0.4-0.7,0.6-0.9c0.2-0.3,0.5-0.5,0.8-0.6c0.3-0.2,0.6-0.2,1-0.3c0.4,0,0.7,0,1.1,0.1L245,211
			C244.5,210.9,244,210.9,243.6,211.2z"/>
		<path id="XMLID_342_" class="st7" d="M247.2,209.8c-0.3-0.2-0.5-0.5-0.6-0.8c-0.2-0.3-0.2-0.6-0.2-1c0-0.4,0.1-0.7,0.2-1.1
			c0.2-0.4,0.4-0.7,0.6-1c0.3-0.2,0.6-0.4,0.9-0.5c0.3-0.1,0.7-0.2,1-0.1c0.4,0,0.7,0.1,1.1,0.3c0.4,0.2,0.7,0.3,1,0.6
			c0.3,0.2,0.5,0.5,0.6,0.8c0.2,0.3,0.2,0.6,0.2,1c0,0.4-0.1,0.7-0.2,1.1c-0.2,0.4-0.4,0.7-0.6,1c-0.3,0.3-0.5,0.4-0.9,0.5
			c-0.3,0.1-0.7,0.2-1,0.1c-0.4,0-0.7-0.1-1.1-0.3C247.8,210.2,247.4,210,247.2,209.8z M249.4,209.7c0.3,0,0.5,0,0.7-0.1
			c0.2-0.1,0.4-0.2,0.6-0.4c0.2-0.2,0.3-0.3,0.4-0.6c0.1-0.2,0.1-0.4,0.1-0.7c0-0.2-0.1-0.4-0.2-0.7c-0.1-0.2-0.3-0.4-0.5-0.6
			c-0.2-0.2-0.5-0.3-0.8-0.5c-0.3-0.1-0.6-0.2-0.9-0.2c-0.3,0-0.5,0-0.7,0.1c-0.2,0.1-0.4,0.2-0.6,0.4c-0.2,0.2-0.3,0.3-0.4,0.6
			c-0.1,0.2-0.1,0.4-0.1,0.7c0,0.2,0.1,0.4,0.2,0.7c0.1,0.2,0.3,0.4,0.5,0.6c0.2,0.2,0.5,0.3,0.8,0.5
			C248.8,209.6,249.1,209.7,249.4,209.7z"/>
		<path id="XMLID_339_" class="st7" d="M254.6,200.7c0,0.2,0,0.4-0.1,0.7c-0.1,0.2-0.2,0.4-0.4,0.5c-0.2,0.1-0.4,0.1-0.7,0
			c0.2,0.3,0.3,0.7,0.3,1c0,0.4,0,0.7-0.2,1.1c-0.1,0.2-0.2,0.4-0.3,0.6c-0.1,0.2-0.3,0.3-0.4,0.5c-0.2,0.1-0.4,0.2-0.6,0.2
			c-0.2,0-0.4,0-0.7-0.1c-0.3-0.1-0.5-0.2-0.7-0.4c-0.2-0.2-0.3-0.3-0.3-0.5c-0.1-0.2-0.1-0.4-0.1-0.7c0-0.2,0-0.5,0.1-0.7
			c0-0.2,0.1-0.5,0.1-0.7c0-0.2,0.1-0.4,0.1-0.6c0-0.2,0-0.3-0.1-0.4c-0.1-0.1-0.2-0.2-0.3-0.3c-0.2-0.1-0.3-0.1-0.5,0
			c-0.1,0-0.3,0.1-0.4,0.2c-0.1,0.1-0.2,0.2-0.2,0.3c-0.1,0.1-0.1,0.3-0.2,0.4c-0.1,0.4-0.2,0.7-0.1,1c0.1,0.3,0.3,0.5,0.6,0.7
			l-0.3,0.8c-0.3-0.1-0.6-0.3-0.7-0.5c-0.2-0.2-0.3-0.4-0.4-0.7c-0.1-0.2-0.1-0.5-0.1-0.8c0-0.3,0.1-0.6,0.2-0.9
			c0.1-0.2,0.2-0.5,0.3-0.7c0.1-0.2,0.3-0.4,0.4-0.6c0.2-0.2,0.4-0.3,0.6-0.3c0.2,0,0.5,0,0.8,0.1l2.7,0.9c0.2,0.1,0.3,0.1,0.5,0.1
			c0.1,0,0.2-0.1,0.2-0.2c0-0.1,0-0.2,0-0.3L254.6,200.7z M251.5,201.2c0,0.1,0.1,0.3,0,0.5c0,0.2-0.1,0.4-0.1,0.6
			c0,0.2-0.1,0.4-0.1,0.6c0,0.2,0,0.4,0,0.6c0,0.2,0.1,0.3,0.2,0.5c0.1,0.1,0.2,0.2,0.5,0.3c0.1,0,0.3,0.1,0.4,0
			c0.1,0,0.2-0.1,0.3-0.1c0.1-0.1,0.2-0.2,0.2-0.3c0.1-0.1,0.1-0.2,0.2-0.4c0.1-0.3,0.1-0.5,0.1-0.8c0-0.2,0-0.4-0.1-0.6
			c-0.1-0.2-0.2-0.3-0.3-0.4c-0.1-0.1-0.2-0.2-0.4-0.2L251.5,201.2z"/>
		<path id="XMLID_337_" class="st7" d="M251.5,195.3c-0.2,0.2-0.4,0.4-0.5,0.8c-0.1,0.3-0.1,0.6,0,0.8c0.1,0.2,0.2,0.5,0.3,0.6
			c0.2,0.2,0.3,0.3,0.6,0.5c0.2,0.1,0.5,0.2,0.7,0.3c0.2,0.1,0.5,0.1,0.7,0.1c0.2,0,0.5,0,0.7-0.1c0.2-0.1,0.4-0.2,0.6-0.4
			c0.2-0.2,0.3-0.4,0.4-0.7c0.1-0.4,0.1-0.8-0.1-1.1c-0.2-0.3-0.4-0.5-0.8-0.7l0.2-0.9c0.6,0.3,1.1,0.7,1.3,1.1
			c0.2,0.5,0.3,1.1,0.1,1.7c-0.1,0.4-0.3,0.7-0.5,1c-0.2,0.3-0.5,0.5-0.8,0.6c-0.3,0.1-0.6,0.2-1,0.2c-0.4,0-0.7,0-1.1-0.1
			c-0.4-0.1-0.7-0.3-1.1-0.5c-0.3-0.2-0.6-0.4-0.8-0.7c-0.2-0.3-0.3-0.6-0.4-0.9c-0.1-0.4,0-0.7,0.1-1.1c0.1-0.3,0.2-0.6,0.3-0.8
			c0.1-0.2,0.3-0.4,0.5-0.6c0.2-0.2,0.4-0.3,0.7-0.3c0.3-0.1,0.6-0.1,0.9,0l-0.3,0.9C252,195.1,251.7,195.2,251.5,195.3z"/>
		<path id="XMLID_335_" class="st7" d="M249.3,191.5l2.8,0.6l0,0c-0.1-0.1-0.3-0.2-0.4-0.4c-0.1-0.2-0.1-0.3-0.2-0.5
			c0-0.2-0.1-0.3-0.1-0.5c0-0.2,0-0.3,0.1-0.5c0.1-0.4,0.2-0.6,0.3-0.8c0.1-0.2,0.3-0.4,0.5-0.5c0.2-0.1,0.4-0.2,0.7-0.2
			c0.2,0,0.5,0,0.8,0.1l3.5,0.8l-0.2,0.9l-3.6-0.8c-0.3-0.1-0.6,0-0.8,0.1c-0.2,0.2-0.4,0.4-0.5,0.7c-0.1,0.3-0.1,0.5,0,0.7
			c0,0.2,0.1,0.4,0.2,0.6c0.1,0.2,0.3,0.3,0.5,0.4c0.2,0.1,0.4,0.2,0.6,0.2l3,0.7l-0.2,0.9l-7.4-1.6L249.3,191.5z"/>
		<path id="XMLID_332_" class="st7" d="M251.4,187l-1.1-0.2l0.2-0.9l1.1,0.2L251.4,187z M252.5,186.2l5.4,0.9l-0.2,0.9l-5.4-0.9
			L252.5,186.2z"/>
		<path id="XMLID_330_" class="st7" d="M252.9,184.1l0.9,0.1l0,0c-0.6-0.5-0.9-1.1-0.7-1.9c0-0.4,0.1-0.6,0.3-0.9
			c0.1-0.2,0.3-0.4,0.5-0.5c0.2-0.1,0.4-0.2,0.7-0.2c0.2,0,0.5,0,0.8,0l3.6,0.5l-0.1,0.9l-3.7-0.5c-0.3,0-0.6,0-0.8,0.2
			c-0.2,0.2-0.4,0.4-0.4,0.8c0,0.3,0,0.5,0,0.7c0.1,0.2,0.2,0.4,0.3,0.5c0.1,0.2,0.3,0.3,0.5,0.4c0.2,0.1,0.4,0.2,0.7,0.2l3.1,0.4
			l-0.1,0.9l-5.4-0.7L252.9,184.1z"/>
		<path id="XMLID_327_" class="st7" d="M260.8,175.7c0.4,0.4,0.6,1.1,0.5,2c0,0.3-0.1,0.5-0.1,0.8c-0.1,0.3-0.2,0.5-0.3,0.7
			c-0.1,0.2-0.3,0.4-0.5,0.5c-0.2,0.1-0.5,0.2-0.8,0.2l0.1-0.9c0.2,0,0.3,0,0.4-0.1c0.1-0.1,0.2-0.2,0.3-0.3
			c0.1-0.1,0.1-0.3,0.2-0.4c0-0.2,0.1-0.3,0.1-0.5c0-0.3,0-0.5-0.1-0.8c-0.1-0.2-0.2-0.4-0.4-0.5c-0.2-0.1-0.4-0.3-0.6-0.3
			c-0.2-0.1-0.5-0.1-0.8-0.2l-0.4,0l0,0c0.3,0.2,0.6,0.4,0.7,0.8c0.1,0.3,0.2,0.7,0.2,1c0,0.4-0.1,0.8-0.3,1
			c-0.2,0.3-0.4,0.5-0.7,0.7c-0.3,0.2-0.6,0.3-0.9,0.4c-0.3,0.1-0.7,0.1-1.1,0.1c-0.3,0-0.7-0.1-1-0.2c-0.3-0.1-0.6-0.3-0.9-0.5
			c-0.3-0.2-0.5-0.5-0.6-0.8c-0.2-0.3-0.2-0.7-0.2-1.2c0-0.3,0.1-0.7,0.3-0.9c0.2-0.3,0.4-0.5,0.7-0.6v0l-0.8-0.1l0.1-0.8l5,0.4
			C259.7,175,260.4,175.2,260.8,175.7z M258.2,176.6c-0.1-0.2-0.3-0.4-0.4-0.5c-0.2-0.1-0.4-0.3-0.7-0.3c-0.2-0.1-0.5-0.1-0.8-0.1
			c-0.2,0-0.5,0-0.7,0c-0.2,0-0.5,0.1-0.6,0.2c-0.2,0.1-0.4,0.3-0.5,0.4c-0.1,0.2-0.2,0.4-0.2,0.7c0,0.3,0,0.5,0.1,0.7
			c0.1,0.2,0.2,0.4,0.4,0.5c0.2,0.1,0.4,0.3,0.6,0.3c0.2,0.1,0.5,0.1,0.7,0.1c0.2,0,0.5,0,0.7,0c0.2,0,0.5-0.1,0.7-0.2
			c0.2-0.1,0.4-0.2,0.5-0.4c0.1-0.2,0.2-0.4,0.2-0.7C258.4,177.1,258.3,176.8,258.2,176.6z"/>
	</g>
	<g id="XMLID_280_">
		<path id="XMLID_324_" class="st7" d="M102,79.2c-0.5,0-0.9,0.1-1.4,0.4c-0.4,0.2-0.7,0.5-0.9,0.8c-0.2,0.3-0.3,0.6-0.3,1
			c0,0.4,0,0.7,0.1,1.1c0.1,0.4,0.3,0.7,0.5,1.1c0.2,0.4,0.5,0.7,0.8,1c0.3,0.3,0.6,0.5,0.9,0.6c0.3,0.1,0.7,0.2,1,0.2
			c0.4,0,0.7-0.2,1.1-0.4c0.3-0.2,0.5-0.4,0.7-0.6c0.2-0.2,0.3-0.5,0.3-0.7c0.1-0.3,0.1-0.5,0-0.8c0-0.3-0.1-0.6-0.3-0.8l0.9-0.5
			c0.4,0.9,0.5,1.7,0.3,2.4c-0.2,0.7-0.7,1.4-1.5,1.9c-0.5,0.3-1,0.5-1.5,0.5c-0.5,0.1-0.9,0-1.4-0.2c-0.4-0.2-0.8-0.4-1.2-0.7
			c-0.4-0.3-0.7-0.7-1-1.2c-0.3-0.5-0.5-1-0.6-1.4c-0.1-0.5-0.1-1-0.1-1.4c0.1-0.5,0.2-0.9,0.5-1.3c0.3-0.4,0.7-0.8,1.2-1.1
			c0.3-0.2,0.7-0.3,1-0.4c0.4-0.1,0.7-0.1,1-0.1c0.3,0,0.7,0.1,1,0.3c0.3,0.2,0.6,0.4,0.9,0.7l-0.9,0.5
			C102.9,79.4,102.5,79.2,102,79.2z"/>
		<path id="XMLID_321_" class="st7" d="M105.8,80c-0.1-0.4,0-0.7,0-1c0.1-0.3,0.2-0.6,0.5-0.9c0.2-0.3,0.5-0.5,0.9-0.7
			c0.4-0.2,0.8-0.3,1.1-0.3c0.4,0,0.7,0,1,0.2c0.3,0.1,0.6,0.3,0.9,0.6c0.3,0.3,0.5,0.6,0.7,0.9c0.2,0.4,0.3,0.7,0.4,1.1
			c0.1,0.4,0,0.7,0,1c-0.1,0.3-0.2,0.6-0.5,0.9c-0.2,0.3-0.5,0.5-0.9,0.7c-0.4,0.2-0.8,0.3-1.1,0.3c-0.4,0-0.7,0-1-0.2
			c-0.3-0.1-0.6-0.3-0.9-0.6c-0.3-0.3-0.5-0.6-0.7-0.9C106,80.7,105.9,80.4,105.8,80z M107.5,81.4c0.2,0.2,0.4,0.3,0.6,0.4
			s0.4,0.1,0.7,0.1c0.2,0,0.4-0.1,0.6-0.2s0.4-0.2,0.5-0.4c0.1-0.2,0.2-0.4,0.3-0.6c0.1-0.2,0.1-0.5,0-0.7c0-0.3-0.1-0.5-0.3-0.8
			c-0.2-0.3-0.3-0.5-0.5-0.7c-0.2-0.2-0.4-0.3-0.6-0.4c-0.2-0.1-0.4-0.1-0.7-0.1c-0.2,0-0.4,0.1-0.6,0.2c-0.2,0.1-0.4,0.2-0.5,0.4
			c-0.1,0.2-0.2,0.4-0.3,0.6c-0.1,0.2-0.1,0.5,0,0.7c0,0.3,0.1,0.5,0.3,0.8C107.2,81,107.3,81.2,107.5,81.4z"/>
		<path id="XMLID_319_" class="st7" d="M111.5,75.4l0.3,0.7l0,0c0.1-0.7,0.6-1.2,1.3-1.5c0.3-0.1,0.6-0.2,0.9-0.2
			c0.3,0,0.6,0.2,0.8,0.4c0.1-0.3,0.2-0.6,0.4-0.9c0.2-0.3,0.5-0.5,0.8-0.6c0.3-0.1,0.5-0.2,0.7-0.2c0.2,0,0.4,0,0.6,0
			c0.2,0.1,0.4,0.2,0.5,0.3c0.2,0.2,0.3,0.4,0.4,0.6l1.6,3.7l-0.8,0.3l-1.4-3.3c-0.1-0.2-0.1-0.3-0.2-0.4c-0.1-0.1-0.2-0.2-0.3-0.3
			c-0.1-0.1-0.2-0.1-0.4-0.1c-0.1,0-0.3,0-0.5,0.1c-0.4,0.2-0.7,0.4-0.8,0.8c-0.1,0.3-0.1,0.7,0,1.1l1.3,3.1l-0.8,0.3l-1.4-3.3
			c-0.1-0.2-0.1-0.3-0.2-0.4c-0.1-0.1-0.2-0.2-0.3-0.3c-0.1-0.1-0.2-0.1-0.4-0.1c-0.1,0-0.3,0-0.5,0.1c-0.2,0.1-0.4,0.2-0.6,0.4
			c-0.1,0.2-0.2,0.3-0.3,0.5c0,0.2-0.1,0.4-0.1,0.5c0,0.2,0,0.3,0.1,0.4l1.3,3.1l-0.8,0.3l-2.1-5L111.5,75.4z"/>
		<path id="XMLID_317_" class="st7" d="M119.9,72l0.2,0.8l0,0c0.2-0.7,0.7-1.2,1.4-1.4c0.3-0.1,0.6-0.1,0.9-0.1
			c0.3,0,0.6,0.2,0.8,0.5c0.1-0.3,0.2-0.6,0.5-0.9c0.2-0.2,0.5-0.4,0.9-0.5c0.3-0.1,0.5-0.1,0.7-0.1c0.2,0,0.4,0,0.6,0.1
			c0.2,0.1,0.4,0.2,0.5,0.4c0.1,0.2,0.3,0.4,0.3,0.6l1.2,3.8l-0.9,0.3l-1.1-3.4c-0.1-0.2-0.1-0.3-0.2-0.4c-0.1-0.1-0.2-0.2-0.3-0.3
			c-0.1-0.1-0.2-0.1-0.4-0.1c-0.2,0-0.3,0-0.5,0.1c-0.4,0.1-0.7,0.4-0.9,0.7c-0.2,0.3-0.2,0.7-0.1,1.1l1,3.2l-0.9,0.3l-1.1-3.4
			c-0.1-0.2-0.1-0.3-0.2-0.4c-0.1-0.1-0.2-0.2-0.3-0.3c-0.1-0.1-0.2-0.1-0.4-0.1c-0.1,0-0.3,0-0.5,0.1c-0.2,0.1-0.4,0.2-0.6,0.4
			c-0.1,0.2-0.2,0.3-0.3,0.5c-0.1,0.2-0.1,0.3-0.1,0.5c0,0.2,0,0.3,0,0.4l1,3.2l-0.9,0.3l-1.7-5.2L119.9,72z"/>
		<path id="XMLID_315_" class="st7" d="M132.7,74l-0.2-0.8l0,0c-0.1,0.4-0.3,0.7-0.5,0.9c-0.2,0.2-0.6,0.4-1,0.5
			c-0.3,0.1-0.7,0.1-0.9,0.1c-0.3,0-0.5-0.1-0.7-0.3c-0.2-0.1-0.3-0.3-0.4-0.5c-0.1-0.2-0.2-0.5-0.3-0.8l-0.8-3.5l0.9-0.2l0.9,3.6
			c0.1,0.3,0.2,0.6,0.5,0.7c0.2,0.1,0.5,0.2,0.9,0.1c0.3-0.1,0.5-0.2,0.7-0.3c0.2-0.1,0.3-0.3,0.4-0.5c0.1-0.2,0.1-0.4,0.2-0.6
			c0-0.2,0-0.4-0.1-0.7l-0.7-3l0.9-0.2l1.3,5.3L132.7,74z"/>
		<path id="XMLID_313_" class="st7" d="M134.5,68l0.2,0.9l0,0c0.2-0.7,0.8-1.1,1.6-1.3c0.4-0.1,0.7-0.1,0.9,0
			c0.3,0.1,0.5,0.2,0.6,0.3c0.2,0.1,0.3,0.3,0.4,0.6c0.1,0.2,0.2,0.5,0.2,0.8l0.6,3.5l-0.9,0.2l-0.7-3.6c-0.1-0.3-0.2-0.6-0.4-0.7
			c-0.2-0.2-0.5-0.2-0.9-0.1c-0.3,0-0.5,0.1-0.7,0.2c-0.2,0.1-0.3,0.3-0.4,0.4c-0.1,0.2-0.2,0.4-0.2,0.6c0,0.2,0,0.4,0,0.7l0.5,3
			l-0.9,0.2l-1-5.4L134.5,68z"/>
		<path id="XMLID_310_" class="st7" d="M139.4,66.2l-0.2-1.1l0.9-0.1l0.2,1.1L139.4,66.2z M140.5,67.1l0.7,5.4l-0.9,0.1l-0.7-5.4
			L140.5,67.1z"/>
		<path id="XMLID_308_" class="st7" d="M144.2,66.6l0.1,0.8l-1.1,0.1l0.4,3.4c0,0.1,0,0.2,0.1,0.2c0,0.1,0.1,0.1,0.1,0.1
			c0.1,0,0.1,0,0.2,0c0.1,0,0.2,0,0.3,0l0.4,0l0.1,0.8l-0.7,0.1c-0.2,0-0.4,0-0.6,0c-0.2,0-0.3-0.1-0.4-0.1
			c-0.1-0.1-0.2-0.2-0.3-0.3c-0.1-0.1-0.1-0.3-0.1-0.6l-0.4-3.5l-0.9,0.1l-0.1-0.8l0.9-0.1l-0.2-1.6l0.9-0.1l0.2,1.6L144.2,66.6z"/>
		<path id="XMLID_306_" class="st7" d="M147.8,72.6c-0.1,0.3-0.2,0.5-0.3,0.7c-0.1,0.2-0.2,0.3-0.3,0.5c-0.1,0.1-0.2,0.2-0.4,0.3
			c-0.1,0.1-0.3,0.1-0.5,0.1c-0.1,0-0.2,0-0.3,0c-0.1,0-0.2,0-0.3-0.1l-0.1-0.8c0.1,0,0.2,0.1,0.3,0.1c0.1,0,0.2,0,0.3,0
			c0.2,0,0.3-0.1,0.4-0.2c0.1-0.1,0.2-0.2,0.3-0.4l0.3-0.9l-2.5-5.3l1-0.1l1.9,4.3l0,0l1.2-4.6l0.9-0.1L147.8,72.6z"/>
		<path id="XMLID_304_" class="st7" d="M155.3,64.1l2.2,6.4l2.6-6.3l1.4,0l-0.2,7.5l-1,0l0.2-6.3l0,0l-2.6,6.2l-0.9,0l-2.2-6.3h0
			l-0.2,6.3l-1,0l0.2-7.5L155.3,64.1z"/>
		<path id="XMLID_301_" class="st7" d="M167.2,72.4c-0.2,0.1-0.4,0.1-0.7,0.1c-0.2,0-0.4-0.1-0.5-0.3c-0.1-0.1-0.2-0.4-0.1-0.7
			c-0.3,0.3-0.6,0.5-0.9,0.5c-0.3,0.1-0.7,0.1-1.1,0.1c-0.2,0-0.5-0.1-0.7-0.2c-0.2-0.1-0.4-0.2-0.5-0.3c-0.1-0.1-0.3-0.3-0.3-0.5
			c-0.1-0.2-0.1-0.4-0.1-0.7c0-0.3,0.1-0.6,0.2-0.7c0.1-0.2,0.3-0.3,0.5-0.4c0.2-0.1,0.4-0.2,0.6-0.2c0.2,0,0.5-0.1,0.7-0.1
			c0.3,0,0.5,0,0.7,0c0.2,0,0.4,0,0.6,0c0.2,0,0.3-0.1,0.4-0.2c0.1-0.1,0.2-0.2,0.2-0.4c0-0.2,0-0.4-0.1-0.5
			c-0.1-0.1-0.1-0.2-0.3-0.3c-0.1-0.1-0.2-0.1-0.4-0.2c-0.1,0-0.3-0.1-0.4-0.1c-0.4,0-0.7,0-1,0.1c-0.3,0.1-0.4,0.4-0.5,0.8
			l-0.9-0.1c0-0.3,0.1-0.6,0.3-0.8c0.2-0.2,0.3-0.4,0.6-0.5c0.2-0.1,0.5-0.2,0.8-0.2c0.3,0,0.6,0,0.9,0c0.2,0,0.5,0.1,0.7,0.1
			c0.2,0.1,0.4,0.2,0.6,0.3c0.2,0.1,0.3,0.3,0.4,0.5c0.1,0.2,0.1,0.5,0.1,0.8l-0.3,2.8c0,0.2,0,0.4,0,0.5c0,0.1,0.1,0.2,0.2,0.2
			c0.1,0,0.2,0,0.3,0L167.2,72.4z M166,69.5c-0.1,0.1-0.3,0.1-0.5,0.1c-0.2,0-0.4,0-0.6,0c-0.2,0-0.4,0-0.6,0c-0.2,0-0.4,0-0.6,0.1
			c-0.2,0.1-0.3,0.1-0.4,0.3c-0.1,0.1-0.2,0.3-0.2,0.5c0,0.1,0,0.3,0.1,0.4c0,0.1,0.1,0.2,0.2,0.3c0.1,0.1,0.2,0.1,0.3,0.2
			c0.1,0,0.3,0.1,0.4,0.1c0.3,0,0.5,0,0.8,0c0.2-0.1,0.4-0.1,0.5-0.2c0.1-0.1,0.3-0.2,0.3-0.4c0.1-0.1,0.1-0.3,0.1-0.4L166,69.5z"/>
		<path id="XMLID_299_" class="st7" d="M169.5,67.3l-0.1,0.9l0,0c0.5-0.6,1.1-0.8,1.9-0.7c0.4,0.1,0.6,0.2,0.9,0.3
			c0.2,0.1,0.4,0.3,0.5,0.5c0.1,0.2,0.2,0.4,0.2,0.7s0,0.5,0,0.8l-0.6,3.5l-0.9-0.1l0.6-3.6c0.1-0.3,0-0.6-0.2-0.8
			c-0.2-0.2-0.4-0.4-0.8-0.4c-0.3,0-0.5,0-0.7,0c-0.2,0.1-0.4,0.1-0.6,0.3c-0.2,0.1-0.3,0.3-0.4,0.5c-0.1,0.2-0.2,0.4-0.2,0.7
			l-0.5,3l-0.9-0.1l0.9-5.4L169.5,67.3z"/>
		<path id="XMLID_296_" class="st7" d="M178.1,74.5c-0.2,0.1-0.4,0.1-0.7,0c-0.2-0.1-0.4-0.2-0.5-0.3c-0.1-0.2-0.1-0.4-0.1-0.7
			c-0.3,0.2-0.6,0.4-1,0.4c-0.3,0.1-0.7,0-1.1,0c-0.2-0.1-0.5-0.1-0.7-0.2c-0.2-0.1-0.4-0.2-0.5-0.4c-0.1-0.2-0.2-0.3-0.3-0.5
			c-0.1-0.2,0-0.4,0-0.7c0.1-0.3,0.2-0.5,0.3-0.7c0.1-0.2,0.3-0.3,0.5-0.4c0.2-0.1,0.4-0.1,0.6-0.1c0.2,0,0.5,0,0.7,0
			c0.3,0,0.5,0,0.7,0c0.2,0,0.4,0,0.6,0c0.2,0,0.3,0,0.4-0.1c0.1-0.1,0.2-0.2,0.2-0.3c0-0.2,0-0.4,0-0.5c0-0.1-0.1-0.2-0.2-0.3
			c-0.1-0.1-0.2-0.2-0.4-0.2c-0.1-0.1-0.3-0.1-0.4-0.1c-0.4-0.1-0.7-0.1-1,0c-0.3,0.1-0.5,0.3-0.6,0.7l-0.9-0.2
			c0.1-0.3,0.2-0.6,0.4-0.8c0.2-0.2,0.4-0.3,0.6-0.4c0.2-0.1,0.5-0.1,0.8-0.1c0.3,0,0.6,0,0.9,0.1c0.2,0.1,0.5,0.1,0.7,0.2
			c0.2,0.1,0.4,0.2,0.6,0.4c0.2,0.1,0.3,0.3,0.4,0.6c0.1,0.2,0.1,0.5,0,0.8l-0.6,2.7c0,0.2-0.1,0.4-0.1,0.5s0.1,0.2,0.2,0.2
			c0.1,0,0.2,0,0.3,0L178.1,74.5z M177.3,71.5c-0.1,0.1-0.3,0.1-0.5,0.1c-0.2,0-0.4,0-0.6,0c-0.2,0-0.4,0-0.6,0c-0.2,0-0.4,0-0.6,0
			c-0.2,0-0.3,0.1-0.5,0.2c-0.1,0.1-0.2,0.3-0.3,0.5c0,0.1,0,0.3,0,0.4c0,0.1,0.1,0.2,0.2,0.3c0.1,0.1,0.2,0.2,0.3,0.2
			c0.1,0.1,0.2,0.1,0.4,0.1c0.3,0.1,0.5,0.1,0.8,0c0.2,0,0.4-0.1,0.6-0.2c0.2-0.1,0.3-0.2,0.4-0.3c0.1-0.1,0.2-0.3,0.2-0.4
			L177.3,71.5z"/>
		<path id="XMLID_293_" class="st7" d="M182.2,77.3c-0.5,0.3-1.2,0.4-2,0.1c-0.2-0.1-0.5-0.2-0.7-0.3c-0.2-0.1-0.4-0.3-0.6-0.5
			c-0.2-0.2-0.3-0.4-0.4-0.6c-0.1-0.2-0.1-0.5,0-0.8l0.9,0.2c0,0.2,0,0.3,0,0.4c0.1,0.1,0.1,0.3,0.3,0.4c0.1,0.1,0.2,0.2,0.4,0.3
			c0.1,0.1,0.3,0.1,0.4,0.2c0.3,0.1,0.5,0.1,0.8,0.1c0.2,0,0.4-0.1,0.6-0.3c0.2-0.1,0.3-0.3,0.5-0.5c0.1-0.2,0.2-0.5,0.3-0.8
			l0.1-0.3l0,0c-0.2,0.3-0.5,0.5-0.9,0.5s-0.7,0.1-1,0c-0.4-0.1-0.7-0.3-1-0.5c-0.2-0.2-0.4-0.5-0.6-0.8c-0.1-0.3-0.2-0.6-0.2-1
			c0-0.3,0-0.7,0.1-1.1c0.1-0.3,0.2-0.6,0.4-0.9c0.2-0.3,0.4-0.6,0.7-0.8c0.3-0.2,0.6-0.4,0.9-0.4c0.4-0.1,0.8-0.1,1.2,0.1
			c0.3,0.1,0.6,0.3,0.9,0.5c0.2,0.2,0.4,0.5,0.5,0.8l0,0l0.2-0.8l0.8,0.2l-1.4,4.8C183.1,76.4,182.7,77,182.2,77.3z M181.8,74.6
			c0.2-0.1,0.4-0.2,0.6-0.3c0.2-0.2,0.3-0.3,0.5-0.6c0.1-0.2,0.2-0.5,0.3-0.7c0.1-0.2,0.1-0.5,0.1-0.7c0-0.2,0-0.5-0.1-0.7
			c-0.1-0.2-0.2-0.4-0.3-0.6c-0.2-0.2-0.4-0.3-0.6-0.4c-0.3-0.1-0.5-0.1-0.8,0c-0.2,0-0.4,0.1-0.6,0.3c-0.2,0.1-0.3,0.3-0.4,0.5
			c-0.1,0.2-0.2,0.4-0.3,0.7c-0.1,0.2-0.1,0.5-0.1,0.7c0,0.3,0,0.5,0.1,0.7c0.1,0.2,0.2,0.4,0.3,0.6c0.2,0.2,0.4,0.3,0.7,0.4
			C181.3,74.7,181.6,74.7,181.8,74.6z"/>
		<path id="XMLID_290_" class="st7" d="M188.1,77.2c-0.5,0.2-1,0.1-1.6-0.1c-0.4-0.1-0.7-0.3-1-0.6c-0.3-0.2-0.4-0.5-0.6-0.8
			c-0.1-0.3-0.2-0.7-0.2-1c0-0.4,0.1-0.8,0.2-1.1c0.1-0.4,0.3-0.7,0.6-1c0.2-0.3,0.5-0.5,0.8-0.7c0.3-0.2,0.6-0.3,1-0.3
			c0.3,0,0.7,0,1,0.1c0.5,0.2,0.8,0.4,1,0.7c0.2,0.3,0.4,0.6,0.5,1c0.1,0.4,0.1,0.7,0,1.1c0,0.4-0.1,0.7-0.3,1l-3.9-1.3
			c-0.1,0.2-0.1,0.4-0.1,0.7c0,0.2,0,0.4,0.1,0.6c0.1,0.2,0.2,0.4,0.4,0.6c0.2,0.2,0.4,0.3,0.7,0.4c0.4,0.1,0.7,0.1,1,0.1
			c0.3-0.1,0.5-0.3,0.7-0.6l0.8,0.3C189,76.7,188.6,77.1,188.1,77.2z M189,73.9c0-0.2-0.1-0.4-0.1-0.6c-0.1-0.2-0.2-0.3-0.4-0.5
			c-0.2-0.1-0.3-0.2-0.5-0.3c-0.2-0.1-0.4-0.1-0.6-0.1c-0.2,0-0.4,0.1-0.6,0.2c-0.2,0.1-0.3,0.2-0.5,0.4c-0.1,0.2-0.2,0.3-0.3,0.5
			l3,1C189,74.3,189,74.1,189,73.9z"/>
		<path id="XMLID_288_" class="st7" d="M192.3,73.4l-0.3,0.7l0,0c0.6-0.4,1.3-0.5,2-0.2c0.3,0.1,0.6,0.3,0.8,0.6
			c0.2,0.2,0.3,0.5,0.2,0.9c0.3-0.2,0.6-0.3,0.9-0.3c0.3,0,0.7,0,1,0.2c0.3,0.1,0.5,0.2,0.6,0.4c0.2,0.1,0.3,0.3,0.4,0.5
			c0.1,0.2,0.1,0.4,0.1,0.6c0,0.2-0.1,0.5-0.2,0.7l-1.6,3.7l-0.8-0.4l1.4-3.3c0.1-0.2,0.1-0.3,0.2-0.5c0-0.1,0-0.3,0-0.4
			c0-0.1-0.1-0.3-0.2-0.4c-0.1-0.1-0.2-0.2-0.5-0.3c-0.4-0.2-0.8-0.2-1.1-0.1c-0.3,0.1-0.6,0.4-0.8,0.8l-1.3,3.1l-0.8-0.4l1.4-3.3
			c0.1-0.2,0.1-0.3,0.1-0.5c0-0.1,0-0.3,0-0.4c0-0.1-0.1-0.3-0.2-0.4c-0.1-0.1-0.2-0.2-0.4-0.3c-0.2-0.1-0.5-0.1-0.7-0.1
			c-0.2,0-0.4,0.1-0.6,0.2c-0.2,0.1-0.3,0.2-0.4,0.3c-0.1,0.1-0.2,0.2-0.2,0.3l-1.3,3.1l-0.8-0.4l2.2-5L192.3,73.4z"/>
		<path id="XMLID_285_" class="st7" d="M201,83.1c-0.5,0.1-1,0-1.6-0.3c-0.4-0.2-0.7-0.4-0.9-0.7c-0.2-0.3-0.4-0.6-0.4-0.9
			c-0.1-0.3-0.1-0.7,0-1c0.1-0.4,0.2-0.7,0.4-1.1c0.2-0.4,0.4-0.7,0.7-0.9c0.3-0.2,0.6-0.4,0.9-0.6c0.3-0.1,0.7-0.2,1-0.1
			c0.3,0,0.7,0.1,1,0.3c0.4,0.2,0.7,0.5,0.9,0.8c0.2,0.3,0.3,0.7,0.3,1c0,0.4,0,0.7-0.1,1.1c-0.1,0.4-0.2,0.7-0.4,1l-3.6-1.9
			c-0.1,0.2-0.2,0.4-0.2,0.6c0,0.2,0,0.4,0,0.6c0,0.2,0.1,0.4,0.3,0.6c0.1,0.2,0.4,0.4,0.6,0.5c0.3,0.2,0.7,0.2,1,0.2
			c0.3,0,0.6-0.2,0.8-0.5l0.8,0.4C201.9,82.7,201.5,83,201,83.1z M202.4,79.9c0-0.2,0-0.4-0.1-0.6c-0.1-0.2-0.2-0.4-0.3-0.5
			c-0.1-0.2-0.3-0.3-0.5-0.4c-0.2-0.1-0.4-0.2-0.6-0.2c-0.2,0-0.4,0-0.6,0.1c-0.2,0.1-0.4,0.2-0.5,0.3c-0.2,0.1-0.3,0.3-0.4,0.5
			l2.8,1.4C202.3,80.3,202.4,80.1,202.4,79.9z"/>
		<path id="XMLID_283_" class="st7" d="M205.7,79.9l-0.4,0.7l0,0c0.7-0.4,1.3-0.4,2,0.1c0.3,0.2,0.5,0.4,0.7,0.6
			c0.2,0.2,0.2,0.4,0.3,0.7c0,0.2,0,0.5-0.1,0.7c-0.1,0.2-0.2,0.5-0.3,0.7l-1.8,3.1l-0.8-0.5l1.9-3.2c0.2-0.3,0.2-0.6,0.2-0.8
			c-0.1-0.3-0.3-0.5-0.5-0.7c-0.2-0.1-0.5-0.2-0.7-0.3c-0.2,0-0.4,0-0.6,0c-0.2,0.1-0.4,0.2-0.5,0.3c-0.2,0.1-0.3,0.3-0.4,0.5
			l-1.6,2.6l-0.8-0.5l2.8-4.7L205.7,79.9z"/>
		<path id="XMLID_281_" class="st7" d="M212,83.8l-0.4,0.7l-0.9-0.6l-1.9,2.8c-0.1,0.1-0.1,0.2-0.1,0.2c0,0.1,0,0.1,0,0.2
			c0,0.1,0.1,0.1,0.1,0.2c0.1,0.1,0.2,0.1,0.3,0.2l0.3,0.2l-0.4,0.7l-0.6-0.4c-0.2-0.1-0.4-0.3-0.5-0.4c-0.1-0.1-0.2-0.2-0.2-0.4
			s0-0.3,0-0.4c0-0.2,0.1-0.3,0.3-0.6l1.9-2.9l-0.8-0.5l0.4-0.7l0.8,0.5l0.9-1.4l0.7,0.5l-0.9,1.4L212,83.8z"/>
	</g>
	<circle id="XMLID_279_" class="st7" cx="154.2" cy="169.2" r="24.1"/>
	<path id="XMLID_278_" class="st10" d="M171.2,182.7c-1.3-2.1-2.1-2.4-6.3-4.3c-4.2-1.9-4.3-2.2-4.3-2.2v-0.7
		c2.6-0.7,5.3-1.7,5.3-1.7s-3.1-1-2.5-7.4c0.6-6.5-0.5-14.2-8.1-14.2c-2.7,0-4.5,1.1-5,2.4c0,0-0.5-0.8-2.2-0.5
		c-1.6,0.3-4.7,2.1-4.6,7c0.1,4.8,1.2,10.7-1.4,12.6c0,0,2.1,1.3,5.9,2l0,0.7c0,0,0.2,0.1-4,2c-1.2,0.5-3.8,1.9-4.7,2.2
		c0,0-1.8,0.7-3,3.4c4.3,5,10.7,8.2,17.8,8.2c6.9,0,13.1-3,17.4-7.8C171.6,183.6,171.5,183.1,171.2,182.7z"/>
	<path id="XMLID_275_" class="st7" d="M44.3,216.1H28.7v29.8h24.2v-21.2L44.3,216.1z M49.1,242.1H32.4v-22.3h10.4l0.8,0.8v4.8h4.8
		l0.8,0.8V242.1z"/>
	<rect id="XMLID_274_" x="34.3" y="231" class="st7" width="13" height="1.9"/>
	<rect id="XMLID_273_" x="34.3" y="225.4" class="st7" width="7.4" height="1.9"/>
	<rect id="XMLID_272_" x="34.3" y="236.5" class="st7" width="13" height="1.9"/>
	<g id="XMLID_267_">
		<path id="XMLID_271_" class="st7" d="M283.9,220.9c-0.2-0.2-0.4-0.3-0.7-0.3h-7.9c0-0.1,0-0.2,0-0.2c0-0.7-0.6-1.4-1.4-1.4h-1.3
			c-0.7,0-1.4,0.6-1.4,1.4c0,0.1,0,0.2,0,0.2h-4.4c-0.5,0-1,0.4-1,1s0.4,1,1,1h15.3v16.7h-15.3c-0.5,0-1,0.4-1,1c0,0.5,0.4,1,1,1
			h16.3c0.5,0,1-0.4,1-1l0,0l0,0v-18.7C284.2,221.3,284.1,221.1,283.9,220.9z"/>
		<circle id="XMLID_270_" class="st7" cx="261" cy="221.8" r="3"/>
		<path id="XMLID_269_" class="st7" d="M273.3,228v-0.3c0-0.8-0.6-1.4-1.4-1.4h-15.5c-0.8,0-1.4,0.6-1.4,1.4v0.2v0.1v7.1
			c0,0.8,0.7,1.5,1.5,1.5h0.3c0.2,0,0.3,0,0.5-0.1v10.2h7.2v-17.4h7.3C272.7,229.3,273.3,228.7,273.3,228z"/>
		<path id="XMLID_268_" class="st7" d="M273.8,242.2c-0.1-0.1-0.2-0.1-0.3-0.2c0,0,0,0-0.1,0c0,0,0,0,0,0c0,0-0.1,0-0.1,0
			c0,0,0,0-0.1,0c0,0,0,0-0.1,0c0,0-0.1,0-0.1,0c0,0,0,0,0,0c0,0,0,0-0.1,0c-0.1,0-0.2,0.1-0.3,0.2L269,246c-0.3,0.3-0.3,0.7,0,0.9
			c0.2,0.2,0.7,0.2,0.9,0l3.4-3.4l3.4,3.4c0.3,0.3,0.7,0.3,0.9,0c0.2-0.2,0.2-0.7,0-0.9L273.8,242.2z"/>
	</g>
	<g id="XMLID_186_">
		<path id="XMLID_265_" class="st7" d="M90,160.9c0.2-0.3,0.4-0.6,0.5-1c0.1-0.3,0-0.6-0.1-0.9c-0.1-0.3-0.2-0.5-0.4-0.7
			c-0.2-0.2-0.4-0.3-0.7-0.5c-0.3-0.1-0.6-0.2-0.9-0.2c-0.3,0-0.6-0.1-1,0c-0.3,0-0.6,0.1-0.8,0.2c-0.2,0.1-0.4,0.3-0.6,0.5
			c-0.2,0.2-0.3,0.5-0.3,0.9c0,0.3,0,0.5,0,0.7c0.1,0.2,0.1,0.4,0.3,0.6c0.1,0.2,0.3,0.3,0.5,0.4c0.2,0.1,0.4,0.2,0.6,0.2l-0.1,0.8
			c-0.7-0.2-1.2-0.5-1.6-1c-0.3-0.5-0.5-1.1-0.4-1.8c0.1-0.4,0.2-0.8,0.4-1.1c0.2-0.3,0.5-0.6,0.8-0.7c0.3-0.2,0.6-0.3,1-0.4
			c0.4-0.1,0.8-0.1,1.2,0c0.4,0.1,0.8,0.2,1.2,0.3c0.3,0.2,0.6,0.4,0.9,0.7c0.2,0.3,0.4,0.6,0.5,1c0.1,0.4,0.1,0.8,0.1,1.2
			c0,0.3-0.1,0.6-0.2,0.8c-0.1,0.3-0.3,0.5-0.5,0.7c-0.2,0.2-0.4,0.3-0.7,0.4c-0.3,0.1-0.5,0.2-0.9,0.2l0.1-0.8
			C89.4,161.3,89.7,161.2,90,160.9z"/>
		<path id="XMLID_262_" class="st7" d="M84.5,166.4c-0.1-0.1-0.1-0.3-0.1-0.5c0-0.2,0.1-0.3,0.2-0.4c0.1-0.1,0.3-0.1,0.5-0.1
			c-0.2-0.2-0.4-0.4-0.4-0.7c-0.1-0.3-0.1-0.5-0.1-0.8c0-0.2,0-0.4,0.1-0.5c0.1-0.2,0.1-0.3,0.2-0.4c0.1-0.1,0.2-0.2,0.4-0.3
			c0.2-0.1,0.3-0.1,0.5-0.1c0.2,0,0.4,0.1,0.6,0.2s0.3,0.2,0.3,0.3c0.1,0.1,0.1,0.3,0.2,0.5c0,0.2,0.1,0.4,0.1,0.5
			c0,0.2,0,0.4,0,0.5c0,0.2,0,0.3,0.1,0.5c0,0.1,0.1,0.2,0.1,0.3c0.1,0.1,0.2,0.1,0.3,0.1c0.2,0,0.3,0,0.4-0.1
			c0.1,0,0.2-0.1,0.2-0.2c0.1-0.1,0.1-0.2,0.1-0.3c0-0.1,0-0.2,0-0.3c0-0.3,0-0.5-0.1-0.7c-0.1-0.2-0.3-0.3-0.6-0.4l0-0.7
			c0.3,0,0.5,0.1,0.6,0.2c0.2,0.1,0.3,0.3,0.4,0.4c0.1,0.2,0.2,0.4,0.2,0.6c0,0.2,0,0.4,0,0.7c0,0.2,0,0.4-0.1,0.6
			c0,0.2-0.1,0.4-0.2,0.5c-0.1,0.1-0.2,0.3-0.4,0.3c-0.2,0.1-0.4,0.1-0.6,0.1l-2.2-0.1c-0.2,0-0.3,0-0.4,0c-0.1,0-0.1,0.1-0.1,0.2
			c0,0.1,0,0.1,0,0.2L84.5,166.4z M86.7,165.4c-0.1-0.1-0.1-0.2-0.1-0.4c0-0.1,0-0.3,0-0.4c0-0.2,0-0.3,0-0.5c0-0.2,0-0.3-0.1-0.4
			c0-0.1-0.1-0.2-0.2-0.3c-0.1-0.1-0.2-0.1-0.4-0.1c-0.1,0-0.2,0-0.3,0c-0.1,0-0.1,0.1-0.2,0.2c-0.1,0.1-0.1,0.2-0.1,0.2
			c0,0.1,0,0.2-0.1,0.3c0,0.2,0,0.4,0.1,0.6c0.1,0.2,0.1,0.3,0.2,0.4c0.1,0.1,0.2,0.2,0.3,0.2c0.1,0.1,0.2,0.1,0.3,0.1L86.7,165.4z"
			/>
		<path id="XMLID_259_" class="st7" d="M84.5,170.3l0.6,0v0c-0.2-0.1-0.4-0.3-0.5-0.5s-0.2-0.5-0.1-0.8c0-0.3,0.1-0.6,0.2-0.9
			c0.1-0.2,0.3-0.4,0.5-0.6c0.2-0.2,0.4-0.3,0.7-0.4c0.3-0.1,0.6-0.1,0.8-0.1c0.3,0,0.6,0,0.8,0.1c0.3,0.1,0.5,0.2,0.7,0.4
			c0.2,0.2,0.4,0.4,0.5,0.6c0.1,0.2,0.2,0.5,0.2,0.8c0,0.1,0,0.2,0,0.4c0,0.1-0.1,0.3-0.1,0.4c-0.1,0.1-0.1,0.2-0.2,0.4
			c-0.1,0.1-0.2,0.2-0.3,0.3v0l2.2,0l0,0.7l-5.8,0L84.5,170.3z M86,167.8c-0.2,0.1-0.4,0.1-0.5,0.2c-0.1,0.1-0.3,0.2-0.4,0.4
			c-0.1,0.2-0.1,0.4-0.1,0.6c0,0.2,0,0.4,0.1,0.6c0.1,0.2,0.2,0.3,0.4,0.4c0.1,0.1,0.3,0.2,0.5,0.2c0.2,0,0.4,0.1,0.6,0.1
			c0.2,0,0.4,0,0.6-0.1c0.2,0,0.4-0.1,0.5-0.2c0.1-0.1,0.3-0.2,0.4-0.4c0.1-0.2,0.1-0.4,0.1-0.6c0-0.2,0-0.4-0.1-0.6
			c-0.1-0.2-0.2-0.3-0.4-0.4c-0.2-0.1-0.3-0.2-0.5-0.2c-0.2,0-0.4-0.1-0.6-0.1C86.3,167.7,86.2,167.8,86,167.8z"/>
		<path id="XMLID_256_" class="st7" d="M85,175.2c-0.3-0.3-0.4-0.7-0.4-1.2c0-0.3,0-0.6,0.1-0.9c0.1-0.3,0.2-0.5,0.4-0.7
			c0.2-0.2,0.4-0.3,0.7-0.4c0.3-0.1,0.6-0.2,0.9-0.2c0.3,0,0.6,0,0.9,0.1c0.3,0.1,0.5,0.2,0.7,0.4c0.2,0.2,0.4,0.4,0.5,0.6
			c0.1,0.2,0.2,0.5,0.2,0.8c0,0.4,0,0.7-0.2,0.9c-0.1,0.3-0.3,0.5-0.6,0.6c-0.2,0.2-0.5,0.3-0.8,0.4c-0.3,0.1-0.5,0.1-0.8,0.1
			l-0.2-3.2c-0.2,0-0.4,0-0.5,0.1c-0.2,0.1-0.3,0.1-0.4,0.3c-0.1,0.1-0.2,0.3-0.3,0.4c-0.1,0.2-0.1,0.4-0.1,0.6
			c0,0.3,0.1,0.5,0.3,0.7c0.1,0.2,0.4,0.3,0.6,0.3l0,0.7C85.6,175.7,85.2,175.5,85,175.2z M87.7,174.9c0.1-0.1,0.3-0.2,0.4-0.3
			c0.1-0.1,0.2-0.2,0.2-0.4c0.1-0.1,0.1-0.3,0.1-0.5c0-0.2-0.1-0.3-0.1-0.5c-0.1-0.1-0.2-0.3-0.3-0.4c-0.1-0.1-0.2-0.2-0.4-0.2
			c-0.1,0-0.3-0.1-0.5-0.1l0.2,2.4C87.4,175,87.5,175,87.7,174.9z"/>
		<path id="XMLID_254_" class="st7" d="M89.1,176.9l-0.7,0.1l0,0c0.5,0.2,0.9,0.6,0.9,1.3c0,0.3,0,0.5,0,0.7
			c-0.1,0.2-0.1,0.4-0.3,0.5c-0.1,0.1-0.3,0.2-0.4,0.3c-0.2,0.1-0.4,0.1-0.6,0.2l-2.8,0.4l-0.1-0.7l2.8-0.4c0.3,0,0.5-0.1,0.6-0.3
			c0.1-0.2,0.2-0.4,0.1-0.7c0-0.2-0.1-0.4-0.2-0.5c-0.1-0.1-0.2-0.3-0.3-0.3c-0.1-0.1-0.3-0.1-0.4-0.2c-0.2,0-0.3,0-0.5,0l-2.4,0.3
			l-0.1-0.7l4.2-0.6L89.1,176.9z"/>
		<path id="XMLID_252_" class="st7" d="M89.5,183.3c0.1-0.2,0.1-0.4,0.1-0.7c0-0.2-0.1-0.4-0.3-0.6c-0.1-0.1-0.3-0.3-0.4-0.3
			c-0.2-0.1-0.4-0.1-0.6-0.1c-0.2,0-0.4,0-0.6,0.1c-0.2,0-0.4,0.1-0.5,0.2c-0.2,0.1-0.3,0.2-0.4,0.3c-0.1,0.1-0.2,0.3-0.3,0.4
			c-0.1,0.2-0.1,0.4,0,0.6c0.1,0.3,0.2,0.6,0.4,0.7c0.2,0.2,0.5,0.2,0.8,0.2l0.1,0.7c-0.5,0-1-0.1-1.3-0.3c-0.3-0.2-0.6-0.6-0.7-1.2
			c-0.1-0.3-0.1-0.6,0-0.9c0.1-0.3,0.2-0.5,0.3-0.7c0.2-0.2,0.3-0.4,0.6-0.5c0.2-0.1,0.5-0.2,0.8-0.3c0.3-0.1,0.6-0.1,0.9-0.1
			c0.3,0,0.5,0.1,0.8,0.2c0.2,0.1,0.4,0.3,0.6,0.5c0.2,0.2,0.3,0.5,0.3,0.8c0,0.2,0.1,0.5,0.1,0.7c0,0.2-0.1,0.4-0.1,0.6
			c-0.1,0.2-0.2,0.3-0.4,0.5c-0.2,0.1-0.4,0.2-0.6,0.3l-0.1-0.7C89.2,183.6,89.3,183.5,89.5,183.3z"/>
		<path id="XMLID_249_" class="st7" d="M87.5,188.8c-0.3-0.2-0.5-0.6-0.7-1.1c-0.1-0.3-0.1-0.6-0.1-0.9c0-0.3,0.1-0.5,0.3-0.7
			c0.1-0.2,0.3-0.4,0.6-0.6c0.2-0.2,0.5-0.3,0.8-0.4c0.3-0.1,0.6-0.1,0.9-0.1c0.3,0,0.5,0.1,0.8,0.2c0.2,0.1,0.4,0.3,0.6,0.5
			c0.2,0.2,0.3,0.4,0.4,0.7c0.1,0.4,0.1,0.7,0,1c-0.1,0.3-0.2,0.5-0.4,0.7c-0.2,0.2-0.4,0.4-0.7,0.5c-0.3,0.1-0.5,0.2-0.8,0.3
			l-0.8-3c-0.2,0-0.3,0.1-0.5,0.2c-0.1,0.1-0.3,0.2-0.4,0.3c-0.1,0.1-0.2,0.3-0.2,0.5c0,0.2,0,0.4,0,0.6c0.1,0.3,0.2,0.5,0.4,0.6
			c0.2,0.1,0.4,0.2,0.7,0.2l0.2,0.7C88.2,189.1,87.8,189,87.5,188.8z M90.1,187.9c0.1-0.1,0.2-0.2,0.3-0.3c0.1-0.1,0.1-0.3,0.1-0.4
			c0-0.2,0-0.3,0-0.5c0-0.2-0.1-0.3-0.2-0.4c-0.1-0.1-0.2-0.2-0.3-0.3c-0.1-0.1-0.3-0.1-0.4-0.1c-0.2,0-0.3,0-0.5,0l0.6,2.3
			C89.8,188.1,90,188,90.1,187.9z"/>
		<path id="XMLID_245_" class="st7" d="M89.5,195c-0.2-0.2-0.4-0.5-0.5-0.8c-0.1-0.4-0.2-0.7-0.2-0.9c0-0.3,0.1-0.5,0.2-0.7
			c0.1-0.2,0.2-0.3,0.4-0.4c0.2-0.1,0.3-0.2,0.4-0.2c0.2-0.1,0.4-0.1,0.6-0.1c0.2,0,0.4,0,0.5,0.1c0.2,0.1,0.3,0.2,0.5,0.3
			c0.2,0.1,0.3,0.2,0.5,0.4c0.1-0.1,0.1-0.2,0.2-0.3c0.1-0.1,0.1-0.2,0.2-0.3c0.1-0.1,0.2-0.2,0.3-0.3c0.1-0.1,0.2-0.1,0.3-0.2
			c0.1-0.1,0.3-0.1,0.5-0.1c0.2,0,0.3,0,0.5,0.1c0.1,0.1,0.3,0.2,0.4,0.3s0.2,0.3,0.3,0.5c0.1,0.2,0.1,0.3,0.1,0.5
			c0,0.2,0,0.3,0,0.5c0,0.2-0.1,0.3-0.2,0.4c-0.1,0.1-0.3,0.2-0.4,0.3c-0.2,0.1-0.3,0.1-0.5,0.1c-0.2,0-0.3,0-0.5-0.1
			c-0.2-0.1-0.3-0.1-0.4-0.2c-0.1-0.1-0.3-0.2-0.4-0.3l-0.8,1.4c0.3,0,0.6-0.1,0.9-0.2l0.2,0.6c-0.2,0-0.3,0.1-0.4,0.1
			c-0.1,0-0.2,0-0.3,0.1c-0.1,0-0.2,0-0.3,0c-0.1,0-0.2,0-0.4,0l-0.8,1.5l-0.3-0.8l0.5-0.8C90,195.3,89.7,195.2,89.5,195z
			 M91.3,192.8c-0.1-0.1-0.2-0.2-0.4-0.2c-0.1,0-0.3-0.1-0.4-0.1c-0.1,0-0.3,0-0.5,0.1c-0.1,0.1-0.2,0.1-0.3,0.2
			c-0.1,0.1-0.2,0.2-0.2,0.3c0,0.1-0.1,0.3-0.1,0.4c0,0.1,0,0.3,0.1,0.4c0.1,0.2,0.2,0.4,0.4,0.6c0.2,0.1,0.4,0.2,0.7,0.3l1-1.8
			C91.5,192.9,91.4,192.8,91.3,192.8z M92.7,193.1c0.1,0.1,0.2,0.1,0.3,0.2c0.1,0,0.2,0.1,0.3,0.1c0.1,0,0.2,0,0.3-0.1
			c0.2-0.1,0.3-0.2,0.3-0.3c0.1-0.2,0.1-0.3,0-0.5c-0.1-0.2-0.2-0.3-0.3-0.4c-0.1-0.1-0.3-0.1-0.5,0c-0.1,0-0.2,0.1-0.2,0.1
			c-0.1,0.1-0.1,0.1-0.2,0.2c-0.1,0.1-0.1,0.2-0.2,0.3c-0.1,0.1-0.1,0.2-0.2,0.3C92.5,193,92.6,193.1,92.7,193.1z"/>
		<path id="XMLID_241_" class="st7" d="M97.7,199c0.1,0.1,0.1,0.2,0.2,0.4c0.1,0.1,0.1,0.3,0.2,0.4c0.1,0.1,0.1,0.3,0.1,0.4
			c0,0.1,0,0.2,0,0.3c0,0.2-0.1,0.4-0.2,0.7c-0.1,0.2-0.3,0.4-0.6,0.5c-0.3,0.1-0.5,0.2-0.8,0.2c-0.3,0-0.5-0.1-0.7-0.3l0,0
			c0.1,0.4,0.1,0.7,0,1c-0.1,0.3-0.4,0.5-0.7,0.7c-0.2,0.1-0.4,0.2-0.6,0.2c-0.2,0-0.4,0-0.6,0c-0.2-0.1-0.4-0.2-0.6-0.3
			c-0.2-0.2-0.3-0.4-0.5-0.6l-1.3-2.5l5.1-2.7L97.7,199z M93.4,202c0.2,0.3,0.4,0.5,0.6,0.6c0.3,0.1,0.5,0,0.8-0.1
			c0.2-0.1,0.3-0.2,0.4-0.3c0.1-0.1,0.1-0.3,0.1-0.4c0-0.1,0-0.3-0.1-0.4c0-0.1-0.1-0.3-0.2-0.4l-0.8-1.6l-1.8,0.9L93.4,202z
			 M95.6,200.4c0.2,0.4,0.4,0.6,0.7,0.7c0.2,0.1,0.5,0.1,0.8-0.1c0.2-0.1,0.3-0.2,0.4-0.3c0.1-0.1,0.1-0.2,0.1-0.4
			c0-0.1,0-0.3-0.1-0.4c-0.1-0.1-0.1-0.3-0.2-0.4l-0.7-1.4l-1.6,0.9L95.6,200.4z"/>
		<path id="XMLID_238_" class="st7" d="M96.1,207.3c-0.4-0.1-0.7-0.4-0.9-0.8c-0.2-0.3-0.3-0.6-0.3-0.8c0-0.3,0-0.5,0.1-0.8
			c0.1-0.2,0.2-0.5,0.4-0.7c0.2-0.2,0.4-0.4,0.7-0.6c0.3-0.2,0.5-0.3,0.8-0.3c0.3-0.1,0.5-0.1,0.8,0c0.3,0,0.5,0.1,0.7,0.3
			c0.2,0.1,0.4,0.3,0.6,0.6c0.2,0.3,0.3,0.6,0.3,0.9c0,0.3-0.1,0.6-0.2,0.8c-0.1,0.3-0.3,0.5-0.5,0.7c-0.2,0.2-0.4,0.4-0.6,0.5
			l-1.7-2.7c-0.2,0.1-0.3,0.2-0.4,0.3c-0.1,0.1-0.2,0.3-0.2,0.4c-0.1,0.2-0.1,0.3,0,0.5c0,0.2,0.1,0.4,0.2,0.6
			c0.2,0.2,0.3,0.4,0.6,0.5c0.2,0.1,0.5,0.1,0.7,0l0.4,0.6C96.9,207.4,96.5,207.4,96.1,207.3z M98.3,205.7c0.1-0.1,0.2-0.3,0.2-0.4
			c0-0.1,0-0.3,0-0.5c0-0.2-0.1-0.3-0.2-0.5c-0.1-0.2-0.2-0.3-0.3-0.4c-0.1-0.1-0.3-0.1-0.4-0.2c-0.1,0-0.3,0-0.5,0
			c-0.2,0-0.3,0.1-0.4,0.2L98,206C98.1,205.9,98.2,205.8,98.3,205.7z"/>
		<path id="XMLID_236_" class="st7" d="M97.8,208.6c0,0.1-0.1,0.2-0.1,0.4c0,0.1,0,0.2,0.1,0.4c0.1,0.1,0.1,0.2,0.2,0.4
			c0.1,0.1,0.1,0.2,0.2,0.3c0.1,0.1,0.2,0.2,0.3,0.2c0.1,0.1,0.2,0.1,0.3,0.1c0.1,0,0.2,0,0.3-0.1c0.1-0.1,0.2-0.2,0.2-0.4
			c0-0.2,0-0.3-0.1-0.5c-0.1-0.2-0.2-0.4-0.3-0.6c-0.1-0.2-0.2-0.4-0.2-0.7c-0.1-0.2-0.1-0.4,0-0.6c0-0.2,0.2-0.4,0.4-0.5
			c0.2-0.1,0.3-0.2,0.5-0.2c0.2,0,0.3,0,0.5,0.1c0.2,0.1,0.3,0.2,0.5,0.3c0.1,0.1,0.3,0.3,0.4,0.4c0.1,0.2,0.3,0.4,0.3,0.6
			c0.1,0.2,0.1,0.4,0.1,0.6c0,0.2,0,0.4-0.1,0.5c-0.1,0.2-0.2,0.3-0.4,0.5l-0.4-0.6c0.1-0.1,0.2-0.2,0.2-0.3c0-0.1,0.1-0.2,0-0.3
			c0-0.1,0-0.2-0.1-0.3c0-0.1-0.1-0.2-0.2-0.3c-0.1-0.1-0.1-0.2-0.2-0.2c-0.1-0.1-0.2-0.1-0.2-0.2c-0.1,0-0.2-0.1-0.3-0.1
			c-0.1,0-0.2,0-0.3,0.1c-0.1,0.1-0.2,0.2-0.2,0.3c0,0.1,0,0.2,0,0.4c0,0.1,0.1,0.3,0.2,0.4c0.1,0.2,0.1,0.3,0.2,0.5
			c0.1,0.2,0.1,0.3,0.2,0.5c0.1,0.2,0.1,0.3,0.1,0.5c0,0.2,0,0.3-0.1,0.4c-0.1,0.1-0.2,0.3-0.3,0.4c-0.2,0.1-0.4,0.2-0.6,0.2
			c-0.2,0-0.4,0-0.6-0.1c-0.2-0.1-0.4-0.2-0.5-0.3c-0.2-0.1-0.3-0.3-0.4-0.5c-0.1-0.2-0.2-0.4-0.3-0.6c-0.1-0.2-0.1-0.4-0.1-0.6
			c0-0.2,0-0.4,0.1-0.6c0.1-0.2,0.2-0.4,0.4-0.5l0.4,0.6C98,208.4,97.9,208.5,97.8,208.6z"/>
		<path id="XMLID_234_" class="st7" d="M103.7,210.9l-0.5,0.4l-0.5-0.7l-2,1.6c-0.1,0-0.1,0.1-0.1,0.1c0,0,0,0.1,0,0.1
			c0,0,0,0.1,0.1,0.2c0,0.1,0.1,0.1,0.2,0.2l0.2,0.2l-0.5,0.4l-0.3-0.4c-0.1-0.1-0.2-0.3-0.3-0.4c-0.1-0.1-0.1-0.2-0.1-0.3
			c0-0.1,0-0.2,0.1-0.3c0.1-0.1,0.2-0.2,0.3-0.3l2.1-1.7l-0.4-0.6l0.5-0.4l0.4,0.6l1-0.8l0.4,0.5l-1,0.8L103.7,210.9z"/>
		<path id="XMLID_231_" class="st7" d="M108.6,213.9c0.4,0.4,0.6,0.8,0.6,1.3c0,0.4-0.2,0.8-0.6,1.2c-0.4,0.4-0.8,0.6-1.2,0.6
			c-0.4,0-0.8-0.2-1.3-0.6l-1.2-1.3l-1.7,1.7l-0.5-0.6l4.2-4L108.6,213.9z M106.4,215.7c0.3,0.3,0.6,0.5,0.9,0.5
			c0.3,0,0.5-0.1,0.8-0.3c0.2-0.2,0.4-0.5,0.4-0.8c0-0.3-0.2-0.6-0.5-0.9l-1.1-1.1l-1.5,1.5L106.4,215.7z"/>
		<path id="XMLID_204_" class="st7" d="M109.7,217.3l-0.6,0.7l0,0c0.4-0.1,0.7-0.2,1-0.1c0.3,0,0.6,0.2,0.8,0.5l-0.5,0.5
			c-0.2-0.2-0.4-0.3-0.6-0.4c-0.2-0.1-0.4-0.1-0.6-0.1c-0.2,0-0.4,0.1-0.6,0.2c-0.2,0.1-0.4,0.3-0.5,0.5l-1.3,1.4l-0.5-0.5l2.9-3.1
			L109.7,217.3z"/>
		<path id="XMLID_201_" class="st7" d="M111.4,224.3c-0.1,0-0.3-0.1-0.5-0.2c-0.1-0.1-0.2-0.2-0.2-0.4c0-0.1,0-0.3,0.2-0.5
			c-0.3,0.1-0.6,0-0.8,0c-0.3-0.1-0.5-0.2-0.7-0.4c-0.1-0.1-0.3-0.3-0.4-0.4c-0.1-0.1-0.2-0.3-0.2-0.4c0-0.2,0-0.3,0-0.5
			c0-0.2,0.1-0.3,0.3-0.5c0.2-0.2,0.3-0.3,0.5-0.4c0.2-0.1,0.3-0.1,0.5-0.1s0.3,0.1,0.5,0.1c0.2,0.1,0.3,0.2,0.5,0.2
			c0.2,0.1,0.3,0.2,0.5,0.3c0.1,0.1,0.3,0.2,0.4,0.2c0.1,0.1,0.2,0.1,0.3,0.1c0.1,0,0.2-0.1,0.3-0.2c0.1-0.1,0.2-0.2,0.2-0.3
			c0-0.1,0-0.2,0-0.3c0-0.1-0.1-0.2-0.2-0.3c-0.1-0.1-0.2-0.2-0.2-0.2c-0.2-0.2-0.5-0.3-0.7-0.3c-0.2,0-0.4,0.1-0.6,0.3l-0.5-0.4
			c0.2-0.2,0.4-0.3,0.5-0.4c0.2-0.1,0.4-0.1,0.6-0.1c0.2,0,0.4,0.1,0.6,0.2c0.2,0.1,0.4,0.2,0.6,0.4c0.1,0.1,0.3,0.3,0.4,0.4
			c0.1,0.1,0.2,0.3,0.3,0.5c0.1,0.2,0.1,0.3,0.1,0.5c0,0.2-0.1,0.4-0.3,0.5l-1.4,1.7c-0.1,0.1-0.2,0.2-0.2,0.3c0,0.1,0,0.1,0.1,0.2
			c0,0,0.1,0.1,0.2,0.1L111.4,224.3z M111.9,221.9c-0.1,0-0.2,0-0.4-0.1c-0.1-0.1-0.3-0.1-0.4-0.2c-0.1-0.1-0.3-0.2-0.4-0.2
			c-0.1-0.1-0.3-0.1-0.4-0.2c-0.1,0-0.3,0-0.4,0c-0.1,0-0.2,0.1-0.4,0.2c-0.1,0.1-0.1,0.2-0.1,0.3c0,0.1,0,0.2,0,0.3
			c0,0.1,0.1,0.2,0.1,0.2c0.1,0.1,0.1,0.2,0.2,0.2c0.2,0.1,0.3,0.2,0.5,0.3c0.2,0.1,0.3,0.1,0.5,0.1c0.1,0,0.3,0,0.4-0.1
			c0.1-0.1,0.2-0.1,0.3-0.2L111.9,221.9z"/>
		<path id="XMLID_199_" class="st7" d="M116.1,223.4c-0.1-0.2-0.2-0.4-0.4-0.6c-0.2-0.1-0.4-0.2-0.6-0.3c-0.2,0-0.4,0-0.5,0.1
			c-0.2,0.1-0.3,0.2-0.5,0.3c-0.2,0.1-0.3,0.3-0.4,0.5c-0.1,0.2-0.2,0.3-0.3,0.5c-0.1,0.2-0.1,0.4-0.1,0.5c0,0.2,0,0.3,0.1,0.5
			c0.1,0.2,0.2,0.3,0.4,0.4c0.3,0.2,0.5,0.3,0.8,0.3c0.3,0,0.5-0.2,0.7-0.4l0.6,0.4c-0.4,0.4-0.8,0.6-1.2,0.6
			c-0.4,0-0.8-0.1-1.3-0.4c-0.3-0.2-0.5-0.4-0.6-0.6c-0.1-0.2-0.2-0.5-0.2-0.7c0-0.3,0-0.5,0.1-0.8c0.1-0.3,0.2-0.5,0.4-0.8
			c0.2-0.3,0.4-0.5,0.6-0.6c0.2-0.2,0.5-0.3,0.7-0.4c0.3-0.1,0.5-0.1,0.8,0c0.3,0.1,0.5,0.2,0.8,0.4c0.2,0.1,0.4,0.3,0.5,0.5
			c0.1,0.2,0.2,0.3,0.3,0.5c0.1,0.2,0.1,0.4,0.1,0.6c0,0.2-0.1,0.4-0.2,0.6l-0.6-0.4C116.2,223.9,116.2,223.6,116.1,223.4z"/>
		<path id="XMLID_197_" class="st7" d="M119.6,224.8l-0.3,0.5l-0.7-0.5l-1.4,2.2c0,0.1-0.1,0.1-0.1,0.2c0,0,0,0.1,0,0.1
			c0,0,0.1,0.1,0.1,0.1c0.1,0,0.1,0.1,0.2,0.2l0.3,0.2l-0.3,0.5l-0.4-0.3c-0.2-0.1-0.3-0.2-0.4-0.3c-0.1-0.1-0.2-0.2-0.2-0.3
			c0-0.1,0-0.2,0-0.3c0-0.1,0.1-0.3,0.2-0.4l1.5-2.3l-0.6-0.4l0.3-0.5l0.6,0.4l0.7-1.1l0.6,0.4l-0.7,1.1L119.6,224.8z"/>
		<path id="XMLID_194_" class="st7" d="M120.8,225.6l-2.2,3.6l-0.6-0.4l2.2-3.6L120.8,225.6z M120.6,224.6l0.4-0.7l0.6,0.4l-0.4,0.7
			L120.6,224.6z"/>
		<path id="XMLID_192_" class="st7" d="M123.6,227.9c-0.1-0.2-0.3-0.4-0.5-0.5c-0.2-0.1-0.4-0.2-0.6-0.2c-0.2,0-0.4,0-0.5,0.1
			c-0.2,0.1-0.3,0.2-0.4,0.4c-0.1,0.2-0.2,0.3-0.4,0.5c-0.1,0.2-0.2,0.4-0.2,0.5c0,0.2-0.1,0.4,0,0.5c0,0.2,0.1,0.3,0.2,0.5
			c0.1,0.2,0.2,0.3,0.4,0.4c0.3,0.2,0.6,0.2,0.8,0.1c0.3-0.1,0.5-0.2,0.7-0.5l0.6,0.3c-0.3,0.4-0.7,0.7-1.1,0.8
			c-0.4,0.1-0.9,0-1.3-0.2c-0.3-0.2-0.5-0.3-0.7-0.5c-0.2-0.2-0.3-0.4-0.3-0.7c-0.1-0.2-0.1-0.5,0-0.8c0-0.3,0.2-0.5,0.3-0.8
			c0.1-0.3,0.3-0.5,0.5-0.7c0.2-0.2,0.4-0.4,0.7-0.5c0.2-0.1,0.5-0.1,0.8-0.1c0.3,0,0.6,0.1,0.9,0.3c0.2,0.1,0.4,0.2,0.6,0.4
			c0.2,0.1,0.3,0.3,0.4,0.5c0.1,0.2,0.1,0.4,0.1,0.6c0,0.2,0,0.4-0.1,0.7l-0.6-0.3C123.6,228.4,123.6,228.2,123.6,227.9z"/>
		<path id="XMLID_189_" class="st7" d="M126.6,233c-0.4,0.1-0.8,0-1.2-0.2c-0.3-0.1-0.5-0.3-0.7-0.5c-0.2-0.2-0.3-0.4-0.4-0.7
			c-0.1-0.2-0.1-0.5-0.1-0.8c0-0.3,0.1-0.6,0.2-0.9c0.1-0.3,0.3-0.5,0.5-0.7c0.2-0.2,0.4-0.4,0.7-0.5c0.2-0.1,0.5-0.2,0.8-0.2
			c0.3,0,0.5,0.1,0.8,0.2c0.3,0.2,0.6,0.4,0.8,0.6c0.2,0.2,0.3,0.5,0.3,0.8c0,0.3,0,0.6,0,0.8c-0.1,0.3-0.2,0.5-0.3,0.8l-2.9-1.3
			c-0.1,0.2-0.1,0.3-0.2,0.5c0,0.2,0,0.3,0,0.5c0,0.2,0.1,0.3,0.3,0.5c0.1,0.1,0.3,0.3,0.5,0.4c0.3,0.1,0.5,0.2,0.7,0.1
			c0.2,0,0.4-0.2,0.6-0.4l0.6,0.3C127.3,232.6,126.9,232.9,126.6,233z M127.5,230.4c0-0.2,0-0.3-0.1-0.5c-0.1-0.1-0.1-0.3-0.2-0.4
			c-0.1-0.1-0.2-0.2-0.4-0.3c-0.2-0.1-0.3-0.1-0.5-0.1c-0.2,0-0.3,0-0.4,0.1c-0.1,0.1-0.3,0.1-0.4,0.2c-0.1,0.1-0.2,0.2-0.3,0.4
			l2.2,1C127.5,230.7,127.5,230.6,127.5,230.4z"/>
		<path id="XMLID_187_" class="st7" d="M128.7,233.1c0,0.1,0.1,0.2,0.1,0.3c0.1,0.1,0.2,0.2,0.3,0.3c0.1,0.1,0.2,0.1,0.4,0.2
			c0.1,0,0.2,0.1,0.3,0.1c0.1,0,0.2,0,0.3,0s0.2,0,0.3-0.1c0.1-0.1,0.2-0.1,0.2-0.3c0.1-0.2,0-0.3,0-0.5c-0.1-0.1-0.2-0.3-0.4-0.4
			c-0.2-0.1-0.4-0.3-0.6-0.4c-0.2-0.1-0.4-0.3-0.6-0.4c-0.2-0.2-0.3-0.3-0.3-0.5c-0.1-0.2-0.1-0.4,0-0.7c0.1-0.2,0.2-0.4,0.3-0.5
			c0.1-0.1,0.3-0.2,0.5-0.2c0.2,0,0.4,0,0.5,0c0.2,0,0.4,0.1,0.5,0.1c0.2,0.1,0.4,0.2,0.6,0.3c0.2,0.1,0.3,0.2,0.4,0.4
			c0.1,0.1,0.2,0.3,0.2,0.5c0,0.2,0,0.4-0.1,0.7l-0.6-0.2c0-0.1,0-0.2,0-0.4c0-0.1-0.1-0.2-0.1-0.3c-0.1-0.1-0.1-0.2-0.2-0.2
			c-0.1-0.1-0.2-0.1-0.3-0.2c-0.1,0-0.2-0.1-0.3-0.1c-0.1,0-0.2,0-0.3,0c-0.1,0-0.2,0-0.3,0.1c-0.1,0-0.1,0.1-0.2,0.2
			c0,0.1,0,0.2,0,0.3c0.1,0.1,0.1,0.2,0.2,0.3c0.1,0.1,0.2,0.2,0.4,0.3c0.1,0.1,0.3,0.2,0.4,0.3c0.1,0.1,0.3,0.2,0.4,0.3
			c0.1,0.1,0.2,0.2,0.3,0.4c0.1,0.1,0.1,0.3,0.2,0.4c0,0.2,0,0.3-0.1,0.5c-0.1,0.2-0.2,0.4-0.4,0.5c-0.2,0.1-0.3,0.2-0.5,0.2
			c-0.2,0-0.4,0-0.6,0c-0.2,0-0.4-0.1-0.6-0.2c-0.2-0.1-0.4-0.2-0.6-0.3c-0.2-0.1-0.3-0.3-0.4-0.4c-0.1-0.2-0.2-0.3-0.2-0.6
			c0-0.2,0-0.4,0.1-0.7l0.6,0.2C128.7,232.9,128.7,233,128.7,233.1z"/>
	</g>
	<g id="XMLID_139_">
		<path id="XMLID_184_" class="st7" d="M185.4,231.6l-3.3-3.8l0,0l0.9,5l-0.7,0.3l-3.9-4.6l0.7-0.3l3.1,3.9l0,0l-0.9-4.9l0.8-0.4
			l3.2,3.8l0,0l-1-4.9l0.7-0.3l1.1,5.9L185.4,231.6z"/>
		<path id="XMLID_181_" class="st7" d="M186.2,227.8c-0.1-0.3-0.1-0.5,0-0.8c0.1-0.3,0.2-0.5,0.3-0.7c0.2-0.2,0.4-0.4,0.7-0.6
			c0.3-0.2,0.6-0.3,0.9-0.3c0.3,0,0.5,0,0.8,0.1c0.3,0.1,0.5,0.2,0.7,0.4c0.2,0.2,0.4,0.4,0.5,0.7c0.2,0.3,0.3,0.5,0.3,0.8
			c0.1,0.3,0.1,0.5,0,0.8c-0.1,0.3-0.2,0.5-0.3,0.7c-0.2,0.2-0.4,0.4-0.7,0.6c-0.3,0.2-0.6,0.3-0.8,0.3c-0.3,0-0.5,0-0.8-0.1
			c-0.3-0.1-0.5-0.2-0.7-0.4c-0.2-0.2-0.4-0.4-0.5-0.7C186.4,228.4,186.3,228.1,186.2,227.8z M187.6,228.8c0.2,0.1,0.3,0.2,0.5,0.3
			c0.2,0.1,0.3,0.1,0.5,0.1c0.2,0,0.3-0.1,0.5-0.2c0.2-0.1,0.3-0.2,0.4-0.3c0.1-0.1,0.2-0.3,0.2-0.5c0-0.2,0-0.4,0-0.6
			c0-0.2-0.1-0.4-0.3-0.6c-0.1-0.2-0.3-0.4-0.4-0.5c-0.2-0.1-0.3-0.2-0.5-0.3c-0.2-0.1-0.3-0.1-0.5-0.1c-0.2,0-0.3,0.1-0.5,0.2
			c-0.2,0.1-0.3,0.2-0.4,0.3c-0.1,0.1-0.2,0.3-0.2,0.5c0,0.2,0,0.4,0,0.6c0,0.2,0.1,0.4,0.3,0.6
			C187.3,228.5,187.5,228.7,187.6,228.8z"/>
		<path id="XMLID_179_" class="st7" d="M190.2,224l0.5,0.7l0,0c0-0.4,0-0.7,0.1-1c0.1-0.3,0.3-0.5,0.7-0.7l0.4,0.6
			c-0.2,0.2-0.4,0.3-0.5,0.5c-0.1,0.2-0.2,0.4-0.2,0.5c0,0.2,0,0.4,0.1,0.6c0.1,0.2,0.2,0.4,0.3,0.6l1,1.6l-0.6,0.4l-2.3-3.5
			L190.2,224z"/>
		<path id="XMLID_177_" class="st7" d="M191.5,221.1l2.1,2.8l0.5-2.6l0.7-0.6l-0.4,2.2l3,1.1l-0.7,0.5l-2.5-0.9l-0.2,0.9l1,1.3
			l-0.6,0.4l-3.5-4.7L191.5,221.1z"/>
		<path id="XMLID_175_" class="st7" d="M197.7,222.5c0.1,0,0.2,0.1,0.4,0c0.1,0,0.2-0.1,0.4-0.1c0.1-0.1,0.2-0.1,0.3-0.2
			c0.1-0.1,0.2-0.1,0.2-0.2c0.1-0.1,0.1-0.2,0.2-0.3c0-0.1,0.1-0.2,0.1-0.3c0-0.1,0-0.2-0.1-0.3c-0.1-0.1-0.3-0.2-0.4-0.2
			c-0.2,0-0.3,0.1-0.5,0.2c-0.2,0.1-0.4,0.2-0.6,0.3c-0.2,0.1-0.4,0.2-0.6,0.3c-0.2,0.1-0.4,0.1-0.6,0.1c-0.2,0-0.4-0.1-0.6-0.4
			c-0.1-0.2-0.2-0.3-0.2-0.5c0-0.2,0-0.3,0-0.5c0.1-0.2,0.1-0.3,0.3-0.5c0.1-0.2,0.2-0.3,0.4-0.4c0.2-0.2,0.4-0.3,0.5-0.4
			c0.2-0.1,0.4-0.2,0.5-0.2c0.2,0,0.4,0,0.5,0.1c0.2,0.1,0.4,0.2,0.5,0.4l-0.5,0.4c-0.1-0.1-0.2-0.2-0.3-0.2c-0.1,0-0.2,0-0.3,0
			c-0.1,0-0.2,0.1-0.3,0.1c-0.1,0.1-0.2,0.1-0.3,0.2c-0.1,0.1-0.2,0.1-0.2,0.2c-0.1,0.1-0.1,0.2-0.2,0.2c0,0.1-0.1,0.2-0.1,0.3
			c0,0.1,0,0.2,0.1,0.3c0.1,0.1,0.2,0.1,0.3,0.1c0.1,0,0.2,0,0.4-0.1c0.1,0,0.3-0.1,0.4-0.2c0.1-0.1,0.3-0.2,0.4-0.2
			c0.2-0.1,0.3-0.2,0.5-0.2c0.2-0.1,0.3-0.1,0.5-0.1c0.2,0,0.3,0,0.5,0.1c0.1,0.1,0.3,0.2,0.4,0.3c0.2,0.2,0.3,0.4,0.3,0.6
			c0,0.2,0,0.4-0.1,0.6c-0.1,0.2-0.2,0.4-0.3,0.5c-0.1,0.2-0.3,0.3-0.5,0.5c-0.2,0.2-0.4,0.3-0.6,0.4c-0.2,0.1-0.4,0.2-0.6,0.2
			c-0.2,0-0.4,0-0.6-0.1c-0.2-0.1-0.4-0.2-0.6-0.4l0.5-0.4C197.5,222.4,197.6,222.5,197.7,222.5z"/>
		<path id="XMLID_173_" class="st7" d="M197.6,216.1l1.5,1.6l0,0c-0.1-0.1-0.1-0.3-0.1-0.4c0-0.1,0-0.3,0.1-0.4
			c0.1-0.1,0.1-0.2,0.2-0.4c0.1-0.1,0.2-0.2,0.3-0.3c0.2-0.2,0.4-0.3,0.6-0.4c0.2-0.1,0.4-0.1,0.5-0.1c0.2,0,0.3,0.1,0.5,0.2
			c0.2,0.1,0.3,0.2,0.5,0.4l1.9,2l-0.5,0.5l-2-2.1c-0.2-0.2-0.4-0.3-0.6-0.3c-0.2,0-0.4,0.1-0.6,0.3c-0.2,0.1-0.3,0.3-0.3,0.5
			c-0.1,0.2-0.1,0.3-0.1,0.5c0,0.2,0.1,0.3,0.1,0.5c0.1,0.2,0.2,0.3,0.3,0.4l1.6,1.7l-0.5,0.5l-4-4.2L197.6,216.1z"/>
		<path id="XMLID_170_" class="st7" d="M202.3,215.6c-0.1-0.2-0.2-0.5-0.3-0.8c0-0.3,0-0.5,0.1-0.8c0.1-0.3,0.2-0.5,0.5-0.8
			c0.2-0.3,0.5-0.4,0.7-0.5c0.3-0.1,0.5-0.2,0.8-0.2c0.3,0,0.5,0.1,0.8,0.2c0.3,0.1,0.5,0.3,0.7,0.5c0.2,0.2,0.4,0.4,0.6,0.7
			c0.1,0.2,0.2,0.5,0.3,0.8c0,0.3,0,0.5-0.1,0.8c-0.1,0.3-0.2,0.5-0.5,0.8c-0.2,0.2-0.5,0.4-0.7,0.5c-0.3,0.1-0.5,0.2-0.8,0.2
			c-0.3,0-0.5-0.1-0.8-0.2c-0.3-0.1-0.5-0.3-0.7-0.5C202.6,216.1,202.4,215.8,202.3,215.6z M203.9,216.1c0.2,0.1,0.4,0.1,0.6,0.1
			c0.2,0,0.4,0,0.5-0.1c0.2-0.1,0.3-0.2,0.4-0.3c0.1-0.1,0.2-0.3,0.3-0.4c0.1-0.2,0.1-0.3,0.1-0.5c0-0.2-0.1-0.4-0.2-0.5
			c-0.1-0.2-0.2-0.4-0.4-0.5c-0.2-0.2-0.4-0.3-0.6-0.4c-0.2-0.1-0.4-0.1-0.6-0.1c-0.2,0-0.4,0-0.5,0.1c-0.2,0.1-0.3,0.2-0.4,0.3
			c-0.1,0.1-0.2,0.3-0.3,0.4c-0.1,0.2-0.1,0.3-0.1,0.5c0,0.2,0.1,0.4,0.2,0.5c0.1,0.2,0.2,0.4,0.4,0.5
			C203.5,215.9,203.7,216,203.9,216.1z"/>
		<path id="XMLID_167_" class="st7" d="M205,210.7l0.5,0.4l0,0c-0.1-0.2-0.1-0.5-0.1-0.7c0.1-0.3,0.2-0.5,0.4-0.7
			c0.2-0.3,0.4-0.4,0.7-0.6c0.2-0.1,0.5-0.2,0.8-0.2c0.3,0,0.5,0.1,0.8,0.2c0.3,0.1,0.5,0.2,0.7,0.4c0.2,0.2,0.4,0.4,0.6,0.6
			c0.2,0.2,0.3,0.5,0.3,0.7c0.1,0.2,0.1,0.5,0,0.8c-0.1,0.3-0.2,0.5-0.4,0.8c-0.1,0.1-0.1,0.2-0.2,0.3c-0.1,0.1-0.2,0.2-0.3,0.2
			c-0.1,0.1-0.2,0.1-0.4,0.2c-0.1,0-0.3,0-0.4,0l0,0l1.7,1.3l-0.4,0.5l-4.6-3.6L205,210.7z M207.7,209.7c-0.2-0.1-0.4-0.1-0.5-0.1
			c-0.2,0-0.4,0-0.5,0.1c-0.2,0.1-0.3,0.2-0.5,0.4c-0.1,0.2-0.2,0.4-0.3,0.6c0,0.2,0,0.4,0,0.5c0.1,0.2,0.1,0.3,0.3,0.5
			c0.1,0.2,0.3,0.3,0.4,0.4c0.2,0.1,0.3,0.2,0.5,0.3c0.2,0.1,0.4,0.1,0.5,0.1c0.2,0,0.4,0,0.5-0.1c0.2-0.1,0.3-0.2,0.5-0.4
			c0.1-0.2,0.2-0.4,0.3-0.6c0-0.2,0-0.4,0-0.5c-0.1-0.2-0.2-0.3-0.3-0.5c-0.1-0.2-0.3-0.3-0.4-0.4
			C208,209.9,207.9,209.8,207.7,209.7z"/>
		<path id="XMLID_165_" class="st7" d="M210.4,208.9c0.1,0,0.2,0,0.4-0.1c0.1-0.1,0.2-0.1,0.3-0.2c0.1-0.1,0.2-0.2,0.3-0.3
			c0.1-0.1,0.1-0.2,0.2-0.3c0.1-0.1,0.1-0.2,0.1-0.3c0-0.1,0-0.2,0-0.3c0-0.1-0.1-0.2-0.2-0.3c-0.1-0.1-0.3-0.1-0.5-0.1
			c-0.2,0.1-0.3,0.2-0.5,0.3c-0.2,0.1-0.3,0.3-0.5,0.5c-0.2,0.2-0.4,0.3-0.5,0.4c-0.2,0.1-0.4,0.2-0.6,0.2c-0.2,0-0.4,0-0.6-0.2
			c-0.2-0.1-0.3-0.3-0.4-0.4c-0.1-0.2-0.1-0.3-0.1-0.5c0-0.2,0-0.4,0.1-0.5c0.1-0.2,0.2-0.3,0.3-0.5c0.1-0.2,0.3-0.4,0.4-0.5
			c0.1-0.1,0.3-0.2,0.5-0.3c0.2-0.1,0.4-0.1,0.5-0.1c0.2,0,0.4,0.1,0.6,0.2l-0.4,0.6c-0.1-0.1-0.2-0.1-0.3-0.1c-0.1,0-0.2,0-0.3,0.1
			c-0.1,0-0.2,0.1-0.3,0.2c-0.1,0.1-0.2,0.2-0.2,0.3c-0.1,0.1-0.1,0.2-0.2,0.3c0,0.1-0.1,0.2-0.1,0.3c0,0.1,0,0.2,0,0.3
			c0,0.1,0.1,0.2,0.2,0.2c0.1,0.1,0.2,0.1,0.3,0.1c0.1,0,0.2-0.1,0.3-0.2c0.1-0.1,0.2-0.2,0.4-0.3c0.1-0.1,0.2-0.2,0.4-0.3
			c0.1-0.1,0.3-0.2,0.4-0.3c0.1-0.1,0.3-0.2,0.4-0.2c0.1-0.1,0.3-0.1,0.5-0.1c0.2,0,0.3,0.1,0.5,0.2c0.2,0.1,0.4,0.3,0.4,0.5
			c0.1,0.2,0.1,0.4,0.1,0.6c0,0.2-0.1,0.4-0.2,0.6c-0.1,0.2-0.2,0.4-0.3,0.6c-0.1,0.2-0.3,0.4-0.4,0.5c-0.2,0.1-0.3,0.3-0.5,0.3
			c-0.2,0.1-0.4,0.1-0.6,0.1c-0.2,0-0.4-0.1-0.6-0.2l0.4-0.6C210.2,208.9,210.3,208.9,210.4,208.9z"/>
		<path id="XMLID_161_" class="st7" d="M215.6,202.1c0,0.3-0.1,0.6-0.3,0.9c-0.2,0.3-0.4,0.6-0.6,0.7c-0.2,0.2-0.4,0.2-0.6,0.3
			c-0.2,0-0.4,0-0.6,0c-0.2-0.1-0.3-0.1-0.4-0.2c-0.2-0.1-0.4-0.2-0.5-0.4c-0.1-0.1-0.2-0.3-0.3-0.5c-0.1-0.2-0.1-0.4-0.1-0.6
			c0-0.2,0-0.4,0-0.6c-0.1,0-0.3,0-0.4,0.1c-0.1,0-0.3,0-0.4,0c-0.1,0-0.2,0-0.4,0c-0.1,0-0.2-0.1-0.4-0.1c-0.1-0.1-0.3-0.2-0.4-0.3
			c-0.1-0.1-0.2-0.3-0.2-0.4c0-0.2-0.1-0.3,0-0.5c0-0.2,0.1-0.4,0.2-0.5c0.1-0.2,0.2-0.3,0.3-0.4c0.1-0.1,0.3-0.2,0.4-0.3
			c0.2-0.1,0.3-0.1,0.5-0.1c0.2,0,0.3,0.1,0.5,0.1c0.2,0.1,0.3,0.2,0.4,0.3c0.1,0.1,0.2,0.3,0.2,0.4c0.1,0.1,0.1,0.3,0.1,0.5
			c0,0.2,0,0.3,0,0.5l1.6-0.3c-0.2-0.2-0.5-0.4-0.7-0.6l0.3-0.6c0.1,0.1,0.3,0.2,0.4,0.3c0.1,0.1,0.2,0.2,0.3,0.2
			c0.1,0.1,0.1,0.2,0.2,0.2c0.1,0.1,0.1,0.2,0.2,0.3l1.7-0.4l-0.4,0.8l-0.9,0.2C215.6,201.5,215.7,201.8,215.6,202.1z M212.2,200.8
			c0-0.1,0-0.2-0.1-0.3c0-0.1-0.1-0.2-0.2-0.3c-0.1-0.1-0.2-0.2-0.3-0.2c-0.1-0.1-0.3-0.1-0.5-0.1c-0.2,0-0.3,0.2-0.4,0.3
			c-0.1,0.1-0.1,0.3-0.1,0.5c0,0.2,0.1,0.3,0.3,0.4c0.1,0,0.2,0.1,0.3,0.1c0.1,0,0.2,0,0.3,0c0.1,0,0.2,0,0.3,0c0.1,0,0.2,0,0.3-0.1
			C212.2,201,212.2,200.9,212.2,200.8z M212.8,202.1c0,0.1,0,0.3,0.1,0.4c0,0.1,0.1,0.3,0.2,0.4c0.1,0.1,0.2,0.2,0.4,0.3
			c0.1,0.1,0.3,0.1,0.4,0.1c0.1,0,0.3,0,0.4-0.1c0.1,0,0.2-0.1,0.3-0.2c0.1-0.1,0.2-0.2,0.3-0.3c0.1-0.2,0.2-0.5,0.2-0.7
			c0-0.2-0.1-0.5-0.2-0.7l-2.1,0.4C212.8,201.8,212.8,202,212.8,202.1z"/>
		<path id="XMLID_159_" class="st7" d="M214.8,192.2c-0.3,0.2-0.5,0.5-0.7,0.9c-0.1,0.3-0.2,0.6-0.2,0.9c0,0.3,0.1,0.5,0.3,0.8
			c0.1,0.2,0.3,0.4,0.6,0.6c0.2,0.2,0.5,0.3,0.8,0.4c0.3,0.1,0.6,0.2,0.9,0.2c0.3,0,0.6,0,0.9,0c0.3-0.1,0.5-0.2,0.7-0.4
			c0.2-0.2,0.4-0.4,0.5-0.8c0.1-0.2,0.1-0.5,0.1-0.7c0-0.2,0-0.4-0.1-0.6c-0.1-0.2-0.2-0.4-0.4-0.5c-0.2-0.2-0.4-0.3-0.6-0.4
			l0.3-0.7c0.7,0.3,1.1,0.8,1.3,1.3c0.2,0.6,0.2,1.2-0.1,1.9c-0.2,0.4-0.4,0.8-0.7,1c-0.3,0.3-0.6,0.4-0.9,0.5
			c-0.3,0.1-0.7,0.1-1.1,0.1c-0.4,0-0.8-0.1-1.2-0.3c-0.4-0.2-0.7-0.4-1-0.6c-0.3-0.2-0.5-0.5-0.7-0.9c-0.2-0.3-0.3-0.7-0.3-1
			c0-0.4,0.1-0.8,0.2-1.2c0.1-0.3,0.3-0.5,0.4-0.8c0.2-0.2,0.4-0.4,0.6-0.5c0.2-0.1,0.5-0.2,0.7-0.3c0.3,0,0.6,0,0.9,0l-0.3,0.7
			C215.5,191.9,215.1,192,214.8,192.2z"/>
		<path id="XMLID_157_" class="st7" d="M215,189.2l5.5,1.9l-0.2,0.7l-5.5-1.9L215,189.2z"/>
		<path id="XMLID_154_" class="st7" d="M221.9,186.3c0,0.1,0,0.3,0,0.5c0,0.2-0.1,0.3-0.3,0.4c-0.1,0.1-0.3,0.1-0.5,0
			c0.2,0.2,0.3,0.5,0.3,0.8c0,0.3,0,0.5-0.1,0.8c-0.1,0.2-0.1,0.4-0.2,0.5c-0.1,0.2-0.2,0.3-0.3,0.4c-0.1,0.1-0.3,0.2-0.4,0.2
			c-0.2,0-0.3,0-0.6,0c-0.2-0.1-0.4-0.2-0.5-0.3c-0.1-0.1-0.2-0.3-0.3-0.4c-0.1-0.2-0.1-0.3-0.1-0.5c0-0.2,0-0.4,0-0.5
			c0-0.2,0-0.4,0.1-0.5c0-0.2,0-0.3,0-0.5c0-0.1,0-0.2-0.1-0.3c0-0.1-0.1-0.2-0.3-0.2c-0.1,0-0.3,0-0.4,0c-0.1,0-0.2,0.1-0.3,0.2
			c-0.1,0.1-0.1,0.2-0.2,0.3c0,0.1-0.1,0.2-0.1,0.3c-0.1,0.3-0.1,0.5,0,0.8c0.1,0.2,0.2,0.4,0.5,0.5l-0.2,0.7
			c-0.2-0.1-0.4-0.2-0.6-0.3c-0.1-0.1-0.2-0.3-0.3-0.5c-0.1-0.2-0.1-0.4-0.1-0.6c0-0.2,0-0.4,0.1-0.7c0.1-0.2,0.1-0.4,0.2-0.5
			c0.1-0.2,0.2-0.3,0.3-0.4c0.1-0.1,0.3-0.2,0.4-0.3c0.2,0,0.4,0,0.6,0l2.1,0.6c0.2,0,0.3,0.1,0.4,0.1c0.1,0,0.1,0,0.2-0.2
			c0-0.1,0-0.1,0-0.2L221.9,186.3z M219.5,186.8c0,0.1,0.1,0.2,0,0.4c0,0.1,0,0.3-0.1,0.4c0,0.2,0,0.3-0.1,0.5c0,0.2,0,0.3,0,0.4
			c0,0.1,0.1,0.3,0.1,0.4c0.1,0.1,0.2,0.2,0.4,0.2c0.1,0,0.2,0,0.3,0c0.1,0,0.2-0.1,0.2-0.1c0.1-0.1,0.1-0.1,0.2-0.2
			c0-0.1,0.1-0.2,0.1-0.3c0.1-0.2,0.1-0.4,0.1-0.6c0-0.2-0.1-0.3-0.1-0.5c-0.1-0.1-0.1-0.2-0.2-0.3c-0.1-0.1-0.2-0.1-0.3-0.2
			L219.5,186.8z"/>
		<path id="XMLID_152_" class="st7" d="M221.3,184.8c0.1,0,0.2-0.1,0.3-0.2c0.1-0.1,0.2-0.2,0.2-0.3c0.1-0.1,0.1-0.3,0.1-0.4
			c0-0.1,0-0.2,0-0.3c0-0.1,0-0.2,0-0.3c0-0.1-0.1-0.2-0.1-0.3c-0.1-0.1-0.2-0.1-0.3-0.2c-0.2,0-0.3,0-0.4,0.1
			c-0.1,0.1-0.2,0.3-0.3,0.5c-0.1,0.2-0.2,0.4-0.3,0.6c-0.1,0.2-0.2,0.4-0.3,0.6c-0.1,0.2-0.3,0.3-0.5,0.4c-0.2,0.1-0.4,0.1-0.7,0.1
			c-0.2,0-0.4-0.1-0.5-0.3c-0.1-0.1-0.2-0.3-0.3-0.4c-0.1-0.2-0.1-0.3-0.1-0.5c0-0.2,0-0.4,0-0.6c0.1-0.2,0.1-0.4,0.2-0.6
			c0.1-0.2,0.2-0.3,0.3-0.5c0.1-0.1,0.3-0.2,0.5-0.3c0.2-0.1,0.4-0.1,0.7,0l-0.1,0.7c-0.1,0-0.3,0-0.4,0c-0.1,0-0.2,0.1-0.3,0.2
			c-0.1,0.1-0.1,0.2-0.2,0.3c0,0.1-0.1,0.2-0.1,0.3c0,0.1,0,0.2,0,0.3c0,0.1,0,0.2,0,0.3c0,0.1,0.1,0.2,0.1,0.2
			c0.1,0.1,0.1,0.1,0.2,0.1c0.1,0,0.2,0,0.3-0.1c0.1-0.1,0.2-0.2,0.3-0.3c0.1-0.1,0.2-0.2,0.2-0.4c0.1-0.2,0.1-0.3,0.2-0.5
			c0.1-0.2,0.2-0.3,0.2-0.5c0.1-0.2,0.2-0.3,0.3-0.4c0.1-0.1,0.2-0.2,0.4-0.2c0.1,0,0.3-0.1,0.5,0c0.2,0.1,0.4,0.2,0.6,0.3
			c0.1,0.1,0.2,0.3,0.3,0.5c0.1,0.2,0.1,0.4,0.1,0.6c0,0.2,0,0.4-0.1,0.6c-0.1,0.2-0.1,0.4-0.2,0.6c-0.1,0.2-0.2,0.4-0.4,0.5
			c-0.1,0.1-0.3,0.2-0.5,0.3c-0.2,0.1-0.4,0.1-0.7,0l0.1-0.7C221,184.9,221.2,184.9,221.3,184.8z"/>
		<path id="XMLID_150_" class="st7" d="M222.1,180.7c0.1,0,0.2-0.1,0.3-0.2c0.1-0.1,0.1-0.2,0.2-0.3c0-0.1,0.1-0.3,0.1-0.4
			c0-0.1,0-0.2,0-0.3c0-0.1,0-0.2,0-0.3c0-0.1-0.1-0.2-0.2-0.3c-0.1-0.1-0.2-0.1-0.3-0.1c-0.2,0-0.3,0-0.4,0.1
			c-0.1,0.1-0.2,0.3-0.3,0.5c-0.1,0.2-0.2,0.4-0.3,0.6c-0.1,0.2-0.2,0.4-0.3,0.6c-0.1,0.2-0.3,0.3-0.4,0.5c-0.2,0.1-0.4,0.1-0.7,0.1
			c-0.2,0-0.4-0.1-0.5-0.2c-0.1-0.1-0.2-0.3-0.3-0.4c-0.1-0.2-0.1-0.3-0.1-0.5c0-0.2,0-0.4,0-0.6c0-0.2,0.1-0.5,0.2-0.6
			c0.1-0.2,0.2-0.4,0.3-0.5c0.1-0.1,0.3-0.2,0.5-0.3c0.2-0.1,0.4-0.1,0.7-0.1l-0.1,0.7c-0.1,0-0.3,0-0.4,0.1c-0.1,0-0.2,0.1-0.2,0.2
			c-0.1,0.1-0.1,0.2-0.2,0.3c0,0.1-0.1,0.2-0.1,0.3c0,0.1,0,0.2,0,0.3c0,0.1,0,0.2,0,0.3c0,0.1,0.1,0.2,0.1,0.2
			c0.1,0.1,0.1,0.1,0.2,0.1c0.1,0,0.2,0,0.3-0.1c0.1-0.1,0.2-0.2,0.2-0.3c0.1-0.1,0.1-0.3,0.2-0.4c0.1-0.2,0.1-0.3,0.2-0.5
			c0.1-0.2,0.1-0.3,0.2-0.5c0.1-0.2,0.2-0.3,0.3-0.4c0.1-0.1,0.2-0.2,0.4-0.3c0.1-0.1,0.3-0.1,0.5,0c0.3,0,0.5,0.1,0.6,0.3
			c0.2,0.1,0.3,0.3,0.3,0.5c0.1,0.2,0.1,0.4,0.1,0.6c0,0.2,0,0.4,0,0.6c0,0.2-0.1,0.4-0.2,0.7c-0.1,0.2-0.2,0.4-0.3,0.5
			c-0.1,0.1-0.3,0.3-0.5,0.3c-0.2,0.1-0.4,0.1-0.7,0.1l0.1-0.7C221.9,180.8,222,180.7,222.1,180.7z"/>
		<path id="XMLID_148_" class="st7" d="M219.4,176.1l0.9,0.1l0,0c-0.3-0.2-0.6-0.4-0.7-0.7c-0.1-0.3-0.2-0.6-0.1-0.9l0.7,0.1
			c0,0.3,0,0.5,0,0.7c0.1,0.2,0.2,0.4,0.3,0.5c0.1,0.1,0.3,0.2,0.5,0.3c0.2,0.1,0.4,0.1,0.7,0.2l1.9,0.2l-0.1,0.7l-4.2-0.4
			L219.4,176.1z"/>
		<path id="XMLID_145_" class="st7" d="M220.9,174.4c-0.3-0.1-0.5-0.2-0.7-0.4c-0.2-0.2-0.3-0.4-0.4-0.7c-0.1-0.3-0.1-0.6-0.1-0.9
			c0-0.3,0.1-0.6,0.2-0.9c0.1-0.2,0.3-0.5,0.5-0.6c0.2-0.2,0.4-0.3,0.7-0.4c0.3-0.1,0.6-0.1,0.9-0.1c0.3,0,0.6,0.1,0.9,0.2
			c0.3,0.1,0.5,0.2,0.7,0.4c0.2,0.2,0.3,0.4,0.4,0.7c0.1,0.3,0.1,0.6,0.1,0.9c0,0.3-0.1,0.6-0.2,0.9c-0.1,0.2-0.3,0.5-0.5,0.6
			c-0.2,0.2-0.4,0.3-0.7,0.4c-0.3,0.1-0.6,0.1-0.9,0.1C221.4,174.6,221.1,174.5,220.9,174.4z M222.4,173.8c0.2-0.1,0.4-0.1,0.5-0.3
			c0.1-0.1,0.2-0.2,0.3-0.4c0.1-0.2,0.1-0.3,0.1-0.5c0-0.2,0-0.4-0.1-0.5c-0.1-0.2-0.2-0.3-0.3-0.4c-0.1-0.1-0.3-0.2-0.5-0.3
			c-0.2-0.1-0.4-0.1-0.7-0.1c-0.3,0-0.5,0-0.7,0.1c-0.2,0.1-0.4,0.1-0.5,0.3c-0.1,0.1-0.3,0.2-0.3,0.4c-0.1,0.2-0.1,0.3-0.1,0.5
			c0,0.2,0,0.4,0.1,0.5c0.1,0.2,0.2,0.3,0.3,0.4c0.1,0.1,0.3,0.2,0.5,0.3c0.2,0.1,0.4,0.1,0.7,0.1
			C222,173.9,222.2,173.8,222.4,173.8z"/>
		<path id="XMLID_142_" class="st7" d="M221.1,169.7c-0.3-0.1-0.5-0.2-0.7-0.4c-0.2-0.2-0.4-0.4-0.5-0.6c-0.1-0.3-0.2-0.5-0.2-0.9
			c0-0.3,0-0.6,0.2-0.9c0.1-0.3,0.3-0.5,0.5-0.7c0.2-0.2,0.4-0.3,0.7-0.4c0.3-0.1,0.6-0.1,0.9-0.1c0.3,0,0.6,0,0.9,0.1
			c0.3,0.1,0.5,0.2,0.7,0.4c0.2,0.2,0.4,0.4,0.5,0.6c0.1,0.3,0.2,0.5,0.2,0.9c0,0.3,0,0.6-0.1,0.9c-0.1,0.3-0.3,0.5-0.5,0.7
			c-0.2,0.2-0.4,0.3-0.7,0.4c-0.3,0.1-0.6,0.1-0.9,0.1C221.6,169.8,221.3,169.8,221.1,169.7z M222.6,169c0.2-0.1,0.4-0.2,0.5-0.3
			c0.1-0.1,0.2-0.3,0.3-0.4c0.1-0.2,0.1-0.3,0.1-0.5c0-0.2,0-0.3-0.1-0.5c-0.1-0.2-0.2-0.3-0.3-0.4c-0.1-0.1-0.3-0.2-0.5-0.3
			c-0.2-0.1-0.4-0.1-0.7-0.1c-0.3,0-0.5,0-0.7,0.1c-0.2,0.1-0.4,0.2-0.5,0.3c-0.1,0.1-0.2,0.3-0.3,0.4c-0.1,0.2-0.1,0.3-0.1,0.5
			c0,0.2,0,0.4,0.1,0.5c0.1,0.2,0.2,0.3,0.3,0.4c0.1,0.1,0.3,0.2,0.5,0.3c0.2,0.1,0.4,0.1,0.7,0.1
			C222.2,169.1,222.4,169.1,222.6,169z"/>
		<path id="XMLID_140_" class="st7" d="M219.7,164.4l0.6-0.1l0,0c-0.5-0.3-0.8-0.7-0.9-1.3c0-0.3,0-0.5,0.1-0.7
			c0.1-0.2,0.3-0.4,0.5-0.5c-0.2-0.1-0.4-0.3-0.6-0.5c-0.1-0.2-0.2-0.5-0.3-0.7c0-0.2,0-0.4,0-0.6c0-0.2,0.1-0.3,0.2-0.5
			c0.1-0.1,0.2-0.2,0.3-0.3c0.1-0.1,0.3-0.1,0.5-0.2l3.1-0.3l0.1,0.7l-2.8,0.3c-0.1,0-0.3,0-0.4,0.1c-0.1,0-0.2,0.1-0.3,0.2
			c-0.1,0.1-0.1,0.2-0.2,0.3c0,0.1,0,0.3,0,0.4c0,0.3,0.2,0.6,0.4,0.8c0.2,0.2,0.5,0.2,0.8,0.2l2.6-0.3l0.1,0.7l-2.8,0.3
			c-0.1,0-0.3,0-0.4,0.1c-0.1,0-0.2,0.1-0.3,0.2c-0.1,0.1-0.1,0.2-0.2,0.3c0,0.1,0,0.2,0,0.4c0,0.2,0.1,0.4,0.2,0.5
			c0.1,0.1,0.2,0.2,0.3,0.3c0.1,0.1,0.2,0.1,0.4,0.2c0.1,0,0.2,0,0.3,0l2.6-0.3l0.1,0.7l-4.2,0.4L219.7,164.4z"/>
	</g>
	<g id="XMLID_106_">
		<path id="XMLID_137_" class="st7" d="M126.9,105.8c-0.4-0.1-0.7,0-1.1,0.2c-0.3,0.1-0.6,0.3-0.7,0.5c-0.2,0.2-0.3,0.5-0.3,0.7
			c-0.1,0.3-0.1,0.5,0,0.8c0,0.3,0.1,0.6,0.3,0.9c0.1,0.3,0.3,0.6,0.5,0.8c0.2,0.2,0.4,0.4,0.6,0.6c0.2,0.1,0.5,0.2,0.8,0.2
			c0.3,0,0.6,0,0.9-0.2c0.2-0.1,0.4-0.2,0.6-0.4c0.1-0.2,0.3-0.3,0.3-0.5c0.1-0.2,0.1-0.4,0.1-0.6c0-0.2-0.1-0.4-0.1-0.7l0.7-0.3
			c0.2,0.7,0.2,1.3,0,1.9c-0.2,0.5-0.7,1-1.4,1.3c-0.4,0.2-0.8,0.3-1.2,0.3c-0.4,0-0.7-0.1-1-0.2c-0.3-0.2-0.6-0.4-0.9-0.7
			c-0.3-0.3-0.5-0.6-0.6-1c-0.2-0.4-0.3-0.8-0.3-1.2c0-0.4,0-0.8,0.1-1.1c0.1-0.3,0.3-0.7,0.5-1c0.2-0.3,0.6-0.5,1-0.7
			c0.3-0.1,0.6-0.2,0.8-0.2c0.3,0,0.6,0,0.8,0c0.3,0.1,0.5,0.2,0.7,0.3c0.2,0.2,0.4,0.4,0.6,0.6l-0.7,0.3
			C127.6,106.1,127.3,105.9,126.9,105.8z"/>
		<path id="XMLID_134_" class="st7" d="M129.8,106.8c0-0.3,0-0.5,0.1-0.8c0.1-0.2,0.2-0.5,0.4-0.7c0.2-0.2,0.5-0.3,0.8-0.5
			c0.3-0.1,0.6-0.2,0.9-0.1c0.3,0,0.5,0.1,0.8,0.2c0.2,0.1,0.4,0.3,0.6,0.5c0.2,0.2,0.3,0.5,0.4,0.8c0.1,0.3,0.2,0.6,0.2,0.9
			c0,0.3,0,0.5-0.1,0.8c-0.1,0.2-0.2,0.5-0.4,0.7c-0.2,0.2-0.5,0.3-0.8,0.5c-0.3,0.1-0.6,0.2-0.9,0.1c-0.3,0-0.5-0.1-0.8-0.2
			c-0.2-0.1-0.4-0.3-0.6-0.5c-0.2-0.2-0.3-0.5-0.4-0.8C129.8,107.4,129.8,107.1,129.8,106.8z M131,108c0.1,0.2,0.3,0.3,0.4,0.4
			c0.2,0.1,0.3,0.1,0.5,0.1c0.2,0,0.3,0,0.5-0.1c0.2-0.1,0.3-0.2,0.4-0.3c0.1-0.1,0.2-0.3,0.3-0.4c0.1-0.2,0.1-0.4,0.1-0.6
			c0-0.2,0-0.4-0.1-0.7c-0.1-0.2-0.2-0.4-0.3-0.6c-0.1-0.2-0.3-0.3-0.4-0.4c-0.2-0.1-0.3-0.1-0.5-0.1c-0.2,0-0.3,0-0.5,0.1
			c-0.2,0.1-0.3,0.2-0.4,0.3c-0.1,0.1-0.2,0.3-0.3,0.4c-0.1,0.2-0.1,0.4-0.1,0.6c0,0.2,0,0.4,0.1,0.7
			C130.7,107.7,130.8,107.9,131,108z"/>
		<path id="XMLID_132_" class="st7" d="M134.6,103.8l0.2,0.6l0,0c0.2-0.5,0.6-0.9,1.1-1c0.3-0.1,0.5-0.1,0.7,0
			c0.2,0.1,0.4,0.2,0.6,0.4c0.1-0.3,0.2-0.5,0.4-0.7c0.2-0.2,0.4-0.3,0.7-0.4c0.2-0.1,0.4-0.1,0.6-0.1c0.2,0,0.3,0,0.5,0.1
			c0.1,0.1,0.3,0.2,0.4,0.3c0.1,0.1,0.2,0.3,0.2,0.5l0.8,3l-0.7,0.2l-0.7-2.7c0-0.1-0.1-0.2-0.1-0.3c-0.1-0.1-0.1-0.2-0.2-0.3
			c-0.1-0.1-0.2-0.1-0.3-0.1c-0.1,0-0.3,0-0.4,0c-0.3,0.1-0.6,0.3-0.7,0.5c-0.1,0.2-0.2,0.5-0.1,0.8l0.7,2.5l-0.7,0.2l-0.7-2.7
			c0-0.1-0.1-0.3-0.1-0.4c-0.1-0.1-0.1-0.2-0.2-0.3c-0.1-0.1-0.2-0.1-0.3-0.1c-0.1,0-0.2,0-0.4,0c-0.2,0.1-0.4,0.1-0.5,0.3
			c-0.1,0.1-0.2,0.2-0.3,0.4c-0.1,0.1-0.1,0.3-0.1,0.4c0,0.1,0,0.2,0,0.3l0.7,2.5l-0.7,0.2L134,104L134.6,103.8z"/>
		<path id="XMLID_130_" class="st7" d="M141.5,102.1l0.1,0.6l0,0c0.2-0.5,0.7-0.8,1.2-0.9c0.3,0,0.5,0,0.7,0.1
			c0.2,0.1,0.4,0.2,0.5,0.5c0.1-0.2,0.3-0.5,0.5-0.6c0.2-0.2,0.5-0.3,0.7-0.3c0.2,0,0.4,0,0.6,0c0.2,0,0.3,0.1,0.5,0.1
			c0.1,0.1,0.2,0.2,0.3,0.3c0.1,0.1,0.2,0.3,0.2,0.5l0.5,3.1l-0.7,0.1l-0.4-2.7c0-0.1,0-0.2-0.1-0.4c0-0.1-0.1-0.2-0.2-0.3
			c-0.1-0.1-0.2-0.1-0.3-0.2c-0.1,0-0.3,0-0.4,0c-0.3,0.1-0.6,0.2-0.8,0.4c-0.2,0.2-0.2,0.5-0.2,0.8l0.4,2.6l-0.7,0.1l-0.4-2.7
			c0-0.1-0.1-0.3-0.1-0.4c0-0.1-0.1-0.2-0.2-0.3c-0.1-0.1-0.2-0.1-0.3-0.2c-0.1,0-0.2,0-0.4,0c-0.2,0-0.4,0.1-0.5,0.2
			c-0.1,0.1-0.2,0.2-0.3,0.3c-0.1,0.1-0.1,0.3-0.1,0.4c0,0.1,0,0.2,0,0.3l0.4,2.6l-0.7,0.1l-0.6-4.2L141.5,102.1z"/>
		<path id="XMLID_128_" class="st7" d="M151,105.3l0-0.7h0c-0.1,0.3-0.3,0.5-0.5,0.6c-0.2,0.1-0.5,0.2-0.8,0.2c-0.3,0-0.5,0-0.7-0.1
			c-0.2-0.1-0.3-0.2-0.5-0.3c-0.1-0.1-0.2-0.3-0.3-0.5c-0.1-0.2-0.1-0.4-0.1-0.6l-0.2-2.8l0.7,0l0.2,2.9c0,0.3,0.1,0.5,0.3,0.6
			c0.2,0.1,0.4,0.2,0.6,0.2c0.2,0,0.4-0.1,0.5-0.1c0.2-0.1,0.3-0.2,0.4-0.3c0.1-0.1,0.2-0.3,0.2-0.4c0-0.2,0.1-0.3,0-0.5l-0.2-2.4
			l0.7,0l0.3,4.2L151,105.3z"/>
		<path id="XMLID_126_" class="st7" d="M153.2,101l0,0.7l0,0c0.3-0.5,0.8-0.8,1.4-0.8c0.3,0,0.5,0,0.7,0.1c0.2,0.1,0.3,0.2,0.4,0.3
			c0.1,0.1,0.2,0.3,0.2,0.5c0,0.2,0.1,0.4,0.1,0.6l0,2.8l-0.7,0l0-2.9c0-0.3-0.1-0.5-0.2-0.6c-0.2-0.2-0.4-0.2-0.6-0.2
			c-0.2,0-0.4,0-0.6,0.1c-0.2,0.1-0.3,0.2-0.4,0.3c-0.1,0.1-0.2,0.3-0.2,0.4c-0.1,0.2-0.1,0.3-0.1,0.5l0,2.4l-0.7,0l0-4.2L153.2,101
			z"/>
		<path id="XMLID_123_" class="st7" d="M157.8,101.1l-0.2,4.2l-0.7,0l0.2-4.2L157.8,101.1z M157.2,100.3l0-0.8l0.7,0l0,0.8
			L157.2,100.3z"/>
		<path id="XMLID_121_" class="st7" d="M160.7,101.3l0,0.6l-0.8-0.1l-0.2,2.6c0,0.1,0,0.1,0,0.2c0,0.1,0,0.1,0.1,0.1
			c0,0,0.1,0.1,0.2,0.1c0.1,0,0.2,0,0.3,0l0.3,0l0,0.6l-0.5,0c-0.2,0-0.3,0-0.5-0.1c-0.1,0-0.2-0.1-0.3-0.2
			c-0.1-0.1-0.1-0.2-0.2-0.3c0-0.1,0-0.3,0-0.5l0.2-2.7l-0.7-0.1l0-0.6l0.7,0.1l0.1-1.3l0.7,0.1l-0.1,1.3L160.7,101.3z"/>
		<path id="XMLID_119_" class="st7" d="M162.6,106.3c-0.1,0.2-0.2,0.4-0.3,0.5c-0.1,0.1-0.2,0.2-0.3,0.3c-0.1,0.1-0.2,0.1-0.3,0.2
			c-0.1,0-0.3,0-0.4,0c-0.1,0-0.2,0-0.2,0c-0.1,0-0.2,0-0.2-0.1l0.1-0.6c0.1,0,0.1,0.1,0.2,0.1c0.1,0,0.1,0,0.2,0.1
			c0.1,0,0.3,0,0.4-0.1c0.1-0.1,0.2-0.1,0.3-0.3l0.4-0.7l-1.1-4.4l0.8,0.1l0.8,3.6l0,0l1.6-3.3l0.7,0.1L162.6,106.3z"/>
		<path id="XMLID_117_" class="st7" d="M168.5,106.8l-0.7-6.1l0.8,0.2l0.5,5.3l0,0l2.8-4.5l0.8,0.2l-3.4,5.2L168.5,106.8z"/>
		<path id="XMLID_114_" class="st7" d="M174.8,108.5c-0.1,0-0.3,0-0.5,0c-0.2-0.1-0.3-0.1-0.4-0.3c-0.1-0.1-0.1-0.3,0-0.5
			c-0.2,0.2-0.5,0.3-0.8,0.3c-0.3,0-0.5,0-0.8-0.1c-0.2-0.1-0.3-0.1-0.5-0.2c-0.2-0.1-0.3-0.2-0.4-0.3s-0.2-0.3-0.2-0.4
			c0-0.2,0-0.3,0.1-0.6c0.1-0.2,0.2-0.4,0.3-0.5c0.1-0.1,0.3-0.2,0.4-0.3c0.2-0.1,0.3-0.1,0.5-0.1c0.2,0,0.4,0,0.5,0
			c0.2,0,0.4,0,0.5,0.1c0.2,0,0.3,0,0.5,0.1c0.1,0,0.2,0,0.3-0.1c0.1,0,0.2-0.1,0.2-0.3c0-0.1,0.1-0.3,0-0.4c0-0.1-0.1-0.2-0.1-0.3
			c-0.1-0.1-0.2-0.1-0.3-0.2c-0.1,0-0.2-0.1-0.3-0.1c-0.3-0.1-0.5-0.1-0.8-0.1c-0.2,0.1-0.4,0.2-0.5,0.5l-0.7-0.2
			c0.1-0.2,0.2-0.4,0.3-0.6c0.1-0.1,0.3-0.2,0.5-0.3c0.2-0.1,0.4-0.1,0.6-0.1c0.2,0,0.4,0.1,0.7,0.1c0.2,0.1,0.4,0.1,0.5,0.2
			c0.2,0.1,0.3,0.2,0.4,0.3c0.1,0.1,0.2,0.3,0.2,0.4c0,0.2,0,0.4,0,0.6l-0.6,2.1c0,0.2-0.1,0.3-0.1,0.4c0,0.1,0,0.1,0.2,0.2
			c0.1,0,0.1,0,0.2,0L174.8,108.5z M174.4,106.2c-0.1,0-0.2,0-0.4,0c-0.1,0-0.3,0-0.4-0.1c-0.2,0-0.3-0.1-0.5-0.1
			c-0.2,0-0.3,0-0.4,0c-0.1,0-0.3,0.1-0.4,0.1c-0.1,0.1-0.2,0.2-0.2,0.4c0,0.1,0,0.2,0,0.3c0,0.1,0.1,0.2,0.1,0.2
			c0.1,0.1,0.1,0.1,0.2,0.2c0.1,0,0.2,0.1,0.3,0.1c0.2,0.1,0.4,0.1,0.6,0.1c0.2,0,0.3,0,0.5-0.1c0.1-0.1,0.2-0.1,0.3-0.2
			c0.1-0.1,0.1-0.2,0.2-0.3L174.4,106.2z"/>
		<path id="XMLID_112_" class="st7" d="M177.9,103.5l-2,5.5l-0.7-0.2l2-5.5L177.9,103.5z"/>
		<path id="XMLID_110_" class="st7" d="M179.5,110.4l0.3-0.6l0,0c-0.2,0.2-0.5,0.3-0.7,0.3c-0.3,0-0.5,0-0.8-0.1
			c-0.3-0.1-0.5-0.2-0.6-0.4c-0.1-0.1-0.2-0.3-0.3-0.5c-0.1-0.2-0.1-0.4,0-0.5c0-0.2,0.1-0.4,0.2-0.6l1.1-2.6l0.6,0.3l-1.1,2.6
			c-0.1,0.2-0.1,0.5,0,0.7c0.1,0.2,0.2,0.3,0.5,0.4c0.2,0.1,0.4,0.1,0.5,0.1c0.2,0,0.3,0,0.5-0.1c0.1-0.1,0.3-0.2,0.4-0.3
			c0.1-0.1,0.2-0.3,0.3-0.5l0.9-2.2l0.6,0.3l-1.6,3.9L179.5,110.4z"/>
		<path id="XMLID_107_" class="st7" d="M183.7,112.1c-0.4,0.1-0.8,0-1.2-0.2c-0.3-0.1-0.5-0.3-0.7-0.5c-0.2-0.2-0.3-0.4-0.4-0.7
			c-0.1-0.3-0.1-0.5,0-0.8c0-0.3,0.1-0.6,0.3-0.9c0.1-0.3,0.3-0.5,0.5-0.7c0.2-0.2,0.4-0.3,0.7-0.4c0.2-0.1,0.5-0.1,0.8-0.1
			c0.3,0,0.5,0.1,0.8,0.2c0.3,0.2,0.6,0.4,0.7,0.6c0.2,0.2,0.2,0.5,0.3,0.8c0,0.3,0,0.6-0.1,0.8c-0.1,0.3-0.2,0.5-0.3,0.8l-2.8-1.4
			c-0.1,0.2-0.1,0.3-0.2,0.5c0,0.2,0,0.3,0,0.5c0,0.2,0.1,0.3,0.2,0.5c0.1,0.1,0.3,0.3,0.5,0.4c0.3,0.1,0.5,0.2,0.7,0.1
			c0.2,0,0.4-0.2,0.6-0.4l0.6,0.3C184.4,111.8,184.1,112,183.7,112.1z M184.7,109.6c0-0.2,0-0.3-0.1-0.5c0-0.1-0.1-0.3-0.2-0.4
			c-0.1-0.1-0.2-0.2-0.4-0.3c-0.2-0.1-0.3-0.1-0.5-0.1c-0.2,0-0.3,0-0.4,0.1c-0.1,0.1-0.3,0.1-0.4,0.2c-0.1,0.1-0.2,0.2-0.3,0.4
			l2.2,1.1C184.7,109.9,184.7,109.7,184.7,109.6z"/>
	</g>
	<g id="XMLID_58_">
		<path id="XMLID_104_" class="st7" d="M119.3,167.5l-0.4,0l0.2-2.2l-1.2-0.1l-0.2,2l-0.4,0l0.2-2L116,165l-0.2,2.2l-0.4,0l0.2-2.7
			l3.9,0.3L119.3,167.5z"/>
		<path id="XMLID_101_" class="st7" d="M115.4,169.9l0.4,0v0c-0.2-0.1-0.3-0.2-0.3-0.4c-0.1-0.2-0.1-0.3-0.1-0.5
			c0-0.2,0-0.4,0.1-0.6c0.1-0.2,0.2-0.3,0.3-0.4c0.1-0.1,0.3-0.2,0.5-0.2c0.2-0.1,0.4-0.1,0.6-0.1c0.2,0,0.4,0,0.6,0.1
			c0.2,0.1,0.3,0.1,0.5,0.2c0.1,0.1,0.2,0.2,0.3,0.4c0.1,0.2,0.1,0.3,0.1,0.6c0,0.1,0,0.2,0,0.2c0,0.1,0,0.2-0.1,0.2
			c0,0.1-0.1,0.2-0.1,0.2c-0.1,0.1-0.1,0.1-0.2,0.2v0l1.4,0l0,0.5l-3.9,0L115.4,169.9z M116.4,168.2c-0.1,0-0.2,0.1-0.3,0.2
			c-0.1,0.1-0.2,0.2-0.2,0.3c-0.1,0.1-0.1,0.2-0.1,0.4c0,0.2,0,0.3,0.1,0.4c0.1,0.1,0.1,0.2,0.2,0.3c0.1,0.1,0.2,0.1,0.3,0.2
			c0.1,0,0.3,0,0.4,0c0.1,0,0.3,0,0.4,0c0.1,0,0.2-0.1,0.3-0.2c0.1-0.1,0.2-0.2,0.2-0.3c0.1-0.1,0.1-0.2,0.1-0.4
			c0-0.2,0-0.3-0.1-0.4c-0.1-0.1-0.1-0.2-0.2-0.3c-0.1-0.1-0.2-0.1-0.3-0.1c-0.1,0-0.3,0-0.4,0C116.6,168.2,116.5,168.2,116.4,168.2
			z"/>
		<path id="XMLID_98_" class="st7" d="M118.3,171.5l-2.8,0.2l0-0.5l2.8-0.2L118.3,171.5z M118.7,171l0.6,0l0,0.5l-0.6,0L118.7,171z"
			/>
		<path id="XMLID_96_" class="st7" d="M118.4,173.4l-0.4,0l-0.1-0.6l-1.7,0.2c-0.1,0-0.1,0-0.1,0c0,0-0.1,0-0.1,0.1c0,0,0,0.1,0,0.1
			c0,0,0,0.1,0,0.2l0,0.2l-0.4,0l0-0.4c0-0.1,0-0.2,0-0.3c0-0.1,0-0.2,0.1-0.2c0-0.1,0.1-0.1,0.2-0.1c0.1,0,0.2-0.1,0.3-0.1l1.8-0.2
			l0-0.5l0.4,0l0,0.5l0.8-0.1l0,0.5l-0.8,0.1L118.4,173.4z"/>
		<path id="XMLID_93_" class="st7" d="M118.5,174.4l-2.8,0.4l-0.1-0.5l2.8-0.4L118.5,174.4z M119,173.8l0.6-0.1l0.1,0.5l-0.6,0.1
			L119,173.8z"/>
		<path id="XMLID_91_" class="st7" d="M118.7,175.4l-0.4,0.1l0,0c0.4,0.1,0.6,0.4,0.7,0.8c0,0.2,0,0.3,0,0.5c0,0.1-0.1,0.2-0.2,0.3
			c-0.1,0.1-0.2,0.2-0.3,0.2c-0.1,0.1-0.2,0.1-0.4,0.1l-1.8,0.4l-0.1-0.5l1.9-0.4c0.2,0,0.3-0.1,0.4-0.2c0.1-0.1,0.1-0.3,0.1-0.4
			c0-0.1-0.1-0.3-0.1-0.3c-0.1-0.1-0.1-0.2-0.2-0.2c-0.1-0.1-0.2-0.1-0.3-0.1c-0.1,0-0.2,0-0.4,0L116,176l-0.1-0.5l2.8-0.5
			L118.7,175.4z"/>
		<path id="XMLID_88_" class="st7" d="M116.3,180.9c-0.3-0.1-0.5-0.4-0.6-0.9c0-0.1-0.1-0.3-0.1-0.4c0-0.1,0-0.3,0-0.4
			c0-0.1,0.1-0.2,0.2-0.3c0.1-0.1,0.2-0.2,0.3-0.2l0.1,0.4c-0.1,0-0.1,0.1-0.2,0.1c0,0.1-0.1,0.1-0.1,0.2c0,0.1,0,0.2,0,0.2
			c0,0.1,0,0.2,0,0.2c0,0.1,0.1,0.3,0.2,0.3c0.1,0.1,0.2,0.2,0.3,0.2c0.1,0,0.2,0.1,0.4,0.1c0.1,0,0.3,0,0.4-0.1l0.2-0.1l0,0
			c-0.2,0-0.3-0.1-0.5-0.2c-0.1-0.1-0.2-0.3-0.3-0.5c-0.1-0.2-0.1-0.4,0-0.6c0-0.2,0.1-0.3,0.2-0.5c0.1-0.1,0.2-0.3,0.4-0.4
			c0.2-0.1,0.3-0.2,0.5-0.2c0.2,0,0.3-0.1,0.5-0.1c0.2,0,0.4,0,0.5,0.1c0.2,0.1,0.3,0.2,0.5,0.3c0.1,0.1,0.2,0.3,0.3,0.6
			c0,0.2,0.1,0.3,0,0.5c0,0.2-0.1,0.3-0.2,0.4l0,0l0.4-0.1l0.1,0.4l-2.5,0.7C117,181.1,116.6,181.1,116.3,180.9z M117.4,180
			c0.1,0.1,0.2,0.1,0.3,0.2c0.1,0,0.2,0,0.4,0c0.1,0,0.3,0,0.4-0.1c0.1,0,0.2-0.1,0.3-0.1c0.1-0.1,0.2-0.1,0.3-0.2
			c0.1-0.1,0.1-0.2,0.2-0.3c0-0.1,0-0.2,0-0.4c0-0.1-0.1-0.3-0.2-0.3c-0.1-0.1-0.2-0.1-0.3-0.2c-0.1,0-0.2-0.1-0.4-0.1
			c-0.1,0-0.3,0-0.4,0.1c-0.1,0-0.2,0.1-0.4,0.1c-0.1,0.1-0.2,0.1-0.3,0.2c-0.1,0.1-0.1,0.2-0.2,0.3c0,0.1,0,0.2,0,0.4
			C117.2,179.8,117.3,179.9,117.4,180z"/>
		<path id="XMLID_84_" class="st7" d="M118.7,184.8c-0.2-0.1-0.3-0.3-0.4-0.5c-0.1-0.2-0.2-0.4-0.1-0.6c0-0.2,0-0.3,0.1-0.5
			c0.1-0.1,0.2-0.2,0.3-0.3c0.1-0.1,0.2-0.1,0.3-0.2c0.1-0.1,0.3-0.1,0.4-0.1c0.1,0,0.2,0,0.4,0.1c0.1,0,0.2,0.1,0.3,0.2
			c0.1,0.1,0.2,0.2,0.3,0.2c0-0.1,0.1-0.2,0.1-0.2c0-0.1,0.1-0.1,0.1-0.2c0-0.1,0.1-0.1,0.2-0.2c0.1-0.1,0.1-0.1,0.2-0.1
			c0.1,0,0.2-0.1,0.3-0.1c0.1,0,0.2,0,0.3,0.1c0.1,0,0.2,0.1,0.3,0.2c0.1,0.1,0.2,0.2,0.2,0.3c0,0.1,0.1,0.2,0.1,0.3
			c0,0.1,0,0.2,0,0.3c0,0.1-0.1,0.2-0.1,0.3c-0.1,0.1-0.2,0.2-0.3,0.2c-0.1,0-0.2,0.1-0.3,0.1c-0.1,0-0.2,0-0.3,0
			c-0.1,0-0.2-0.1-0.3-0.1c-0.1-0.1-0.2-0.1-0.3-0.2l-0.5,1c0.2,0,0.4-0.1,0.6-0.1l0.2,0.4c-0.1,0-0.2,0.1-0.3,0.1
			c-0.1,0-0.2,0-0.2,0c-0.1,0-0.1,0-0.2,0c-0.1,0-0.2,0-0.3,0l-0.5,1l-0.2-0.6l0.3-0.6C119.1,185.1,118.9,185,118.7,184.8z
			 M119.9,183.3c-0.1-0.1-0.2-0.1-0.3-0.1c-0.1,0-0.2,0-0.3,0c-0.1,0-0.2,0-0.3,0.1c-0.1,0-0.2,0.1-0.2,0.2
			c-0.1,0.1-0.1,0.1-0.1,0.2c0,0.1,0,0.2,0,0.3c0,0.1,0,0.2,0.1,0.3c0.1,0.2,0.2,0.3,0.3,0.4c0.1,0.1,0.3,0.2,0.4,0.2l0.6-1.2
			C120,183.4,120,183.4,119.9,183.3z M120.8,183.6c0.1,0,0.1,0.1,0.2,0.1c0.1,0,0.1,0,0.2,0c0.1,0,0.2,0,0.2,0
			c0.1,0,0.2-0.1,0.2-0.2c0-0.1,0-0.2,0-0.3c0-0.1-0.1-0.2-0.2-0.2c-0.1-0.1-0.2-0.1-0.3,0c-0.1,0-0.1,0.1-0.1,0.1
			c0,0-0.1,0.1-0.1,0.1c0,0.1-0.1,0.1-0.1,0.2c0,0.1-0.1,0.1-0.1,0.2C120.7,183.5,120.8,183.5,120.8,183.6z"/>
		<path id="XMLID_81_" class="st7" d="M124.5,187.6c0.2,0.3,0.3,0.6,0.2,0.9c-0.1,0.3-0.3,0.5-0.6,0.7c-0.3,0.2-0.6,0.2-0.9,0.2
			c-0.3-0.1-0.5-0.3-0.7-0.6l-0.6-1l-1.4,0.8l-0.3-0.4l3.3-2L124.5,187.6z M122.8,188.4c0.1,0.3,0.3,0.4,0.5,0.5
			c0.2,0.1,0.4,0,0.6-0.1c0.2-0.1,0.3-0.3,0.3-0.5c0-0.2,0-0.4-0.2-0.6l-0.5-0.9l-1.2,0.7L122.8,188.4z"/>
		<path id="XMLID_79_" class="st7" d="M123.3,192.7l0.4-0.3l0,0c-0.2,0-0.4,0-0.5-0.1c-0.2-0.1-0.3-0.2-0.4-0.4
			c-0.1-0.1-0.2-0.3-0.2-0.4c0-0.1,0-0.2,0-0.4c0-0.1,0.1-0.2,0.2-0.3c0.1-0.1,0.2-0.2,0.3-0.3l1.5-1.1l0.3,0.4l-1.5,1.1
			c-0.1,0.1-0.2,0.2-0.2,0.4c0,0.1,0,0.3,0.1,0.4c0.1,0.1,0.2,0.2,0.3,0.3c0.1,0.1,0.2,0.1,0.3,0.1c0.1,0,0.2,0,0.3,0
			c0.1,0,0.2-0.1,0.3-0.2l1.3-0.9l0.3,0.4l-2.3,1.7L123.3,192.7z"/>
		<path id="XMLID_76_" class="st7" d="M127.3,191.5l-1.1,1l0,0c0.2,0,0.3,0,0.5,0c0.2,0.1,0.3,0.2,0.4,0.3c0.1,0.2,0.2,0.3,0.3,0.5
			c0,0.2,0.1,0.3,0,0.5c0,0.2-0.1,0.3-0.2,0.5c-0.1,0.2-0.2,0.3-0.4,0.4c-0.1,0.1-0.3,0.2-0.5,0.3c-0.2,0.1-0.3,0.1-0.5,0.1
			c-0.2,0-0.3,0-0.5-0.1c-0.2-0.1-0.3-0.2-0.5-0.3c0-0.1-0.1-0.1-0.1-0.2c0-0.1-0.1-0.2-0.1-0.2c0-0.1,0-0.2-0.1-0.3
			c0-0.1,0-0.2,0-0.3l0,0l-0.3,0.2l-0.3-0.3l2.9-2.6L127.3,191.5z M126.9,194.2c0.1-0.1,0.1-0.2,0.1-0.3c0-0.1,0-0.2,0-0.4
			c0-0.1-0.1-0.2-0.2-0.3c-0.1-0.1-0.2-0.2-0.3-0.2c-0.1,0-0.2-0.1-0.4,0c-0.1,0-0.2,0.1-0.4,0.1c-0.1,0.1-0.2,0.1-0.3,0.2
			c-0.1,0.1-0.2,0.2-0.3,0.3c-0.1,0.1-0.1,0.2-0.2,0.3c0,0.1,0,0.2,0,0.4c0,0.1,0.1,0.2,0.2,0.4c0.1,0.1,0.2,0.2,0.3,0.2
			c0.1,0,0.2,0.1,0.4,0c0.1,0,0.2-0.1,0.4-0.1c0.1-0.1,0.2-0.1,0.3-0.2C126.7,194.4,126.8,194.3,126.9,194.2z"/>
		<path id="XMLID_74_" class="st7" d="M129.5,193.8l-2.8,2.7l-0.3-0.3l2.8-2.7L129.5,193.8z"/>
		<path id="XMLID_71_" class="st7" d="M129.5,195.4l-1.9,2l-0.3-0.3l1.9-2L129.5,195.4z M129.5,194.7l0.4-0.4l0.3,0.3l-0.4,0.4
			L129.5,194.7z"/>
		<path id="XMLID_69_" class="st7" d="M128.9,197.8c0,0.1,0,0.2,0,0.2c0,0.1,0.1,0.2,0.1,0.2c0.1,0.1,0.1,0.1,0.2,0.2
			c0.1,0,0.1,0.1,0.2,0.1c0.1,0,0.1,0.1,0.2,0.1c0.1,0,0.1,0,0.2,0c0.1,0,0.1-0.1,0.2-0.1c0.1-0.1,0.1-0.2,0.1-0.3
			c0-0.1-0.1-0.2-0.2-0.3c-0.1-0.1-0.2-0.2-0.3-0.4c-0.1-0.1-0.2-0.3-0.3-0.4c-0.1-0.1-0.1-0.3-0.1-0.4c0-0.1,0.1-0.3,0.2-0.4
			c0.1-0.1,0.2-0.2,0.3-0.2c0.1,0,0.2,0,0.3,0c0.1,0,0.2,0.1,0.3,0.1c0.1,0.1,0.2,0.1,0.3,0.2c0.1,0.1,0.2,0.2,0.3,0.3
			c0.1,0.1,0.1,0.2,0.2,0.3c0,0.1,0,0.2,0,0.4c0,0.1-0.1,0.3-0.2,0.4l-0.4-0.3c0.1-0.1,0.1-0.1,0.1-0.2c0-0.1,0-0.1,0-0.2
			c0-0.1-0.1-0.1-0.1-0.2c0-0.1-0.1-0.1-0.2-0.2c-0.1,0-0.1-0.1-0.2-0.1c-0.1,0-0.1-0.1-0.2-0.1c-0.1,0-0.1,0-0.2,0
			c-0.1,0-0.1,0-0.2,0.1c-0.1,0.1-0.1,0.1-0.1,0.2c0,0.1,0,0.2,0.1,0.2c0,0.1,0.1,0.2,0.2,0.3c0.1,0.1,0.1,0.2,0.2,0.3
			c0.1,0.1,0.1,0.2,0.2,0.3c0.1,0.1,0.1,0.2,0.1,0.3c0,0.1,0,0.2,0,0.3c0,0.1-0.1,0.2-0.2,0.3c-0.1,0.1-0.2,0.2-0.4,0.3
			c-0.1,0-0.3,0-0.4,0c-0.1,0-0.3-0.1-0.4-0.1c-0.1-0.1-0.2-0.2-0.4-0.2c-0.1-0.1-0.2-0.2-0.3-0.3c-0.1-0.1-0.1-0.2-0.2-0.4
			c0-0.1,0-0.3,0-0.4c0-0.1,0.1-0.3,0.2-0.4l0.4,0.3C128.9,197.6,128.9,197.7,128.9,197.8z"/>
		<path id="XMLID_67_" class="st7" d="M133.1,197l-0.9,1.2l0,0c0.1,0,0.2-0.1,0.3-0.1c0.1,0,0.2,0,0.3,0c0.1,0,0.2,0,0.3,0.1
			c0.1,0,0.2,0.1,0.2,0.1c0.1,0.1,0.3,0.2,0.3,0.3c0.1,0.1,0.1,0.2,0.1,0.3c0,0.1,0,0.2-0.1,0.4c0,0.1-0.1,0.2-0.2,0.4l-1.1,1.5
			l-0.4-0.3l1.1-1.5c0.1-0.1,0.1-0.3,0.1-0.4c0-0.1-0.1-0.3-0.2-0.4c-0.1-0.1-0.2-0.1-0.3-0.2c-0.1,0-0.2,0-0.3,0
			c-0.1,0-0.2,0.1-0.3,0.1c-0.1,0.1-0.2,0.2-0.2,0.3l-0.9,1.3l-0.4-0.3l2.3-3.1L133.1,197z"/>
		<path id="XMLID_64_" class="st7" d="M134.9,199.6l-1.5,2.4l-0.4-0.2l1.5-2.4L134.9,199.6z M134.8,198.9l0.3-0.5l0.4,0.3l-0.3,0.5
			L134.8,198.9z"/>
		<path id="XMLID_62_" class="st7" d="M135.8,200.2l-0.2,0.4l0,0c0.3-0.2,0.7-0.2,1,0c0.2,0.1,0.3,0.2,0.4,0.3
			c0.1,0.1,0.1,0.2,0.2,0.3c0,0.1,0,0.2,0,0.4c0,0.1-0.1,0.3-0.2,0.4l-0.9,1.6l-0.4-0.2l0.9-1.7c0.1-0.2,0.1-0.3,0.1-0.4
			c0-0.1-0.1-0.3-0.3-0.3c-0.1-0.1-0.2-0.1-0.4-0.1c-0.1,0-0.2,0-0.3,0c-0.1,0-0.2,0.1-0.3,0.2c-0.1,0.1-0.2,0.2-0.2,0.3l-0.8,1.4
			l-0.4-0.2l1.4-2.4L135.8,200.2z"/>
		<path id="XMLID_59_" class="st7" d="M138.4,205.6c-0.3,0.1-0.6,0.1-1-0.1c-0.1-0.1-0.2-0.1-0.3-0.2c-0.1-0.1-0.2-0.2-0.3-0.3
			c-0.1-0.1-0.1-0.2-0.1-0.3c0-0.1,0-0.3,0.1-0.4l0.4,0.2c0,0.1,0,0.2,0,0.2c0,0.1,0.1,0.1,0.1,0.2c0,0.1,0.1,0.1,0.2,0.2
			c0.1,0,0.1,0.1,0.2,0.1c0.1,0.1,0.3,0.1,0.4,0.1c0.1,0,0.2,0,0.3-0.1c0.1-0.1,0.2-0.1,0.3-0.2c0.1-0.1,0.2-0.2,0.2-0.4l0.1-0.2
			l0,0c-0.1,0.1-0.3,0.2-0.5,0.2c-0.2,0-0.4,0-0.5-0.1c-0.2-0.1-0.3-0.2-0.5-0.3c-0.1-0.1-0.2-0.3-0.2-0.4c0-0.2,0-0.3,0-0.5
			c0-0.2,0.1-0.4,0.2-0.5c0.1-0.2,0.2-0.3,0.3-0.4c0.1-0.1,0.2-0.3,0.4-0.3c0.2-0.1,0.3-0.1,0.5-0.2c0.2,0,0.4,0,0.6,0.1
			c0.2,0.1,0.3,0.2,0.4,0.3c0.1,0.1,0.2,0.3,0.2,0.5l0,0l0.2-0.4l0.4,0.2l-1.1,2.3C139,205.2,138.7,205.4,138.4,205.6z M138.4,204.2
			c0.1,0,0.2-0.1,0.3-0.1c0.1-0.1,0.2-0.2,0.3-0.3c0.1-0.1,0.2-0.2,0.2-0.3c0.1-0.1,0.1-0.2,0.1-0.3c0-0.1,0-0.2,0-0.4
			c0-0.1-0.1-0.2-0.1-0.3c-0.1-0.1-0.2-0.2-0.3-0.2c-0.1-0.1-0.3-0.1-0.4-0.1c-0.1,0-0.2,0-0.3,0.1s-0.2,0.1-0.3,0.2
			c-0.1,0.1-0.1,0.2-0.2,0.3c-0.1,0.1-0.1,0.2-0.1,0.4c0,0.1,0,0.2,0,0.4c0,0.1,0.1,0.2,0.1,0.3c0.1,0.1,0.2,0.2,0.3,0.2
			C138.2,204.2,138.3,204.2,138.4,204.2z"/>
	</g>
	<g id="XMLID_48_">
		<path id="XMLID_56_" class="st7" d="M184.5,193.6l-2.2-1.7l-0.6,0.8l-0.3-0.2c0.1-0.1,0.2-0.2,0.2-0.3c0.1-0.1,0.1-0.2,0.1-0.3
			c0-0.1,0-0.2,0-0.3c0-0.1-0.1-0.2-0.2-0.3l0.2-0.3l3,2.4L184.5,193.6z"/>
		<path id="XMLID_53_" class="st7" d="M185,189.6c-0.1-0.1-0.2-0.3-0.3-0.5c-0.1-0.2-0.1-0.3,0-0.5c0-0.2,0.1-0.4,0.2-0.6
			c0.1-0.2,0.3-0.3,0.4-0.4c0.2-0.1,0.3-0.2,0.5-0.2c0.2,0,0.4,0,0.5,0c0.2,0,0.4,0.1,0.5,0.2c0.2,0.1,0.3,0.2,0.4,0.4
			c0.1,0.1,0.2,0.3,0.3,0.5c0.1,0.2,0.1,0.3,0,0.5c0,0.2-0.1,0.4-0.2,0.6c-0.1,0.2-0.3,0.3-0.4,0.4c-0.2,0.1-0.3,0.2-0.5,0.2
			c-0.2,0-0.4,0-0.5,0c-0.2,0-0.4-0.1-0.5-0.2C185.2,189.9,185.1,189.8,185,189.6z M186.1,189.8c0.1,0,0.3,0,0.4,0
			c0.1,0,0.2-0.1,0.3-0.1c0.1-0.1,0.2-0.2,0.2-0.3c0.1-0.1,0.1-0.2,0.1-0.3c0-0.1,0-0.2,0-0.3c0-0.1-0.1-0.2-0.2-0.3
			c-0.1-0.1-0.2-0.2-0.4-0.3c-0.1-0.1-0.3-0.2-0.4-0.2c-0.1,0-0.3,0-0.4,0c-0.1,0-0.2,0.1-0.3,0.1c-0.1,0.1-0.2,0.2-0.2,0.3
			c-0.1,0.1-0.1,0.2-0.1,0.3c0,0.1,0,0.2,0,0.3c0,0.1,0.1,0.2,0.2,0.3c0.1,0.1,0.2,0.2,0.4,0.3C185.8,189.7,185.9,189.7,186.1,189.8
			z"/>
		<path id="XMLID_51_" class="st7" d="M186.1,186.1l0.4,0.2l0,0c-0.2-0.3-0.2-0.7,0-1c0.1-0.2,0.2-0.3,0.3-0.4
			c0.1-0.1,0.2-0.1,0.3-0.2c0.1,0,0.2,0,0.4,0c0.1,0,0.3,0.1,0.4,0.1l1.6,0.8l-0.2,0.4l-1.7-0.9c-0.2-0.1-0.3-0.1-0.4-0.1
			c-0.1,0-0.2,0.1-0.3,0.3c-0.1,0.1-0.1,0.2-0.1,0.4c0,0.1,0,0.2,0,0.3c0,0.1,0.1,0.2,0.2,0.3c0.1,0.1,0.2,0.1,0.3,0.2l1.4,0.7
			l-0.2,0.4l-2.5-1.3L186.1,186.1z"/>
		<path id="XMLID_49_" class="st7" d="M190.8,182.4l-2.6-0.9l-0.3,0.9l-0.3-0.1c0-0.1,0.1-0.2,0.1-0.4c0-0.1,0-0.2,0-0.4
			c0-0.1-0.1-0.2-0.1-0.3c-0.1-0.1-0.2-0.2-0.3-0.3l0.1-0.3l3.6,1.3L190.8,182.4z"/>
	</g>
	<g id="XMLID_5_">
		<path id="XMLID_45_" class="st7" d="M132.3,137.1c0.3-0.2,0.6-0.3,0.9-0.3c0.3,0,0.5,0.2,0.7,0.5c0.2,0.3,0.3,0.6,0.2,0.9
			c0,0.3-0.2,0.5-0.6,0.8l-1,0.7l0.9,1.3l-0.4,0.3l-2.2-3.2L132.3,137.1z M133.2,138.7c0.2-0.2,0.4-0.3,0.4-0.5c0-0.2,0-0.4-0.1-0.6
			c-0.1-0.2-0.3-0.3-0.5-0.3c-0.2,0-0.4,0-0.6,0.2l-0.8,0.6l0.8,1.2L133.2,138.7z"/>
		<path id="XMLID_42_" class="st7" d="M137.5,138.2c-0.1,0.2-0.3,0.4-0.6,0.6c-0.2,0.1-0.4,0.2-0.6,0.2c-0.2,0-0.3,0-0.5-0.1
			c-0.2-0.1-0.3-0.2-0.5-0.3c-0.1-0.1-0.3-0.3-0.4-0.5c-0.1-0.2-0.2-0.4-0.2-0.6c0-0.2,0-0.4,0-0.5c0-0.2,0.1-0.3,0.2-0.5
			c0.1-0.1,0.2-0.3,0.4-0.4c0.2-0.1,0.4-0.2,0.6-0.2c0.2,0,0.4,0.1,0.5,0.1c0.2,0.1,0.3,0.2,0.4,0.3c0.1,0.1,0.2,0.3,0.3,0.4l-1.8,1
			c0.1,0.1,0.1,0.2,0.2,0.3c0.1,0.1,0.2,0.1,0.3,0.2c0.1,0,0.2,0.1,0.3,0c0.1,0,0.2-0.1,0.4-0.1c0.2-0.1,0.3-0.2,0.3-0.4
			c0.1-0.1,0.1-0.3,0-0.5l0.4-0.2C137.6,137.7,137.6,138,137.5,138.2z M136.5,136.7c-0.1-0.1-0.2-0.1-0.3-0.1c-0.1,0-0.2,0-0.3,0
			c-0.1,0-0.2,0-0.3,0.1c-0.1,0.1-0.2,0.1-0.2,0.2c-0.1,0.1-0.1,0.2-0.1,0.3c0,0.1,0,0.2,0,0.3c0,0.1,0,0.2,0.1,0.3l1.4-0.8
			C136.6,136.9,136.6,136.8,136.5,136.7z"/>
		<path id="XMLID_39_" class="st7" d="M137.4,136.2c0-0.2,0-0.4,0-0.5c0-0.2,0.1-0.3,0.3-0.5c0.1-0.1,0.3-0.3,0.5-0.4
			c0.2-0.1,0.4-0.1,0.6-0.1c0.2,0,0.4,0,0.5,0.1c0.2,0.1,0.3,0.2,0.4,0.3c0.1,0.1,0.2,0.3,0.3,0.5c0.1,0.2,0.1,0.4,0.2,0.6
			c0,0.2,0,0.4,0,0.5c0,0.2-0.1,0.3-0.3,0.5c-0.1,0.1-0.3,0.3-0.5,0.4c-0.2,0.1-0.4,0.1-0.6,0.1c-0.2,0-0.4,0-0.5-0.1
			c-0.2-0.1-0.3-0.2-0.4-0.3c-0.1-0.1-0.2-0.3-0.3-0.5C137.4,136.6,137.4,136.4,137.4,136.2z M138.2,137c0.1,0.1,0.2,0.2,0.3,0.2
			c0.1,0,0.2,0.1,0.3,0.1c0.1,0,0.2,0,0.3-0.1c0.1-0.1,0.2-0.1,0.3-0.2c0.1-0.1,0.1-0.2,0.2-0.3c0-0.1,0-0.2,0-0.4
			c0-0.1-0.1-0.3-0.1-0.4c-0.1-0.2-0.2-0.3-0.3-0.4c-0.1-0.1-0.2-0.2-0.3-0.2c-0.1,0-0.2-0.1-0.3-0.1c-0.1,0-0.2,0-0.3,0.1
			c-0.1,0.1-0.2,0.1-0.3,0.2c-0.1,0.1-0.1,0.2-0.2,0.3c0,0.1,0,0.2,0,0.4c0,0.1,0.1,0.3,0.1,0.4C138,136.8,138.1,136.9,138.2,137z"
			/>
		<path id="XMLID_36_" class="st7" d="M140.4,134l0.1,0.4l0,0c0-0.2,0.1-0.3,0.2-0.4c0.1-0.1,0.3-0.2,0.5-0.3
			c0.2-0.1,0.4-0.1,0.6-0.1c0.2,0,0.3,0.1,0.5,0.2c0.1,0.1,0.3,0.2,0.4,0.4c0.1,0.2,0.2,0.3,0.3,0.5c0.1,0.2,0.1,0.4,0.1,0.6
			c0,0.2,0,0.4-0.1,0.5c-0.1,0.2-0.1,0.3-0.3,0.4c-0.1,0.1-0.3,0.2-0.5,0.3c-0.1,0-0.1,0-0.2,0.1c-0.1,0-0.2,0-0.3,0
			c-0.1,0-0.2,0-0.3,0c-0.1,0-0.2-0.1-0.2-0.1l0,0l0.5,1.4l-0.4,0.2l-1.3-3.6L140.4,134z M142.3,134.3c-0.1-0.1-0.2-0.2-0.3-0.3
			c-0.1-0.1-0.2-0.1-0.3-0.1c-0.1,0-0.3,0-0.4,0.1c-0.1,0.1-0.3,0.1-0.3,0.2c-0.1,0.1-0.1,0.2-0.2,0.3c0,0.1,0,0.2,0,0.4
			c0,0.1,0,0.3,0.1,0.4c0,0.1,0.1,0.2,0.2,0.4c0.1,0.1,0.2,0.2,0.3,0.3c0.1,0.1,0.2,0.1,0.3,0.1c0.1,0,0.3,0,0.4-0.1
			c0.1-0.1,0.3-0.1,0.3-0.2c0.1-0.1,0.1-0.2,0.2-0.3c0-0.1,0-0.2,0-0.4c0-0.1,0-0.3-0.1-0.4C142.5,134.5,142.4,134.4,142.3,134.3z"
			/>
		<path id="XMLID_34_" class="st7" d="M143.2,131.9l1.1,3.7l-0.4,0.1l-1.1-3.7L143.2,131.9z"/>
		<path id="XMLID_31_" class="st7" d="M146.8,134.8c-0.2,0.2-0.4,0.3-0.7,0.4c-0.2,0.1-0.4,0.1-0.6,0c-0.2,0-0.3-0.1-0.5-0.2
			c-0.1-0.1-0.3-0.2-0.4-0.4c-0.1-0.2-0.2-0.3-0.2-0.6c0-0.2-0.1-0.4,0-0.6c0-0.2,0.1-0.4,0.2-0.5c0.1-0.2,0.2-0.3,0.3-0.4
			c0.1-0.1,0.3-0.2,0.5-0.2c0.2-0.1,0.5-0.1,0.6,0c0.2,0.1,0.3,0.2,0.5,0.3c0.1,0.1,0.2,0.3,0.3,0.5c0.1,0.2,0.1,0.3,0.2,0.5l-2,0.5
			c0,0.1,0.1,0.2,0.1,0.3c0.1,0.1,0.1,0.2,0.2,0.2c0.1,0.1,0.2,0.1,0.3,0.1c0.1,0,0.3,0,0.4,0c0.2,0,0.3-0.1,0.4-0.2
			c0.1-0.1,0.2-0.3,0.1-0.5l0.4-0.1C147.1,134.3,147,134.6,146.8,134.8z M146.3,133c-0.1-0.1-0.1-0.2-0.2-0.2
			c-0.1-0.1-0.2-0.1-0.3-0.1c-0.1,0-0.2,0-0.3,0c-0.1,0-0.2,0.1-0.3,0.1c-0.1,0.1-0.2,0.1-0.2,0.2c0,0.1-0.1,0.2-0.1,0.3
			c0,0.1,0,0.2,0,0.3l1.6-0.4C146.4,133.2,146.4,133.1,146.3,133z"/>
		<path id="XMLID_29_" class="st7" d="M151.3,130.4l0,0.4l-2.2,0.2l0.1,1.2l2-0.2l0,0.4l-2,0.2l0.1,1.3l2.2-0.2l0,0.4l-2.7,0.3
			l-0.4-3.9L151.3,130.4z"/>
		<path id="XMLID_27_" class="st7" d="M152.5,131.4l0,0.4h0c0.2-0.3,0.5-0.5,0.9-0.5c0.2,0,0.3,0,0.5,0.1c0.1,0,0.2,0.1,0.3,0.2
			c0.1,0.1,0.1,0.2,0.2,0.3c0,0.1,0.1,0.3,0.1,0.4l0,1.9l-0.5,0l0-1.9c0-0.2-0.1-0.3-0.2-0.4c-0.1-0.1-0.2-0.1-0.4-0.1
			c-0.1,0-0.3,0-0.4,0.1c-0.1,0-0.2,0.1-0.3,0.2c-0.1,0.1-0.1,0.2-0.1,0.3c0,0.1,0,0.2,0,0.4l0,1.6l-0.5,0l-0.1-2.8L152.5,131.4z"/>
		<path id="XMLID_24_" class="st7" d="M157.1,135.1c-0.2,0.2-0.6,0.3-1,0.3c-0.1,0-0.3,0-0.4-0.1c-0.1,0-0.3-0.1-0.4-0.2
			c-0.1-0.1-0.2-0.2-0.3-0.3c-0.1-0.1-0.1-0.2-0.1-0.4l0.5,0c0,0.1,0,0.2,0.1,0.2c0,0.1,0.1,0.1,0.2,0.2c0.1,0,0.1,0.1,0.2,0.1
			c0.1,0,0.2,0,0.2,0c0.2,0,0.3,0,0.4-0.1c0.1,0,0.2-0.1,0.3-0.2c0.1-0.1,0.1-0.2,0.2-0.3c0-0.1,0.1-0.3,0.1-0.4l0-0.2h0
			c-0.1,0.2-0.2,0.3-0.4,0.4c-0.2,0.1-0.3,0.1-0.5,0.1c-0.2,0-0.4-0.1-0.5-0.1c-0.2-0.1-0.3-0.2-0.4-0.3c-0.1-0.1-0.2-0.3-0.2-0.5
			c0-0.2-0.1-0.4,0-0.6c0-0.2,0-0.3,0.1-0.5c0.1-0.2,0.1-0.3,0.2-0.5c0.1-0.1,0.2-0.2,0.4-0.3c0.2-0.1,0.4-0.1,0.6-0.1
			c0.2,0,0.3,0.1,0.5,0.1c0.1,0.1,0.3,0.2,0.3,0.4h0l0-0.4l0.4,0l-0.1,2.6C157.5,134.5,157.3,134.9,157.1,135.1z M156.6,133.8
			c0.1-0.1,0.2-0.1,0.3-0.2c0.1-0.1,0.1-0.2,0.2-0.3c0-0.1,0.1-0.3,0.1-0.4c0-0.1,0-0.2,0-0.4c0-0.1-0.1-0.2-0.1-0.3
			c-0.1-0.1-0.1-0.2-0.2-0.2c-0.1-0.1-0.2-0.1-0.4-0.1c-0.1,0-0.3,0-0.4,0.1c-0.1,0.1-0.2,0.1-0.3,0.2c-0.1,0.1-0.1,0.2-0.2,0.3
			s-0.1,0.2-0.1,0.4c0,0.1,0,0.3,0,0.4c0,0.1,0.1,0.2,0.1,0.4c0.1,0.1,0.1,0.2,0.2,0.3c0.1,0.1,0.2,0.1,0.4,0.1
			C156.3,133.9,156.5,133.8,156.6,133.8z"/>
		<path id="XMLID_21_" class="st7" d="M160.5,134.7c-0.1,0-0.2,0-0.3,0c-0.1,0-0.2-0.1-0.3-0.1c-0.1-0.1-0.1-0.2-0.1-0.3
			c-0.1,0.1-0.3,0.2-0.5,0.3c-0.2,0-0.4,0.1-0.6,0c-0.1,0-0.2,0-0.4-0.1c-0.1,0-0.2-0.1-0.3-0.2c-0.1-0.1-0.1-0.2-0.2-0.3
			c0-0.1,0-0.2,0-0.4c0-0.2,0.1-0.3,0.1-0.4c0.1-0.1,0.1-0.2,0.2-0.2c0.1,0,0.2-0.1,0.3-0.1c0.1,0,0.2,0,0.4,0c0.1,0,0.2,0,0.4,0
			c0.1,0,0.2,0,0.3,0c0.1,0,0.2,0,0.2-0.1c0.1,0,0.1-0.1,0.1-0.2c0-0.1,0-0.2,0-0.2c0-0.1-0.1-0.1-0.1-0.2c-0.1,0-0.1-0.1-0.2-0.1
			c-0.1,0-0.1,0-0.2,0c-0.2,0-0.4,0-0.5,0c-0.1,0.1-0.2,0.2-0.3,0.4l-0.5-0.1c0-0.2,0.1-0.3,0.2-0.4c0.1-0.1,0.2-0.2,0.3-0.3
			c0.1-0.1,0.2-0.1,0.4-0.1c0.1,0,0.3,0,0.5,0c0.1,0,0.2,0,0.4,0.1c0.1,0,0.2,0.1,0.3,0.2c0.1,0.1,0.2,0.2,0.2,0.3
			c0,0.1,0.1,0.2,0,0.4l-0.2,1.4c0,0.1,0,0.2,0,0.2c0,0.1,0,0.1,0.1,0.1c0,0,0.1,0,0.1,0L160.5,134.7z M159.9,133.2
			c-0.1,0-0.1,0.1-0.2,0.1c-0.1,0-0.2,0-0.3,0c-0.1,0-0.2,0-0.3,0c-0.1,0-0.2,0-0.3,0c-0.1,0-0.2,0.1-0.2,0.1
			c-0.1,0.1-0.1,0.1-0.1,0.3c0,0.1,0,0.1,0,0.2c0,0.1,0.1,0.1,0.1,0.1c0,0,0.1,0.1,0.2,0.1c0.1,0,0.1,0,0.2,0.1c0.2,0,0.3,0,0.4,0
			c0.1,0,0.2-0.1,0.3-0.1c0.1-0.1,0.1-0.1,0.2-0.2c0-0.1,0.1-0.1,0.1-0.2L159.9,133.2z"/>
		<path id="XMLID_18_" class="st7" d="M162.6,136c-0.3,0.2-0.6,0.2-1,0.1c-0.1,0-0.3-0.1-0.4-0.1c-0.1-0.1-0.2-0.1-0.3-0.2
			c-0.1-0.1-0.2-0.2-0.2-0.3c0-0.1-0.1-0.3,0-0.4l0.5,0.1c0,0.1,0,0.2,0,0.2c0,0.1,0.1,0.1,0.1,0.2c0.1,0.1,0.1,0.1,0.2,0.1
			c0.1,0,0.2,0.1,0.2,0.1c0.1,0,0.3,0,0.4,0c0.1,0,0.2-0.1,0.3-0.2c0.1-0.1,0.2-0.2,0.2-0.3c0.1-0.1,0.1-0.3,0.1-0.4l0-0.2l0,0
			c-0.1,0.2-0.3,0.3-0.4,0.3c-0.2,0-0.4,0-0.5,0c-0.2,0-0.4-0.1-0.5-0.2c-0.1-0.1-0.2-0.2-0.3-0.4c-0.1-0.1-0.1-0.3-0.1-0.5
			c0-0.2,0-0.4,0-0.6c0-0.2,0.1-0.3,0.2-0.5c0.1-0.2,0.2-0.3,0.3-0.4c0.1-0.1,0.3-0.2,0.5-0.3c0.2-0.1,0.4-0.1,0.6,0
			c0.2,0,0.3,0.1,0.5,0.2c0.1,0.1,0.2,0.2,0.3,0.4l0,0l0.1-0.4l0.4,0.1l-0.6,2.5C163.1,135.5,162.9,135.8,162.6,136z M162.3,134.6
			c0.1,0,0.2-0.1,0.3-0.2c0.1-0.1,0.2-0.2,0.2-0.3c0.1-0.1,0.1-0.2,0.1-0.4c0-0.1,0-0.2,0-0.4c0-0.1,0-0.2-0.1-0.3
			c0-0.1-0.1-0.2-0.2-0.3c-0.1-0.1-0.2-0.1-0.3-0.2c-0.1,0-0.3,0-0.4,0c-0.1,0-0.2,0.1-0.3,0.2c-0.1,0.1-0.2,0.2-0.2,0.3
			c-0.1,0.1-0.1,0.2-0.1,0.4c0,0.1,0,0.3,0,0.4c0,0.1,0,0.3,0.1,0.4c0,0.1,0.1,0.2,0.2,0.3c0.1,0.1,0.2,0.1,0.4,0.2
			C162.1,134.7,162.2,134.7,162.3,134.6z"/>
		<path id="XMLID_15_" class="st7" d="M165.6,135.9c-0.2,0.1-0.5,0.1-0.8,0c-0.2-0.1-0.4-0.2-0.5-0.3c-0.1-0.1-0.2-0.3-0.3-0.4
			c-0.1-0.2-0.1-0.3-0.1-0.5c0-0.2,0-0.4,0.1-0.6c0.1-0.2,0.2-0.4,0.3-0.5c0.1-0.1,0.2-0.3,0.4-0.4c0.2-0.1,0.3-0.1,0.5-0.2
			c0.2,0,0.4,0,0.5,0.1c0.2,0.1,0.4,0.2,0.5,0.3c0.1,0.1,0.2,0.3,0.3,0.5c0,0.2,0.1,0.4,0,0.6c0,0.2-0.1,0.4-0.1,0.5l-2-0.6
			c0,0.1-0.1,0.2-0.1,0.3c0,0.1,0,0.2,0.1,0.3c0,0.1,0.1,0.2,0.2,0.3c0.1,0.1,0.2,0.1,0.4,0.2c0.2,0.1,0.4,0.1,0.5,0
			c0.1,0,0.3-0.2,0.4-0.3l0.4,0.1C166,135.6,165.8,135.8,165.6,135.9z M166,134.1c0-0.1,0-0.2-0.1-0.3c0-0.1-0.1-0.2-0.2-0.2
			s-0.2-0.1-0.3-0.2c-0.1,0-0.2,0-0.3,0c-0.1,0-0.2,0-0.3,0.1c-0.1,0-0.2,0.1-0.2,0.2c-0.1,0.1-0.1,0.2-0.2,0.3l1.5,0.5
			C166,134.3,166,134.2,166,134.1z"/>
		<path id="XMLID_13_" class="st7" d="M167.7,133.8l-0.2,0.4l0,0c0.3-0.2,0.7-0.2,1-0.1c0.2,0.1,0.3,0.2,0.4,0.3
			c0.1,0.1,0.1,0.3,0.1,0.5c0.1-0.1,0.3-0.2,0.5-0.2c0.2,0,0.3,0,0.5,0.1c0.1,0.1,0.2,0.1,0.3,0.2c0.1,0.1,0.2,0.2,0.2,0.2
			c0,0.1,0.1,0.2,0.1,0.3c0,0.1,0,0.2-0.1,0.4l-0.8,1.9l-0.4-0.2l0.7-1.7c0-0.1,0.1-0.2,0.1-0.2c0-0.1,0-0.1,0-0.2
			c0-0.1,0-0.1-0.1-0.2c-0.1-0.1-0.1-0.1-0.2-0.2c-0.2-0.1-0.4-0.1-0.6,0c-0.2,0.1-0.3,0.2-0.4,0.4l-0.7,1.6l-0.4-0.2l0.7-1.7
			c0-0.1,0.1-0.2,0.1-0.2c0-0.1,0-0.1,0-0.2c0-0.1,0-0.1-0.1-0.2c-0.1-0.1-0.1-0.1-0.2-0.1c-0.1-0.1-0.2-0.1-0.4-0.1
			c-0.1,0-0.2,0-0.3,0.1c-0.1,0-0.2,0.1-0.2,0.2c-0.1,0.1-0.1,0.1-0.1,0.2l-0.7,1.6l-0.4-0.2l1.1-2.6L167.7,133.8z"/>
		<path id="XMLID_10_" class="st7" d="M172.1,138.9c-0.3,0-0.5,0-0.8-0.2c-0.2-0.1-0.3-0.2-0.5-0.4c-0.1-0.1-0.2-0.3-0.2-0.5
			c0-0.2,0-0.3,0-0.5c0-0.2,0.1-0.4,0.2-0.6c0.1-0.2,0.2-0.3,0.4-0.5c0.1-0.1,0.3-0.2,0.5-0.3c0.2-0.1,0.3-0.1,0.5-0.1
			c0.2,0,0.3,0.1,0.5,0.2c0.2,0.1,0.4,0.3,0.5,0.4c0.1,0.2,0.1,0.4,0.2,0.5c0,0.2,0,0.4-0.1,0.6c-0.1,0.2-0.1,0.3-0.2,0.5l-1.8-1
			c-0.1,0.1-0.1,0.2-0.1,0.3c0,0.1,0,0.2,0,0.3c0,0.1,0.1,0.2,0.1,0.3c0.1,0.1,0.2,0.2,0.3,0.3c0.2,0.1,0.3,0.1,0.5,0.1
			c0.2,0,0.3-0.1,0.4-0.2l0.4,0.2C172.6,138.7,172.4,138.8,172.1,138.9z M172.9,137.2c0-0.1,0-0.2,0-0.3c0-0.1-0.1-0.2-0.1-0.3
			c-0.1-0.1-0.1-0.2-0.2-0.2c-0.1-0.1-0.2-0.1-0.3-0.1c-0.1,0-0.2,0-0.3,0c-0.1,0-0.2,0.1-0.3,0.1c-0.1,0.1-0.2,0.1-0.2,0.2l1.4,0.8
			C172.9,137.4,172.9,137.3,172.9,137.2z"/>
		<path id="XMLID_8_" class="st7" d="M174.6,137.3l-0.2,0.4l0,0c0.3-0.2,0.7-0.1,1,0.1c0.2,0.1,0.3,0.2,0.3,0.3
			c0.1,0.1,0.1,0.2,0.1,0.3c0,0.1,0,0.2,0,0.4c0,0.1-0.1,0.2-0.2,0.4l-1,1.5l-0.4-0.3l1.1-1.6c0.1-0.1,0.1-0.3,0.1-0.4
			c0-0.1-0.1-0.3-0.3-0.4c-0.1-0.1-0.2-0.1-0.3-0.1c-0.1,0-0.2,0-0.3,0c-0.1,0-0.2,0.1-0.3,0.1c-0.1,0.1-0.2,0.2-0.2,0.3l-0.9,1.3
			l-0.4-0.3l1.6-2.3L174.6,137.3z"/>
		<path id="XMLID_6_" class="st7" d="M177.7,139.6l-0.2,0.3l-0.4-0.3l-1.1,1.4c0,0-0.1,0.1-0.1,0.1c0,0,0,0.1,0,0.1
			c0,0,0,0.1,0.1,0.1c0,0,0.1,0.1,0.1,0.1l0.2,0.1l-0.2,0.3l-0.3-0.2c-0.1-0.1-0.2-0.1-0.2-0.2c-0.1-0.1-0.1-0.1-0.1-0.2
			c0-0.1,0-0.1,0-0.2c0-0.1,0.1-0.2,0.2-0.3l1.1-1.4l-0.4-0.3l0.2-0.3l0.4,0.3l0.5-0.7l0.4,0.3l-0.5,0.7L177.7,139.6z"/>
	</g>
</g>
</svg>
