<?xml version="1.0" encoding="utf-8"?>
<!-- Generator: Adobe Illustrator 19.0.0, SVG Export Plug-In . SVG Version: 6.00 Build 0)  -->
<svg version="1.1" id="Layer_1" xmlns="http://www.w3.org/2000/svg" xmlns:xlink="http://www.w3.org/1999/xlink" x="0px" y="0px"
	 viewBox="-618 344.8 41.4 33.2" style="enable-background:new -618 344.8 41.4 33.2;" xml:space="preserve">
<style type="text/css">
	.st0{fill:#A6A8AB;}
</style>
<g id="k496XO_3_">
	<g id="XMLID_121_">
		<path id="XMLID_122_" class="st0" d="M-577.8,345.4C-577.8,345.4-577.9,345.4-577.8,345.4c-0.1,0-0.2,0-0.3,0.1
			c-1.6,0.9-3.2,1.5-4.9,1.9c-0.1,0-0.2,0-0.3-0.1c-0.5-0.4-0.9-0.8-1.4-1.1c-1.3-0.9-2.7-1.3-4.2-1.4c-1.3-0.1-2.6,0.2-3.8,0.7
			c-1.6,0.7-2.8,1.8-3.8,3.2c-0.5,0.8-0.9,1.7-1.1,2.7c-0.2,0.9-0.3,1.9-0.1,2.8c0,0.3,0.1,0.6,0.1,1c-7.2-0.6-12.9-3.5-17.5-8.9
			c-1.1,1.9-1.4,4-1,6.1c0.5,2.1,1.6,3.8,3.4,5.1c-1.3,0-2.5-0.4-3.7-1c0,2,0.6,3.8,1.8,5.4s2.8,2.6,4.8,3c-1.2,0.3-2.4,0.3-3.6,0.1
			c0.6,1.8,1.6,3.1,3,4.2s3,1.6,4.8,1.7c-3.7,2.8-7.8,3.9-12.4,3.5c0.1,0.1,0.1,0.1,0.2,0.1c0.6,0.3,1.2,0.7,1.9,1
			c1.1,0.6,2.2,1,3.4,1.4c1.1,0.3,2.2,0.6,3.3,0.8c1.1,0.2,2.3,0.3,3.5,0.3c1.4,0,2.7,0,4.1-0.2c1.2-0.2,2.5-0.4,3.7-0.8
			c1.4-0.4,2.7-0.9,4-1.6c2-1,3.7-2.2,5.3-3.7c0.9-0.9,1.8-1.8,2.6-2.8c1.5-1.9,2.6-3.9,3.5-6.2c0.6-1.4,1-2.9,1.3-4.5
			c0.3-1.4,0.4-2.8,0.4-4.3c0-0.3,0-0.6,0-1c0-0.1,0.1-0.2,0.2-0.3c0.6-0.5,1.3-1.1,1.9-1.6c0.8-0.7,1.4-1.5,2-2.4
			c0-0.1,0.1-0.1,0.1-0.2c-0.8,0.3-1.5,0.5-2.3,0.8c-0.8,0.2-1.5,0.4-2.3,0.5C-579.7,348.8-578.5,347.3-577.8,345.4z"/>
	</g>
</g>
</svg>
