<?xml version="1.0" encoding="utf-8"?>
<!-- Generator: Adobe Illustrator 19.0.0, SVG Export Plug-In . SVG Version: 6.00 Build 0)  -->
<svg version="1.1" id="Layer_1" xmlns="http://www.w3.org/2000/svg" xmlns:xlink="http://www.w3.org/1999/xlink" x="0px" y="0px"
	 viewBox="-540 266.3 174 174" style="enable-background:new -540 266.3 174 174;" xml:space="preserve">
<style type="text/css">
	.st0{fill:none;stroke:#B4B4B4;stroke-width:2;stroke-miterlimit:10;}
</style>
<circle id="XMLID_227_" class="st0" cx="-453.2" cy="353" r="84.8"/>
<g id="XMLID_217_">
	<path id="XMLID_224_" class="st0" d="M-470.2,346.2c0,0-2.3,0.2-4.5,0.9c-4.9,1.6-6.7,2.9-7.3,3.7c-1.4,1.7-2.9,5.4-4.1,9.8
		c-1.2,4.3-2.6,10.1-2.7,13.5c-0.1,2-0.1,3.4,0,4.5c1.6-0.9,3.9-2.4,5.8-3.8c2.1-1.6,4.4-3.8,5-4.3
		C-478.1,370.5-476.4,361.2-470.2,346.2z"/>
	<path id="XMLID_223_" class="st0" d="M-452.9,383.1c-0.5,2.4-0.6,2.6-0.7,6.9c0,3.2,0.2,4.3,0.4,6.1c0.9-0.6,2-1.5,3.6-2.8
		c2.6-2.2,6.4-6.7,9.1-10.3c2.7-3.6,4.7-7.1,5.2-9.2c0.2-1,0.4-3.3-1.5-8c-0.3-0.7-1.6-3.2-1.9-3.8
		C-438.7,362-445.4,373.3-452.9,383.1z"/>
	<path id="XMLID_220_" class="st0" d="M-456,381.3l-19.4-9.6c0,0,5.8-16,10.3-26.8l0.6-1.5c0-0.1,2.8-7.3,9.6-19.5
		c2.7-4.8,6-9.4,10-13.6c3.2-3.4,6.7-6.6,10.5-9.6c3.7-2.8,7.2-5.5,9.3-6.7c0.3,2.4,0.4,6.9,0.4,11.6c0,4.8-0.4,9.6-1.2,14.1
		c-1,5.7-2.6,11.1-4.8,16.1c-5.5,12.7-9.6,19.5-9.6,19.5l-0.8,1.4C-448.1,369.4-456,381.3-456,381.3z M-434.5,313.5
		c-3.3-1.6-7.3-0.3-8.9,3c-1.6,3.3-0.3,7.3,3,8.9c3.3,1.6,7.3,0.3,8.9-3C-429.8,319.2-431.2,315.2-434.5,313.5z"/>
	<path id="XMLID_219_" class="st0" d="M-439.2,323c-1.9-1-2.7-3.3-1.8-5.2s3.3-2.7,5.2-1.8c1.9,0.9,2.7,3.3,1.8,5.2
		C-434.9,323.2-437.2,324-439.2,323z"/>
	<path id="XMLID_218_" class="st0" d="M-476.5,376.3l17.4,8.6c0,0-4,8-10,11.7c0,0,3.2-7.4,1-11.1c-2.2-3.7-9.4,2.2-9.9,17.6
		C-478.1,403.1-484.7,393.4-476.5,376.3z"/>
</g>
</svg>
